<svg width="32" height="32" viewBox="0 0 32 32" fill="none" xmlns="http://www.w3.org/2000/svg">
<path fill-rule="evenodd" clip-rule="evenodd" d="M16 1C13.7651 1 11.8727 2.46628 11.2322 4.48931C9.34886 3.51151 6.97379 3.81279 5.39342 5.39316C3.81301 6.97357 3.51175 9.34873 4.48962 11.2321C2.46643 11.8725 1 13.765 1 16C1 18.2349 2.46628 20.1273 4.48932 20.7677C3.5115 22.6511 3.81278 25.0262 5.39316 26.6066C6.97356 28.187 9.34872 28.4882 11.2321 27.5104C11.8724 29.5336 13.7649 31 15.9999 31C18.235 31 20.1275 29.5335 20.7678 27.5102C22.6512 28.488 25.0262 28.1867 26.6065 26.6063C28.1868 25.026 28.4882 22.6511 27.5105 20.7678C29.5336 20.1274 31 18.2349 31 16C31 13.7651 29.5337 11.8727 27.5107 11.2323C28.4885 9.34888 28.1872 6.97381 26.6068 5.39344C25.0264 3.81303 22.6512 3.51176 20.7678 4.48966C20.1275 2.46645 18.235 1 16 1Z" fill="#FEB7BB"/>
<circle cx="9" cy="19" r="3" fill="#FD959B"/>
<circle cx="23" cy="19" r="3" fill="#FD959B"/>
<path d="M8 14C8 17.3333 13 17.3333 13 14" stroke="#5D5D67" stroke-width="1.5" stroke-linecap="round"/>
<path d="M19 14C19 17.3333 24 17.3333 24 14" stroke="#5D5D67" stroke-width="1.5" stroke-linecap="round"/>
<ellipse cx="3" cy="3" rx="3" ry="3" transform="matrix(1 0 -0.00387945 -0.999993 11 24)" fill="#FEF6F1"/>
<ellipse cx="3" cy="3" rx="3" ry="3" transform="matrix(1 0 -0.00387945 -0.999993 15.0234 24)" fill="#FEF6F1"/>
<ellipse cx="2.25" cy="2.25" rx="2.25" ry="2.25" transform="matrix(1 0 -0.00387945 -0.999993 12.5 23.25)" fill="#F9C7A4"/>
<ellipse cx="2.25" cy="2.25" rx="2.25" ry="2.25" transform="matrix(1 0 -0.00387945 -0.999993 15 23.25)" fill="#F9C7A4"/>
<ellipse cx="1.25" cy="1.25" rx="1.25" ry="1.25" transform="matrix(1 0 -0.00387945 -0.999993 14.75 23.5)" stroke="#FEF6F1"/>
</svg>
