<svg width="36" height="36" viewBox="0 0 36 36" fill="none" xmlns="http://www.w3.org/2000/svg">
<path fill-rule="evenodd" clip-rule="evenodd" d="M8 26.1758C5.23858 26.1758 3 23.8982 3 21.0887V9.58719C3 6.77761 5.23858 4.5 8 4.5H28C30.7614 4.5 33 6.77761 33 9.58718V21.0887C33 23.8982 30.7614 26.1758 28 26.1758H27.2391C26.3187 26.1758 25.5725 26.935 25.5725 27.8716V32.625L19.722 26.6725C19.4094 26.3545 18.9855 26.1758 18.5435 26.1758H8ZM24.5625 17.25C25.598 17.25 26.4375 16.4105 26.4375 15.375C26.4375 14.3395 25.598 13.5 24.5625 13.5C23.527 13.5 22.6875 14.3395 22.6875 15.375C22.6875 16.4105 23.527 17.25 24.5625 17.25ZM13.3125 15.375C13.3125 16.4105 12.473 17.25 11.4375 17.25C10.402 17.25 9.5625 16.4105 9.5625 15.375C9.5625 14.3395 10.402 13.5 11.4375 13.5C12.473 13.5 13.3125 14.3395 13.3125 15.375ZM18 17.25C19.0355 17.25 19.875 16.4105 19.875 15.375C19.875 14.3395 19.0355 13.5 18 13.5C16.9645 13.5 16.125 14.3395 16.125 15.375C16.125 16.4105 16.9645 17.25 18 17.25Z" fill="white"/>
</svg>
