<svg width="12" height="13" viewBox="0 0 12 13" fill="none" xmlns="http://www.w3.org/2000/svg">
<path d="M5.5492 2.40185H2.70595C1.76378 2.40185 1 3.1656 1 4.10774V9.79411C1 10.7362 1.76378 11.5 2.70595 11.5H8.39244C9.33461 11.5 10.0984 10.7362 10.0984 9.79411L10.0984 6.95092M3.84325 8.65679L5.91218 8.23993C6.02201 8.2178 6.12286 8.16372 6.20206 8.08447L10.8336 3.45058C11.0556 3.22841 11.0555 2.86828 10.8332 2.6463L9.8521 1.66632C9.62995 1.44443 9.26999 1.44458 9.04803 1.66666L4.41605 6.30103C4.337 6.38012 4.28302 6.48076 4.26087 6.59036L3.84325 8.65679Z" stroke="#FD757D" stroke-width="1.25" stroke-linecap="round" stroke-linejoin="round"/>
</svg>
