<svg width="32" height="32" viewBox="0 0 32 32" fill="none" xmlns="http://www.w3.org/2000/svg">
<path fill-rule="evenodd" clip-rule="evenodd" d="M16.0061 3.30664C8.418 3.30664 2.26685 8.19492 2.26685 14.2254C2.26685 18.1504 4.87309 21.5907 8.78486 23.5155L8.78368 23.5199C8.4956 24.6011 7.74372 27.423 7.59379 28.0272C7.4071 28.7783 7.86664 28.7682 8.16865 28.5674C8.39389 28.4164 11.5984 26.2255 13.2201 25.1166L13.4556 24.9557C14.2824 25.0791 15.1345 25.1442 16.0061 25.1442C23.5942 25.1442 29.7454 20.256 29.7454 14.2254C29.7454 8.19492 23.5942 3.30664 16.0061 3.30664ZM20.8005 11.338C20.8113 11.7352 20.7969 14.4751 20.7886 16.0533L20.7886 16.0542C20.7856 16.6289 20.7834 17.0493 20.7835 17.1463C20.784 17.7198 22.2357 17.7185 22.2353 17.1454V15.2166L22.6617 14.8727L24.526 17.4302C24.9033 17.9298 26.0891 17.0268 25.7127 16.5273L23.7327 13.9059C23.7327 13.9059 25.0765 12.4448 25.6061 11.9154C25.9151 11.607 24.9581 10.638 24.6492 10.9473C24.3498 11.2457 22.2448 13.3643 22.2448 13.3643C22.2448 13.3643 22.2635 12.034 22.244 11.2986C22.2366 11.0195 21.8958 10.8843 21.5472 10.8843C21.1743 10.8843 20.7927 11.0392 20.8005 11.338ZM7.83466 12.2155H6.42079C5.59178 12.2155 5.58917 10.8537 6.41904 10.8523C6.41904 10.8523 9.7294 10.8799 10.7199 10.8799C11.5989 10.8808 11.598 12.2702 10.719 12.2702C9.78554 12.2697 9.31163 12.2662 9.31163 12.2662L9.30554 17.0399C9.30728 17.7031 7.83814 17.6939 7.8364 17.0298C7.8438 16.1203 7.83466 12.2155 7.83466 12.2155ZM16.5509 11.5345C16.5535 12.7712 16.5579 16.7562 16.5579 16.7562C16.5579 16.7562 16.4443 17.548 17.1197 17.548C17.4589 17.548 18.0056 17.5461 18.5501 17.5442H18.5501C19.0902 17.5424 19.628 17.5405 19.9592 17.5405C20.6237 17.5405 20.6198 16.1192 19.9557 16.1192C19.2907 16.1192 18.0779 16.1122 18.0779 16.1122C18.0779 16.1122 18.0836 12.4261 18.0818 11.531C18.0805 11.0979 17.6989 10.8814 17.3168 10.8814C16.9334 10.8814 16.55 11.0992 16.5509 11.5345ZM11.3151 13.9416C11.7276 12.8079 12.1327 11.6946 12.3076 11.307C12.4456 11.0021 12.7693 10.8805 13.1014 10.8805C13.5026 10.8805 13.9173 11.0581 14.0326 11.307C14.2095 11.6863 14.9457 13.6873 15.5036 15.2033C15.7365 15.8363 15.9383 16.3847 16.0553 16.6953C16.3338 17.4338 14.99 17.9447 14.7119 17.2072C14.3682 16.2955 14.4574 16.2548 14.4574 16.2548H11.8694L11.5865 17.2496C11.2845 17.9469 9.98336 17.3782 10.2858 16.6805C10.493 16.2009 10.9076 15.0614 11.3151 13.9416ZM13.9765 14.9468L13.1893 12.4681L12.3363 14.9468H13.9765Z" fill="#3B3B41"/>
</svg>
