<svg width="33" height="32" viewBox="0 0 33 32" fill="none" xmlns="http://www.w3.org/2000/svg">
<path d="M25.5065 7.24336L28.5532 10.2901M25.5065 7.24336L22.4597 4.19664M25.5065 7.24336L28.5532 4.19664M21.241 2.97795C21.717 3.45387 22.4597 4.19664 22.4597 4.19664M29.7719 11.5088C29.296 11.0328 28.5532 10.2901 28.5532 10.2901M28.5532 10.2901L22.4597 16.3835M22.4597 4.19664L16.3663 10.2901M13.3196 23.0863L13.8311 23.5979C14.2217 23.9884 14.8548 23.9884 15.2454 23.5979L22.4597 16.3835M13.3196 23.0863L12.7102 23.6957C11.7006 24.7053 10.0637 24.7053 9.05415 23.6957V23.6957V23.6957C8.04455 22.6861 8.04455 21.0492 9.05415 20.0396L9.66349 19.4303M13.3196 23.0863L9.66349 19.4303M9.66349 19.4303L9.15191 18.9187C8.76139 18.5282 8.76139 17.895 9.15191 17.5045L16.3663 10.2901M16.3663 10.2901L22.4597 16.3835M28.5532 4.19664L27.3679 3.01141C27.3462 2.9897 27.3322 2.96149 27.328 2.93108C27.3243 2.90434 27.3567 2.88822 27.3758 2.90732L29.8425 5.37399C29.8616 5.39308 29.8455 5.4255 29.8187 5.4218C29.7883 5.4176 29.7601 5.40358 29.7384 5.38188L28.5532 4.19664Z" stroke="#B1B1BA" stroke-width="1.5" stroke-linecap="round"/>
<path d="M4.05001 28.7002L9.05469 23.6956" stroke="#B1B1BA" stroke-width="1.5" stroke-linecap="round"/>
</svg>
