<svg width="33" height="32" viewBox="0 0 33 32" fill="none" xmlns="http://www.w3.org/2000/svg">
<path d="M25.1317 7.24331L28.1784 10.29M25.1317 7.24331L22.085 4.19659M25.1317 7.24331L28.1784 4.1966M20.8663 2.9779C21.3422 3.45383 22.085 4.19659 22.085 4.19659M29.3971 11.5087C28.9212 11.0328 28.1784 10.29 28.1784 10.29M28.1784 10.29L22.085 16.3835M22.085 4.19659L15.9915 10.29M12.9448 23.0863L13.2207 23.3622C13.7414 23.8829 14.5856 23.8829 15.1063 23.3622L22.085 16.3835M12.9448 23.0863L12.3354 23.6956C11.3258 24.7052 9.68897 24.7052 8.67937 23.6956M12.9448 23.0863L9.28872 19.4302M9.28872 19.4302L9.01284 19.1543C8.49214 18.6336 8.49214 17.7894 9.01284 17.2687L15.9915 10.29M9.28872 19.4302L8.67937 20.0396C7.66978 21.0492 7.66978 22.686 8.67937 23.6956M8.67937 23.6956L3.67554 28.7002M15.9915 10.29L22.085 16.3835M28.1784 4.1966L26.9932 3.01136C26.9714 2.98965 26.9574 2.96145 26.9532 2.93103C26.9495 2.90429 26.982 2.88818 27.001 2.90727L29.4677 5.37394C29.4868 5.39303 29.4707 5.42545 29.4439 5.42176C29.4135 5.41756 29.3853 5.40354 29.3636 5.38183L28.1784 4.1966Z" stroke="#3B3B41" stroke-width="2" stroke-linecap="round"/>
</svg>
