<svg width="342" height="260" viewBox="0 0 342 260" fill="none" xmlns="http://www.w3.org/2000/svg">
<rect x="138" y="16" width="180" height="180" rx="90" fill="#FDEADC"/>
<path d="M144.903 236.507C147.25 225.521 153.194 212.856 157.467 205.579H178.75L165.929 237.287C165.109 238.95 164.391 245.604 164.134 248.723C164.955 254.544 158.835 256 155.672 256C140.167 256 142 256 135.416 255.48C126.008 254.737 124.988 251.495 125.672 249.502C125.877 245.136 138.578 239.019 144.903 236.507Z" fill="#FD959B"/>
<path d="M211.849 236.507C209.502 225.521 203.558 212.856 199.285 205.579H178.002L190.823 237.287C191.643 238.95 192.361 245.604 192.618 248.723C191.797 254.544 197.917 256 201.08 256C216.585 256 214.752 256 221.336 255.48C230.743 254.737 231.764 251.495 231.08 249.502C230.875 245.136 218.174 239.019 211.849 236.507Z" fill="#FD959B"/>
<path fill-rule="evenodd" clip-rule="evenodd" d="M193.044 101.809C187.238 101.809 182.201 105.109 179.692 109.941C179.482 109.471 179.246 109.007 178.984 108.551C174.829 101.33 165.628 98.8564 158.432 103.025C153.404 105.938 150.685 111.324 150.921 116.768C150.505 116.466 150.069 116.182 149.614 115.918C142.418 111.75 133.217 114.224 129.062 121.444C126.159 126.489 126.488 132.517 129.405 137.113C128.894 137.06 128.375 137.033 127.85 137.033C119.541 137.033 112.805 143.792 112.805 152.129C112.805 157.955 116.095 163.011 120.911 165.527C120.442 165.738 119.98 165.975 119.525 166.238C112.329 170.407 109.864 179.64 114.018 186.86C116.921 191.905 122.288 194.633 127.713 194.396C127.412 194.814 127.13 195.252 126.867 195.708C122.712 202.928 125.178 212.161 132.374 216.329C137.402 219.242 143.409 218.912 147.99 215.985C147.937 216.498 147.911 217.018 147.911 217.545C147.911 225.883 154.646 232.641 162.955 232.641C168.761 232.641 173.799 229.341 176.308 224.508C176.518 224.979 176.754 225.443 177.017 225.899C181.171 233.12 190.372 235.594 197.568 231.425C202.596 228.512 205.315 223.127 205.079 217.683C205.495 217.985 205.931 218.268 206.385 218.532C213.581 222.7 222.783 220.227 226.937 213.006C229.84 207.961 229.511 201.933 226.594 197.337C227.105 197.39 227.625 197.417 228.15 197.417C236.459 197.417 243.195 190.658 243.195 182.321C243.195 176.495 239.906 171.44 235.09 168.923C235.558 168.712 236.021 168.475 236.475 168.212C243.671 164.044 246.136 154.811 241.982 147.591C239.079 142.545 233.712 139.818 228.287 140.054C228.588 139.636 228.871 139.199 229.133 138.742C233.288 131.522 230.822 122.289 223.627 118.121C218.598 115.208 212.59 115.538 208.01 118.466C208.062 117.953 208.089 117.432 208.089 116.905C208.089 108.568 201.353 101.809 193.044 101.809Z" fill="#FEB7BB"/>
<ellipse cx="156.009" cy="170.777" rx="7.27119" ry="7.29592" fill="#FD959B"/>
<ellipse cx="199.254" cy="170.777" rx="7.27119" ry="7.29592" fill="#FD959B"/>
<ellipse cx="166.158" cy="158.584" rx="10.0972" ry="10.1316" fill="white"/>
<ellipse cx="167.534" cy="159.044" rx="7.80241" ry="7.82895" fill="#3B3B41"/>
<ellipse cx="164.781" cy="162.728" rx="2.29483" ry="2.30263" fill="white"/>
<ellipse cx="170.289" cy="155.36" rx="4.13069" ry="4.14474" fill="white"/>
<ellipse cx="10.0972" cy="10.1316" rx="10.0972" ry="10.1316" transform="matrix(-1 0 0 1 199.505 148.452)" fill="white"/>
<ellipse cx="188.031" cy="159.044" rx="7.80241" ry="7.82895" fill="#3B3B41"/>
<ellipse cx="185.278" cy="162.728" rx="2.29483" ry="2.30263" fill="white"/>
<ellipse cx="190.785" cy="155.36" rx="4.13069" ry="4.14474" fill="white"/>
<path d="M178.722 195.621L177.241 172.993L159.34 174.012C153.93 174.32 154.525 179.747 155.499 182.422C158.686 192.07 169.573 196.142 178.722 195.621Z" fill="#3B3B41"/>
<path d="M178.722 195.621L177.241 172.993L195.142 171.974C200.552 171.666 200.669 177.12 200.052 179.885C198.147 189.824 187.872 195.1 178.722 195.621Z" fill="#3B3B41"/>
<path fill-rule="evenodd" clip-rule="evenodd" d="M197.29 186.685C194.6 183.709 187.909 182.287 180.511 183.437C171.393 184.855 164.652 189.645 165.455 194.136C165.483 194.294 165.52 194.449 165.566 194.602C169.54 196.333 174.03 197.036 178.165 196.801C185.402 196.389 193.344 193.001 197.29 186.685Z" fill="#D64A52"/>
<path d="M171.355 183.304C172.786 185.468 171.951 199.037 171.355 204.046C168.716 217.62 154 226.65 137.5 222.135C125.124 218.372 120.25 202.945 127.749 194.29C126.999 199.558 137.074 214.351 152.5 204.826C157.375 201.816 157.236 192.521 156.739 187.211C156.5 180.479 160.318 180.9 160.915 183.905C161.511 187.211 162.406 186.31 161.81 183.605C161.511 179.698 165.021 180.299 165.389 182.403C166.105 186.49 167.179 186.31 167.179 185.408C166.224 181.802 167.775 180.9 168.67 180.9C169.863 180.9 170.957 182.503 171.355 183.304Z" fill="#FD959B"/>
<path d="M182.732 183.304C181.3 185.468 182.135 199.037 182.732 204.046C185.37 217.62 200.087 226.65 216.587 222.135C228.962 218.372 233.837 202.945 226.337 194.29C227.087 199.558 217.013 214.351 201.587 204.826C196.712 201.816 196.85 192.521 197.347 187.211C197.586 180.479 193.768 180.9 193.172 183.905C192.575 187.211 191.68 186.31 192.277 183.605C192.575 179.698 189.066 180.299 188.697 182.403C187.982 186.49 186.908 186.31 186.908 185.408C187.862 181.802 186.311 180.9 185.416 180.9C184.223 180.9 183.13 182.503 182.732 183.304Z" fill="#FD959B"/>
<g clip-path="url(#clip0_1790_6856)">
<path d="M275 3C239.101 3 210 23.0331 210 47.7472C210 63.8325 222.33 77.9313 240.837 85.8198C239.478 90.2373 235.912 101.83 235.202 104.309C234.318 107.388 236.492 107.346 237.921 106.523C239.041 105.873 255.732 95.9869 262.933 91.7218C266.845 92.2274 270.876 92.4945 275 92.4945C310.899 92.4945 340 72.4614 340 47.7472C340 23.0331 310.899 3 275 3Z" fill="white" stroke="#E1E1E5" stroke-width="3"/>
<path d="M233.32 44.3L232.3 53.94C232.16 55.16 231.32 55.12 230.38 55.12H228.6C227.66 55.12 226.88 55.24 226.68 54L224.64 41.08C224.5 40.26 224.76 39.7 225.9 39.5C227.46 39.22 228 39.28 228.14 40.28C228.68 44 229.14 48.78 229.5 51.58H229.78C230.04 49.42 230.58 44.38 231.1 40.94C231.2 40.24 231.68 39.82 232.54 39.82H234.22C235.08 39.82 235.56 40.24 235.68 40.94C236.22 44.38 236.76 49.4 237 51.58H237.26C237.64 48.78 238.08 44 238.64 40.26C238.78 39.28 239.38 39.22 240.88 39.5C242 39.7 242.28 40.24 242.14 41.08L240.1 54C239.9 55.24 239.12 55.12 238.16 55.12H236.38C235.46 55.12 234.62 55.16 234.48 53.94C234.32 52.52 233.7 46.8 233.46 44.3H233.32ZM243.533 49.32C243.533 45.48 245.573 43.22 249.113 43.22C252.053 43.22 253.893 45.1 253.893 47.52C253.893 49.28 252.913 50.66 249.693 50.66C249.313 50.66 248.893 50.64 248.453 50.54C247.913 50.42 247.613 50.08 247.613 49.3C247.613 48.66 247.893 48.14 248.393 48.22C249.373 48.4 250.773 48.42 250.773 47.32C250.773 46.58 250.173 46.18 249.253 46.18C247.873 46.18 247.173 47.34 247.173 49.32C247.173 51.28 247.873 52.48 249.253 52.48C250.093 52.48 250.633 52.22 251.273 51.48C252.173 50.46 254.553 52.18 253.453 53.66C252.533 54.8 251.033 55.4 249.233 55.4C245.573 55.4 243.533 53.14 243.533 49.32ZM256.424 53.52C256.664 49.66 256.604 43.66 256.444 40.64C256.364 39.36 257.224 39.04 258.224 39.04C259.224 39.04 259.964 39.16 260.044 40.44C260.244 43.64 260.204 49.86 260.024 53.72C259.964 55 259.224 55.12 258.224 55.12C257.224 55.12 256.344 54.8 256.424 53.52ZM262.674 49.32C262.674 45.48 264.714 43.22 268.174 43.22C270.334 43.22 271.934 44.1 272.474 45.58C273.154 47.44 270.174 48.28 269.714 47.32C269.374 46.6 268.794 46.18 268.194 46.18C267.014 46.18 266.314 47.34 266.314 49.32C266.314 51.28 267.014 52.44 268.194 52.44C268.794 52.44 269.374 52.02 269.714 51.3C270.174 50.34 273.354 51.14 272.674 52.94C272.094 54.48 270.414 55.4 268.174 55.4C264.714 55.4 262.674 53.14 262.674 49.32ZM277.976 49.42C277.936 49.6 277.916 49.92 277.916 50.28C277.916 51.64 278.596 52.44 279.836 52.44C281.116 52.44 281.816 51.32 281.816 49.34C281.816 47.32 281.116 46.18 279.836 46.18C279.136 46.18 278.536 46.66 278.176 47.5C277.756 48.48 274.376 47.64 275.116 45.86C275.816 44.16 277.516 43.22 279.856 43.22C283.456 43.22 285.456 45.42 285.456 49.34C285.456 53.22 283.456 55.4 279.856 55.4C275.876 55.4 273.996 53.1 274.296 49.28C274.356 48.5 275.016 48.1 276.136 48.1C277.456 48.1 278.116 48.56 277.976 49.42ZM291.026 45.84C291.666 44.16 292.826 43.2 294.326 43.2C296.166 43.2 297.206 44.1 297.506 45.84H297.566C298.206 44.16 299.366 43.2 300.866 43.2C302.966 43.2 304.046 44.58 304.126 47.06C304.206 49.12 304.206 51.42 304.106 53.72C304.046 55 303.386 55.12 302.326 55.12C301.226 55.12 300.466 54.8 300.526 53.52C300.606 51.68 300.686 49.82 300.626 48.26C300.586 47.04 300.126 46.68 299.466 46.68C298.606 46.68 297.646 48.26 297.646 49.54V49.44C297.646 50.88 297.626 52.34 297.566 53.72C297.506 55 296.846 55.12 295.786 55.12C294.686 55.12 293.926 54.8 293.986 53.52C294.066 51.68 294.146 49.82 294.086 48.26C294.046 47.04 293.586 46.68 292.926 46.68C292.066 46.68 291.106 48.26 291.106 49.54C291.106 50.5 291.066 52.2 290.986 53.72C290.926 55 290.186 55.12 289.226 55.12C288.226 55.12 287.366 54.8 287.426 53.52C287.526 51.06 287.526 47.68 287.446 45.08C287.406 43.8 288.226 43.48 289.186 43.48C290.106 43.48 290.886 43.6 290.926 44.88L290.966 45.84H291.026ZM306.17 49.32C306.17 45.48 308.21 43.22 311.75 43.22C314.69 43.22 316.53 45.1 316.53 47.52C316.53 49.28 315.55 50.66 312.33 50.66C311.95 50.66 311.53 50.64 311.09 50.54C310.55 50.42 310.25 50.08 310.25 49.3C310.25 48.66 310.53 48.14 311.03 48.22C312.01 48.4 313.41 48.42 313.41 47.32C313.41 46.58 312.81 46.18 311.89 46.18C310.51 46.18 309.81 47.34 309.81 49.32C309.81 51.28 310.51 52.48 311.89 52.48C312.73 52.48 313.27 52.22 313.91 51.48C314.81 50.46 317.19 52.18 316.09 53.66C315.17 54.8 313.67 55.4 311.87 55.4C308.21 55.4 306.17 53.14 306.17 49.32ZM322.64 49.12C322.54 50.4 321.64 50.52 321.18 50.52C320.52 50.52 319.74 50.5 319.58 49.22C319.28 46.82 319.22 43.58 319.32 40.86C319.36 39.58 320.12 39.36 321.18 39.36C322.24 39.36 323.08 39.52 323.04 40.8C322.94 43.52 322.82 46.72 322.64 49.12ZM321.18 55.4C320.02 55.4 319.14 54.5 319.14 53.4C319.14 52.36 320.02 51.44 321.18 51.44C322.36 51.44 323.18 52.36 323.18 53.4C323.18 54.5 322.36 55.4 321.18 55.4Z" fill="#7DADBE"/>
</g>
<path d="M47.2713 44.0006C39.77 43.8975 35.8661 57.6932 44.3683 69.1009C35.5469 59.4354 26.7616 50.7296 20.6499 56.9184C14.5381 63.1071 26.383 76.5043 40.1452 84.6388C53.9074 92.7733 59.3835 95.2591 77.9064 97.0633C72.3223 91.6978 61.7228 80.7532 60.4363 66.9601C59.1498 53.1669 54.7727 44.1037 47.2713 44.0006Z" fill="#FFEEEF"/>
<path d="M109.087 69.3411C104.692 65.9872 96.1731 72.4516 96.0725 82.9462C95.2002 73.3443 93.9173 64.3271 87.5143 65.313C81.1112 66.2988 82.0941 79.4401 86.5802 90.3033C91.0663 101.166 93.1893 105.044 103.342 114.244C102.451 108.612 101.102 97.4716 106.548 88.7304C111.993 79.9891 113.481 72.695 109.087 69.3411Z" fill="#FED7D9"/>
<path d="M90.9298 116.554C87.703 117.234 87.3077 123.601 92.0119 127.733C87.3323 124.389 82.7572 121.458 80.7097 124.735C78.6622 128.013 84.9845 132.686 91.6412 134.888C98.298 137.09 100.877 137.64 108.989 136.633C106.096 134.843 100.536 131.115 98.7049 125.251C96.8743 119.386 94.1567 115.873 90.9298 116.554Z" fill="#FED7D9"/>
<defs>
<clipPath id="clip0_1790_6856">
<rect width="134" height="108" fill="white" transform="translate(208 1)"/>
</clipPath>
</defs>
</svg>
