<svg width="480" height="264" viewBox="0 0 480 264" fill="none" xmlns="http://www.w3.org/2000/svg">
<rect x="274" y="17" width="180" height="180" rx="90" fill="#F4FAFC"/>
<g clip-path="url(#clip0_873_14611)">
<path d="M186.922 137.448C185.252 139.978 186.226 158.796 186.922 164.652C189.999 180.521 207.162 191.078 226.404 185.799C240.837 181.4 246.522 163.364 237.775 153.246C238.65 159.405 226.901 176.7 208.911 165.563C203.225 162.044 203.387 148.223 203.967 142.015C204.245 134.145 199.793 134.637 199.097 138.151C198.401 142.015 197.357 140.961 198.053 137.799C198.401 133.231 194.309 133.934 193.879 136.394C193.044 141.172 191.792 140.961 191.792 139.907C192.905 135.691 191.096 134.637 190.052 134.637C188.661 134.637 187.385 136.511 186.922 137.448Z" fill="#FD959B"/>
<path d="M385.077 137.448C386.747 139.978 385.773 158.796 385.077 164.652C382 180.521 364.837 191.078 345.594 185.799C331.162 181.4 325.477 163.364 334.223 153.246C333.349 159.405 345.098 176.7 363.088 165.563C368.773 162.044 368.612 148.223 368.032 142.015C367.754 134.145 372.206 134.637 372.902 138.151C373.598 142.015 374.641 140.961 373.946 137.799C373.598 133.231 377.69 133.934 378.12 136.394C378.955 141.172 380.207 140.961 380.207 139.907C379.094 135.691 380.903 134.637 381.946 134.637C383.338 134.637 384.613 136.511 385.077 137.448Z" fill="#FD959B"/>
<path d="M246.085 238.711C248.822 225.868 255.754 211.06 260.738 202.552H285.558L270.606 239.623C269.649 241.567 268.812 249.346 268.513 252.992C269.47 259.799 262.333 261.5 258.645 261.5C240.562 261.5 242.7 261.5 235.021 260.893C224.05 260.024 222.86 256.233 223.657 253.904C223.896 248.799 238.709 241.648 246.085 238.711Z" fill="#FD959B"/>
<path d="M328.106 238.711C325.369 225.868 318.437 211.06 313.453 202.552H288.633L303.585 239.623C304.542 241.567 305.379 249.346 305.678 252.992C304.721 259.799 311.858 261.5 315.546 261.5C333.63 261.5 331.492 261.5 339.171 260.893C350.141 260.024 351.332 256.233 350.534 253.904C350.295 248.799 335.483 241.648 328.106 238.711Z" fill="#FD959B"/>
<path fill-rule="evenodd" clip-rule="evenodd" d="M304.201 67.446C297.43 67.446 291.554 71.3044 288.629 76.9547C288.384 76.4042 288.108 75.861 287.802 75.3272C282.957 66.8858 272.226 63.9936 263.834 68.8672C257.97 72.2728 254.799 78.5691 255.075 84.9335C254.589 84.5802 254.08 84.2485 253.55 83.9405C245.158 79.0668 234.427 81.9591 229.582 90.4004C226.196 96.2989 226.581 103.346 229.982 108.719C229.386 108.658 228.782 108.626 228.169 108.626C218.479 108.626 210.624 116.528 210.624 126.275C210.624 133.087 214.46 138.997 220.077 141.939C219.53 142.186 218.99 142.463 218.46 142.771C210.068 147.645 207.192 158.438 212.037 166.88C215.423 172.778 221.682 175.967 228.009 175.691C227.658 176.179 227.328 176.69 227.022 177.224C222.177 185.665 225.052 196.459 233.444 201.333C239.308 204.738 246.314 204.352 251.656 200.93C251.595 201.53 251.564 202.138 251.564 202.755C251.564 212.502 259.419 220.404 269.109 220.404C275.881 220.404 281.757 216.545 284.682 210.894C284.927 211.444 285.202 211.987 285.509 212.521C290.354 220.962 301.084 223.855 309.476 218.981C315.34 215.576 318.51 209.28 318.236 202.917C318.721 203.269 319.228 203.6 319.758 203.908C328.15 208.782 338.881 205.889 343.726 197.448C347.111 191.549 346.727 184.502 343.325 179.129C343.923 179.19 344.529 179.222 345.142 179.222C354.832 179.222 362.688 171.32 362.688 161.573C362.688 154.762 358.852 148.852 353.235 145.909C353.781 145.663 354.32 145.386 354.849 145.079C363.241 140.205 366.117 129.411 361.272 120.97C357.886 115.072 351.628 111.883 345.301 112.159C345.652 111.67 345.982 111.158 346.289 110.625C351.134 102.183 348.259 91.3892 339.867 86.5156C334.002 83.11 326.996 83.4965 321.654 86.9187C321.715 86.3192 321.747 85.7108 321.747 85.095C321.747 75.3477 313.891 67.446 304.201 67.446Z" fill="#FEB7BB"/>
<ellipse cx="261.011" cy="148.077" rx="8.47987" ry="8.52975" fill="#FD959B"/>
<ellipse cx="311.444" cy="148.077" rx="8.47987" ry="8.52975" fill="#FD959B"/>
<ellipse cx="272.845" cy="133.822" rx="11.7757" ry="11.845" fill="white"/>
<ellipse cx="274.451" cy="134.359" rx="9.0994" ry="9.15293" fill="#3B3B41"/>
<ellipse cx="271.24" cy="138.667" rx="2.67629" ry="2.69204" fill="white"/>
<ellipse cx="277.663" cy="130.052" rx="4.81733" ry="4.84566" fill="white"/>
<ellipse cx="11.7757" cy="11.845" rx="11.7757" ry="11.845" transform="matrix(-1 0 0 1 311.735 121.977)" fill="white"/>
<ellipse cx="298.353" cy="134.359" rx="9.0994" ry="9.15293" fill="#3B3B41"/>
<ellipse cx="295.142" cy="138.667" rx="2.6763" ry="2.69204" fill="white"/>
<ellipse cx="301.566" cy="130.052" rx="4.81733" ry="4.84566" fill="white"/>
<path d="M287.5 177.123L285.773 150.668L264.896 151.859C258.587 152.219 259.281 158.564 260.416 161.691C264.133 172.971 276.83 177.732 287.5 177.123Z" fill="#3B3B41"/>
<path d="M287.5 177.123L285.773 150.668L306.649 149.476C312.959 149.116 313.096 155.493 312.375 158.726C310.154 170.345 298.171 176.514 287.5 177.123Z" fill="#3B3B41"/>
<path d="M309.125 166.5C306 171.5 301.935 175.532 291.408 177.768C280.88 180.004 271.535 178.375 270.535 174.129C269.534 169.884 277.258 164.629 287.785 162.393C298.313 160.157 308.125 162.255 309.125 166.5Z" fill="#D64A52"/>
</g>
<path d="M141.271 14.0006C133.77 13.8975 129.866 27.6932 138.368 39.1009C129.547 29.4354 120.762 20.7296 114.65 26.9184C108.538 33.1071 120.383 46.5043 134.145 54.6388C147.907 62.7733 153.383 65.2591 171.906 67.0633C166.322 61.6978 155.723 50.7533 154.436 36.9601C153.15 23.1669 148.773 14.1037 141.271 14.0006Z" fill="#FFEEEF"/>
<path d="M203.087 39.3411C198.692 35.9872 190.173 42.4516 190.072 52.9462C189.2 43.3443 187.917 34.3271 181.514 35.313C175.111 36.2988 176.094 49.4401 180.58 60.3033C185.066 71.1665 187.189 75.0438 197.342 84.2442C196.451 78.6123 195.102 67.4716 200.548 58.7304C205.993 49.9891 207.481 42.695 203.087 39.3411Z" fill="#FED7D9"/>
<path d="M184.93 86.5535C181.703 87.2337 181.308 93.6013 186.012 97.7331C181.332 94.3887 176.757 91.4576 174.71 94.7355C172.662 98.0134 178.984 102.686 185.641 104.888C192.298 107.09 194.877 107.64 202.989 106.633C200.096 104.843 194.536 101.115 192.705 95.2506C190.874 89.3857 188.157 85.8733 184.93 86.5535Z" fill="#FED7D9"/>
<g clip-path="url(#clip1_873_14611)">
<path d="M378.258 81.3168L378.656 80.0537L377.452 79.5023C360.333 71.6618 349.5 58.6642 349.5 44.2787C349.5 34.8603 356.88 24.1831 368.908 15.7582C380.859 7.38702 397.063 1.5 414 1.5C431.902 1.5 448.099 7.39388 459.796 15.7502C471.556 24.1517 478.5 34.8273 478.5 44.2787C478.5 55.8529 471.507 66.5108 459.832 74.3429C448.167 82.1685 431.967 87.0573 414 87.0573C411.246 87.0573 408.531 86.9265 405.861 86.7015L405.395 86.6622L404.989 86.8949L372.894 105.298C372.894 105.298 372.894 105.298 372.893 105.298C372.372 105.596 371.76 105.542 371.328 105.28C370.906 105.024 370.873 104.753 370.939 104.545L370.939 104.543L378.258 81.3168Z" fill="white" stroke="#E1E1E5" stroke-width="3"/>
<path d="M403.871 51.52C404.111 47.66 404.051 42.38 403.871 38.96C403.811 37.68 404.671 37.36 405.731 37.36C406.791 37.36 407.531 37.48 407.611 38.76C407.691 40.14 407.731 41.78 407.731 43.52H412.811C412.791 41.86 412.731 40.26 412.671 38.96C412.611 37.68 413.471 37.36 414.531 37.36C415.591 37.36 416.331 37.48 416.411 38.76C416.611 42.36 416.571 47.86 416.391 51.72C416.331 53 415.591 53.12 414.531 53.12C413.471 53.12 412.591 52.8 412.671 51.52C412.751 50.08 412.811 48.46 412.831 46.8H407.731C407.711 48.54 407.651 50.26 407.591 51.72C407.531 53 406.791 53.12 405.731 53.12C404.671 53.12 403.791 52.8 403.871 51.52ZM419.658 51.52C419.818 48.66 419.778 45.22 419.678 43.08C419.618 41.8 420.458 41.48 421.458 41.48C422.458 41.48 423.198 41.6 423.278 42.88C423.418 45.2 423.358 48.86 423.258 51.72C423.218 53 422.458 53.12 421.458 53.12C420.458 53.12 419.578 52.8 419.658 51.52ZM421.498 40.62C420.098 40.62 419.338 39.98 419.338 38.7C419.338 37.44 420.098 36.82 421.498 36.82C422.878 36.82 423.618 37.44 423.618 38.7C423.618 39.98 422.878 40.62 421.498 40.62ZM430.25 47.12C430.15 48.4 429.25 48.52 428.79 48.52C428.13 48.52 427.35 48.5 427.19 47.22C426.89 44.82 426.83 41.58 426.93 38.86C426.97 37.58 427.73 37.36 428.79 37.36C429.85 37.36 430.69 37.52 430.65 38.8C430.55 41.52 430.43 44.72 430.25 47.12ZM428.79 53.4C427.63 53.4 426.75 52.5 426.75 51.4C426.75 50.36 427.63 49.44 428.79 49.44C429.97 49.44 430.79 50.36 430.79 51.4C430.79 52.5 429.97 53.4 428.79 53.4Z" fill="#7DADBE"/>
</g>
<defs>
<clipPath id="clip0_873_14611">
<rect width="200" height="200" fill="white" transform="translate(186 64)"/>
</clipPath>
<clipPath id="clip1_873_14611">
<rect width="132" height="107" fill="white" transform="translate(348)"/>
</clipPath>
</defs>
</svg>
