<svg width="342" height="260" viewBox="0 0 342 260" fill="none" xmlns="http://www.w3.org/2000/svg">
<rect x="138" y="16" width="180" height="180" rx="90" fill="#FDEADC"/>
<g clip-path="url(#clip0_1769_7336)">
<path d="M102.765 154.962C101.38 157.062 102.188 172.681 102.765 177.541C105.319 190.713 119.565 199.475 135.536 195.094C147.515 191.442 152.234 176.472 144.974 168.074C145.7 173.186 135.948 187.541 121.016 178.298C116.298 175.377 116.432 163.905 116.913 158.753C117.144 152.221 113.448 152.629 112.871 155.545C112.293 158.753 111.427 157.878 112.005 155.254C112.293 151.462 108.897 152.046 108.54 154.087C107.847 158.053 106.808 157.878 106.808 157.003C107.731 153.504 106.23 152.629 105.364 152.629C104.209 152.629 103.15 154.184 102.765 154.962Z" fill="#FD959B"/>
<path d="M267.234 154.962C268.62 157.062 267.812 172.681 267.234 177.541C264.68 190.713 250.435 199.475 234.463 195.094C222.485 191.442 217.766 176.472 225.026 168.074C224.299 173.186 234.051 187.541 248.983 178.298C253.702 175.377 253.568 163.905 253.087 158.753C252.856 152.221 256.551 152.629 257.129 155.545C257.706 158.753 258.572 157.878 257.995 155.254C257.706 151.462 261.103 152.046 261.46 154.087C262.153 158.053 263.192 157.878 263.192 157.003C262.268 153.504 263.769 152.629 264.636 152.629C265.79 152.629 266.849 154.184 267.234 154.962Z" fill="#FD959B"/>
<path d="M151.871 239.01C154.143 228.35 159.896 216.06 164.033 208.999H184.634L172.224 239.767C171.429 241.381 170.734 247.837 170.486 250.864C171.28 256.513 165.357 257.925 162.295 257.925C147.286 257.925 149.061 257.925 142.687 257.421C133.582 256.7 132.594 253.554 133.256 251.62C133.454 247.383 145.748 241.448 151.871 239.01Z" fill="#FD959B"/>
<path d="M219.949 239.01C217.676 228.35 211.923 216.06 207.787 208.999H187.186L199.596 239.767C200.39 241.381 201.085 247.837 201.333 250.864C200.539 256.513 206.463 257.925 209.524 257.925C224.533 257.925 222.758 257.925 229.132 257.421C238.238 256.7 239.226 253.554 238.564 251.62C238.365 247.383 226.071 241.448 219.949 239.01Z" fill="#FD959B"/>
<path fill-rule="evenodd" clip-rule="evenodd" d="M200.107 96.8604C194.487 96.8604 189.61 100.063 187.182 104.753C186.979 104.296 186.75 103.845 186.496 103.402C182.474 96.3954 173.568 93.9948 166.602 98.0399C161.735 100.867 159.104 106.092 159.332 111.375C158.929 111.082 158.507 110.806 158.067 110.551C151.101 106.506 142.195 108.906 138.173 115.913C135.363 120.808 135.682 126.657 138.505 131.117C138.011 131.066 137.509 131.04 137.001 131.04C128.958 131.04 122.438 137.598 122.438 145.689C122.438 151.342 125.622 156.247 130.284 158.69C129.83 158.894 129.382 159.124 128.942 159.38C121.976 163.425 119.59 172.384 123.611 179.39C126.421 184.286 131.616 186.933 136.867 186.703C136.576 187.109 136.302 187.533 136.048 187.976C132.027 194.982 134.413 203.941 141.379 207.986C146.246 210.813 152.061 210.492 156.495 207.652C156.444 208.15 156.418 208.655 156.418 209.166C156.418 217.257 162.938 223.815 170.981 223.815C176.601 223.815 181.478 220.612 183.906 215.922C184.109 216.379 184.338 216.83 184.592 217.273C188.614 224.279 197.52 226.679 204.486 222.634C209.352 219.808 211.984 214.583 211.756 209.301C212.158 209.594 212.58 209.868 213.019 210.124C219.985 214.169 228.891 211.768 232.913 204.762C235.723 199.866 235.404 194.017 232.58 189.557C233.076 189.608 233.579 189.634 234.088 189.634C242.131 189.634 248.651 183.076 248.651 174.986C248.651 169.332 245.467 164.427 240.805 161.985C241.258 161.78 241.705 161.551 242.145 161.295C249.11 157.25 251.497 148.291 247.476 141.285C244.666 136.39 239.471 133.743 234.22 133.972C234.512 133.566 234.785 133.142 235.04 132.699C239.061 125.692 236.675 116.733 229.709 112.688C224.842 109.861 219.027 110.182 214.593 113.023C214.644 112.525 214.67 112.02 214.67 111.509C214.67 103.419 208.15 96.8604 200.107 96.8604Z" fill="#FEB7BB"/>
<ellipse cx="164.259" cy="163.784" rx="7.03829" ry="7.07969" fill="#FD959B"/>
<ellipse cx="206.119" cy="163.784" rx="7.03829" ry="7.07969" fill="#FD959B"/>
<ellipse cx="174.082" cy="151.953" rx="9.77382" ry="9.83132" fill="white"/>
<ellipse cx="175.415" cy="152.398" rx="7.5525" ry="7.59693" fill="#3B3B41"/>
<ellipse cx="172.749" cy="155.974" rx="2.22132" ry="2.23439" fill="white"/>
<ellipse cx="178.081" cy="148.823" rx="3.99838" ry="4.0219" fill="white"/>
<ellipse cx="9.77382" cy="9.83132" rx="9.77382" ry="9.83132" transform="matrix(-1 0 0 1 206.36 142.121)" fill="white"/>
<ellipse cx="195.253" cy="152.398" rx="7.5525" ry="7.59693" fill="#3B3B41"/>
<ellipse cx="192.589" cy="155.974" rx="2.22132" ry="2.23439" fill="white"/>
<ellipse cx="197.92" cy="148.823" rx="3.99838" ry="4.0219" fill="white"/>
<path d="M186.245 187.892L184.811 165.934L167.484 166.923C162.247 167.222 162.823 172.488 163.765 175.084C166.85 184.446 177.389 188.397 186.245 187.892Z" fill="#3B3B41"/>
<path d="M186.245 187.892L184.811 165.934L202.139 164.945C207.375 164.646 207.489 169.939 206.891 172.623C205.048 182.266 195.102 187.386 186.245 187.892Z" fill="#3B3B41"/>
<path d="M204.194 179.075C201.6 183.225 198.226 186.571 189.488 188.427C180.751 190.283 172.994 188.931 172.164 185.408C171.334 181.884 177.744 177.522 186.482 175.666C195.22 173.81 203.364 175.551 204.194 179.075Z" fill="#D64A52"/>
</g>
<path d="M47.2713 44.0006C39.77 43.8975 35.8661 57.6932 44.3683 69.1009C35.5469 59.4354 26.7616 50.7296 20.6499 56.9184C14.5381 63.1071 26.383 76.5043 40.1452 84.6388C53.9074 92.7733 59.3835 95.2591 77.9064 97.0633C72.3223 91.6978 61.7228 80.7533 60.4363 66.9601C59.1498 53.1669 54.7727 44.1037 47.2713 44.0006Z" fill="#FFEEEF"/>
<path d="M109.087 69.3411C104.692 65.9872 96.1731 72.4516 96.0725 82.9462C95.2001 73.3443 93.9173 64.3271 87.5143 65.313C81.1112 66.2988 82.0941 79.4401 86.5802 90.3033C91.0663 101.166 93.1893 105.044 103.342 114.244C102.451 108.612 101.102 97.4716 106.548 88.7304C111.993 79.9891 113.481 72.695 109.087 69.3411Z" fill="#FED7D9"/>
<path d="M90.9298 116.554C87.703 117.234 87.3077 123.601 92.0119 127.733C87.3323 124.389 82.7572 121.458 80.7097 124.735C78.6622 128.013 84.9845 132.686 91.6412 134.888C98.298 137.09 100.877 137.64 108.989 136.633C106.096 134.843 100.536 131.115 98.7049 125.251C96.8743 119.386 94.1567 115.873 90.9298 116.554Z" fill="#FED7D9"/>
<g clip-path="url(#clip1_1769_7336)">
<path d="M275 3C239.101 3 210 23.0331 210 47.7472C210 63.8325 222.33 77.9313 240.837 85.8198C239.478 90.2373 235.912 101.83 235.202 104.309C234.318 107.388 236.492 107.346 237.921 106.523C239.041 105.873 255.732 95.9869 262.933 91.7218C266.845 92.2274 270.876 92.4945 275 92.4945C310.899 92.4945 340 72.4614 340 47.7472C340 23.0331 310.899 3 275 3Z" fill="white" stroke="#E1E1E5" stroke-width="3"/>
<path d="M260.871 53.52C261.111 49.66 261.051 44.38 260.871 40.96C260.811 39.68 261.671 39.36 262.731 39.36C263.791 39.36 264.531 39.48 264.611 40.76C264.691 42.14 264.731 43.78 264.731 45.52H269.811C269.791 43.86 269.731 42.26 269.671 40.96C269.611 39.68 270.471 39.36 271.531 39.36C272.591 39.36 273.331 39.48 273.411 40.76C273.611 44.36 273.571 49.86 273.391 53.72C273.331 55 272.591 55.12 271.531 55.12C270.471 55.12 269.591 54.8 269.671 53.52C269.751 52.08 269.811 50.46 269.831 48.8H264.731C264.711 50.54 264.651 52.26 264.591 53.72C264.531 55 263.791 55.12 262.731 55.12C261.671 55.12 260.791 54.8 260.871 53.52ZM276.658 53.52C276.818 50.66 276.778 47.22 276.678 45.08C276.618 43.8 277.458 43.48 278.458 43.48C279.458 43.48 280.198 43.6 280.278 44.88C280.418 47.2 280.358 50.86 280.258 53.72C280.218 55 279.458 55.12 278.458 55.12C277.458 55.12 276.578 54.8 276.658 53.52ZM278.498 42.62C277.098 42.62 276.338 41.98 276.338 40.7C276.338 39.44 277.098 38.82 278.498 38.82C279.878 38.82 280.618 39.44 280.618 40.7C280.618 41.98 279.878 42.62 278.498 42.62ZM287.25 49.12C287.15 50.4 286.25 50.52 285.79 50.52C285.13 50.52 284.35 50.5 284.19 49.22C283.89 46.82 283.83 43.58 283.93 40.86C283.97 39.58 284.73 39.36 285.79 39.36C286.85 39.36 287.69 39.52 287.65 40.8C287.55 43.52 287.43 46.72 287.25 49.12ZM285.79 55.4C284.63 55.4 283.75 54.5 283.75 53.4C283.75 52.36 284.63 51.44 285.79 51.44C286.97 51.44 287.79 52.36 287.79 53.4C287.79 54.5 286.97 55.4 285.79 55.4Z" fill="#7DADBE"/>
</g>
<defs>
<clipPath id="clip0_1769_7336">
<rect width="166" height="166" fill="white" transform="translate(102 94)"/>
</clipPath>
<clipPath id="clip1_1769_7336">
<rect width="134" height="108" fill="white" transform="translate(208 1)"/>
</clipPath>
</defs>
</svg>
