<svg width="712" height="280" viewBox="0 0 712 280" fill="none" xmlns="http://www.w3.org/2000/svg">
<rect x="1" y="1" width="710" height="278" rx="23" fill="white"/>
<rect x="1" y="1" width="710" height="278" rx="23" stroke="#BBDEEB" stroke-width="2"/>
<path d="M31.9716 27.2727V36H30.9148V28.3807H30.8636L28.733 29.7955V28.7216L30.9148 27.2727H31.9716ZM37.3281 36.1193C36.6861 36.1193 36.1392 35.9446 35.6875 35.5952C35.2358 35.2429 34.8906 34.733 34.652 34.0653C34.4134 33.3949 34.294 32.5852 34.294 31.6364C34.294 30.6932 34.4134 29.8878 34.652 29.2202C34.8935 28.5497 35.2401 28.0384 35.6918 27.6861C36.1463 27.331 36.6918 27.1534 37.3281 27.1534C37.9645 27.1534 38.5085 27.331 38.9602 27.6861C39.4148 28.0384 39.7614 28.5497 40 29.2202C40.2415 29.8878 40.3622 30.6932 40.3622 31.6364C40.3622 32.5852 40.2429 33.3949 40.0043 34.0653C39.7656 34.733 39.4205 35.2429 38.9688 35.5952C38.517 35.9446 37.9702 36.1193 37.3281 36.1193ZM37.3281 35.1818C37.9645 35.1818 38.4588 34.875 38.8111 34.2614C39.1634 33.6477 39.3395 32.7727 39.3395 31.6364C39.3395 30.8807 39.2585 30.2372 39.0966 29.706C38.9375 29.1747 38.7074 28.7699 38.4062 28.4915C38.108 28.2131 37.7486 28.0739 37.3281 28.0739C36.6974 28.0739 36.2045 28.3849 35.8494 29.0071C35.4943 29.6264 35.3168 30.5028 35.3168 31.6364C35.3168 32.392 35.3963 33.0341 35.5554 33.5625C35.7145 34.0909 35.9432 34.4929 36.2415 34.7685C36.5426 35.044 36.9048 35.1818 37.3281 35.1818ZM44.8281 36.1193C44.1861 36.1193 43.6392 35.9446 43.1875 35.5952C42.7358 35.2429 42.3906 34.733 42.152 34.0653C41.9134 33.3949 41.794 32.5852 41.794 31.6364C41.794 30.6932 41.9134 29.8878 42.152 29.2202C42.3935 28.5497 42.7401 28.0384 43.1918 27.6861C43.6463 27.331 44.1918 27.1534 44.8281 27.1534C45.4645 27.1534 46.0085 27.331 46.4602 27.6861C46.9148 28.0384 47.2614 28.5497 47.5 29.2202C47.7415 29.8878 47.8622 30.6932 47.8622 31.6364C47.8622 32.5852 47.7429 33.3949 47.5043 34.0653C47.2656 34.733 46.9205 35.2429 46.4688 35.5952C46.017 35.9446 45.4702 36.1193 44.8281 36.1193ZM44.8281 35.1818C45.4645 35.1818 45.9588 34.875 46.3111 34.2614C46.6634 33.6477 46.8395 32.7727 46.8395 31.6364C46.8395 30.8807 46.7585 30.2372 46.5966 29.706C46.4375 29.1747 46.2074 28.7699 45.9062 28.4915C45.608 28.2131 45.2486 28.0739 44.8281 28.0739C44.1974 28.0739 43.7045 28.3849 43.3494 29.0071C42.9943 29.6264 42.8168 30.5028 42.8168 31.6364C42.8168 32.392 42.8963 33.0341 43.0554 33.5625C43.2145 34.0909 43.4432 34.4929 43.7415 34.7685C44.0426 35.044 44.4048 35.1818 44.8281 35.1818Z" fill="#838391"/>
<path d="M37.6989 70.3195C37.1136 70.3195 36.5966 70.2158 36.1477 70.0084C35.7017 69.7982 35.3537 69.5099 35.1037 69.1434C34.8537 68.7741 34.7301 68.3536 34.733 67.882C34.7301 67.5127 34.8026 67.1718 34.9503 66.8593C35.098 66.5439 35.2997 66.2812 35.5554 66.0709C35.8139 65.8579 36.1023 65.7229 36.4205 65.6661V65.615C36.0028 65.507 35.6705 65.2726 35.4233 64.9118C35.1761 64.5482 35.054 64.1349 35.0568 63.6718C35.054 63.2286 35.1662 62.8323 35.3935 62.4829C35.6207 62.1334 35.9332 61.8579 36.331 61.6562C36.7315 61.4545 37.1875 61.3536 37.6989 61.3536C38.2045 61.3536 38.6563 61.4545 39.054 61.6562C39.4517 61.8579 39.7642 62.1334 39.9915 62.4829C40.2216 62.8323 40.3381 63.2286 40.3409 63.6718C40.3381 64.1349 40.2116 64.5482 39.9616 64.9118C39.7145 65.2726 39.3864 65.507 38.9773 65.615V65.6661C39.2926 65.7229 39.5767 65.8579 39.8295 66.0709C40.0824 66.2812 40.2841 66.5439 40.4347 66.8593C40.5852 67.1718 40.6619 67.5127 40.6648 67.882C40.6619 68.3536 40.5341 68.7741 40.2812 69.1434C40.0312 69.5099 39.6832 69.7982 39.2372 70.0084C38.794 70.2158 38.2813 70.3195 37.6989 70.3195ZM37.6989 69.382C38.0938 69.382 38.4347 69.3181 38.7216 69.1903C39.0085 69.0624 39.2301 68.882 39.3864 68.6491C39.5426 68.4161 39.6222 68.1434 39.625 67.8309C39.6222 67.5013 39.5369 67.2101 39.3693 66.9573C39.2017 66.7045 38.973 66.5056 38.6832 66.3607C38.3963 66.2158 38.0682 66.1434 37.6989 66.1434C37.3267 66.1434 36.9943 66.2158 36.7017 66.3607C36.4119 66.5056 36.1832 66.7045 36.0156 66.9573C35.8509 67.2101 35.7699 67.5013 35.7727 67.8309C35.7699 68.1434 35.8452 68.4161 35.9986 68.6491C36.1548 68.882 36.3778 69.0624 36.6676 69.1903C36.9574 69.3181 37.3011 69.382 37.6989 69.382ZM37.6989 65.24C38.0114 65.24 38.2884 65.1775 38.5298 65.0525C38.7741 64.9275 38.9659 64.7528 39.1051 64.5283C39.2443 64.3039 39.3153 64.0411 39.3182 63.74C39.3153 63.4445 39.2457 63.1874 39.1094 62.9687C38.973 62.7471 38.7841 62.5766 38.5426 62.4573C38.3011 62.3351 38.0199 62.2741 37.6989 62.2741C37.3722 62.2741 37.0866 62.3351 36.8423 62.4573C36.598 62.5766 36.4091 62.7471 36.2756 62.9687C36.142 63.1874 36.0767 63.4445 36.0795 63.74C36.0767 64.0411 36.1435 64.3039 36.2798 64.5283C36.419 64.7528 36.6108 64.9275 36.8551 65.0525C37.0994 65.1775 37.3807 65.24 37.6989 65.24ZM45.1445 70.3195C44.5025 70.3195 43.9556 70.1448 43.5039 69.7954C43.0522 69.4431 42.707 68.9331 42.4684 68.2655C42.2298 67.5951 42.1104 66.7854 42.1104 65.8366C42.1104 64.8934 42.2298 64.088 42.4684 63.4204C42.7099 62.7499 43.0565 62.2385 43.5082 61.8863C43.9627 61.5312 44.5082 61.3536 45.1445 61.3536C45.7809 61.3536 46.3249 61.5312 46.7766 61.8863C47.2312 62.2385 47.5778 62.7499 47.8164 63.4204C48.0579 64.088 48.1786 64.8934 48.1786 65.8366C48.1786 66.7854 48.0593 67.5951 47.8207 68.2655C47.582 68.9331 47.2369 69.4431 46.7852 69.7954C46.3335 70.1448 45.7866 70.3195 45.1445 70.3195ZM45.1445 69.382C45.7809 69.382 46.2752 69.0752 46.6275 68.4616C46.9798 67.8479 47.1559 66.9729 47.1559 65.8366C47.1559 65.0809 47.0749 64.4374 46.913 63.9062C46.7539 63.3749 46.5238 62.9701 46.2227 62.6917C45.9244 62.4133 45.565 62.2741 45.1445 62.2741C44.5138 62.2741 44.021 62.5851 43.6658 63.2073C43.3107 63.8266 43.1332 64.703 43.1332 65.8366C43.1332 66.5922 43.2127 67.2343 43.3718 67.7627C43.5309 68.2911 43.7596 68.6931 44.0579 68.9687C44.359 69.2442 44.7212 69.382 45.1445 69.382Z" fill="#838391"/>
<path d="M37.8011 104.519C37.4432 104.514 37.0852 104.445 36.7273 104.315C36.3693 104.184 36.0426 103.964 35.7472 103.654C35.4517 103.342 35.2145 102.92 35.0355 102.389C34.8565 101.854 34.767 101.184 34.767 100.377C34.767 99.6044 34.8395 98.9198 34.9844 98.3232C35.1293 97.7238 35.3395 97.2195 35.6151 96.8104C35.8906 96.3985 36.223 96.086 36.6122 95.8729C37.0043 95.6598 37.446 95.5533 37.9375 95.5533C38.4261 95.5533 38.8608 95.6513 39.2415 95.8473C39.625 96.0405 39.9375 96.3104 40.179 96.657C40.4205 97.0036 40.5767 97.4027 40.6477 97.8544H39.608C39.5114 97.4624 39.3239 97.1371 39.0455 96.8786C38.767 96.6201 38.3977 96.4908 37.9375 96.4908C37.2614 96.4908 36.7287 96.7848 36.3395 97.3729C35.9531 97.961 35.7585 98.7863 35.7557 99.8488H35.8239C35.983 99.6073 36.1719 99.4013 36.3906 99.2309C36.6122 99.0576 36.8565 98.924 37.1236 98.8303C37.3906 98.7365 37.6733 98.6897 37.9716 98.6897C38.4716 98.6897 38.929 98.8147 39.3438 99.0647C39.7585 99.3118 40.0909 99.6542 40.3409 100.092C40.5909 100.526 40.7159 101.025 40.7159 101.587C40.7159 102.127 40.5952 102.621 40.3537 103.07C40.1122 103.516 39.7727 103.871 39.3352 104.136C38.9006 104.397 38.3892 104.525 37.8011 104.519ZM37.8011 103.582C38.1591 103.582 38.4801 103.492 38.7642 103.313C39.0511 103.134 39.277 102.894 39.4418 102.593C39.6094 102.292 39.6932 101.957 39.6932 101.587C39.6932 101.227 39.6122 100.898 39.4503 100.603C39.2912 100.305 39.071 100.068 38.7898 99.8914C38.5114 99.7152 38.1932 99.6272 37.8352 99.6272C37.5653 99.6272 37.3139 99.6812 37.081 99.7891C36.848 99.8942 36.6435 100.039 36.4673 100.224C36.294 100.408 36.1577 100.62 36.0582 100.859C35.9588 101.095 35.9091 101.343 35.9091 101.604C35.9091 101.951 35.9901 102.275 36.152 102.576C36.3168 102.877 36.5412 103.12 36.8253 103.305C37.1122 103.489 37.4375 103.582 37.8011 103.582ZM45.2383 104.519C44.5962 104.519 44.0494 104.345 43.5977 103.995C43.146 103.643 42.8008 103.133 42.5621 102.465C42.3235 101.795 42.2042 100.985 42.2042 100.036C42.2042 99.0931 42.3235 98.2877 42.5621 97.6201C42.8036 96.9496 43.1502 96.4383 43.6019 96.086C44.0565 95.7309 44.6019 95.5533 45.2383 95.5533C45.8746 95.5533 46.4187 95.7309 46.8704 96.086C47.3249 96.4383 47.6715 96.9496 47.9102 97.6201C48.1516 98.2877 48.2724 99.0931 48.2724 100.036C48.2724 100.985 48.1531 101.795 47.9144 102.465C47.6758 103.133 47.3306 103.643 46.8789 103.995C46.4272 104.345 45.8803 104.519 45.2383 104.519ZM45.2383 103.582C45.8746 103.582 46.369 103.275 46.7212 102.661C47.0735 102.048 47.2496 101.173 47.2496 100.036C47.2496 99.2806 47.1687 98.6371 47.0067 98.1059C46.8477 97.5746 46.6175 97.1698 46.3164 96.8914C46.0181 96.613 45.6587 96.4738 45.2383 96.4738C44.6076 96.4738 44.1147 96.7848 43.7596 97.407C43.4045 98.0263 43.2269 98.9027 43.2269 100.036C43.2269 100.792 43.3065 101.434 43.4656 101.962C43.6246 102.491 43.8533 102.893 44.1516 103.168C44.4528 103.444 44.815 103.582 45.2383 103.582Z" fill="#838391"/>
<path d="M33.6989 136.81V135.941L37.5341 129.873H38.1648V131.219H37.7386L34.8409 135.805V135.873H40.0057V136.81H33.6989ZM37.8068 138.6V136.546V136.141V129.873H38.8125V138.6H37.8068ZM44.4492 138.719C43.8072 138.719 43.2603 138.545 42.8086 138.195C42.3569 137.843 42.0117 137.333 41.7731 136.665C41.5344 135.995 41.4151 135.185 41.4151 134.236C41.4151 133.293 41.5344 132.488 41.7731 131.82C42.0146 131.15 42.3612 130.638 42.8129 130.286C43.2674 129.931 43.8129 129.754 44.4492 129.754C45.0856 129.754 45.6296 129.931 46.0813 130.286C46.5359 130.638 46.8825 131.15 47.1211 131.82C47.3626 132.488 47.4833 133.293 47.4833 134.236C47.4833 135.185 47.364 135.995 47.1254 136.665C46.8867 137.333 46.5415 137.843 46.0898 138.195C45.6381 138.545 45.0913 138.719 44.4492 138.719ZM44.4492 137.782C45.0856 137.782 45.5799 137.475 45.9322 136.861C46.2844 136.248 46.4606 135.373 46.4606 134.236C46.4606 133.481 46.3796 132.837 46.2177 132.306C46.0586 131.775 45.8285 131.37 45.5273 131.092C45.229 130.813 44.8697 130.674 44.4492 130.674C43.8185 130.674 43.3256 130.985 42.9705 131.607C42.6154 132.227 42.4379 133.103 42.4379 134.236C42.4379 134.992 42.5174 135.634 42.6765 136.163C42.8356 136.691 43.0643 137.093 43.3626 137.369C43.6637 137.644 44.0259 137.782 44.4492 137.782Z" fill="#838391"/>
<path d="M34.9034 172.8V172.033L37.7841 168.879C38.1222 168.51 38.4006 168.189 38.6193 167.916C38.8381 167.641 39 167.382 39.1051 167.141C39.2131 166.896 39.267 166.641 39.267 166.374C39.267 166.067 39.1932 165.801 39.0455 165.577C38.9006 165.352 38.7017 165.179 38.4489 165.057C38.196 164.935 37.9119 164.874 37.5966 164.874C37.2614 164.874 36.9688 164.943 36.7188 165.082C36.4716 165.219 36.2798 165.411 36.1435 165.658C36.0099 165.905 35.9432 166.195 35.9432 166.527H34.9375C34.9375 166.016 35.0554 165.567 35.2912 165.18C35.527 164.794 35.848 164.493 36.2543 164.277C36.6634 164.061 37.1222 163.953 37.6307 163.953C38.142 163.953 38.5952 164.061 38.9901 164.277C39.3849 164.493 39.6946 164.784 39.919 165.151C40.1435 165.517 40.2557 165.925 40.2557 166.374C40.2557 166.695 40.1974 167.009 40.081 167.315C39.9673 167.619 39.7685 167.959 39.4844 168.334C39.2031 168.706 38.8125 169.161 38.3125 169.698L36.3523 171.794V171.862H40.4091V172.8H34.9034ZM45.0156 172.919C44.3736 172.919 43.8267 172.744 43.375 172.395C42.9233 172.043 42.5781 171.533 42.3395 170.865C42.1009 170.195 41.9815 169.385 41.9815 168.436C41.9815 167.493 42.1009 166.688 42.3395 166.02C42.581 165.35 42.9276 164.838 43.3793 164.486C43.8338 164.131 44.3793 163.953 45.0156 163.953C45.652 163.953 46.196 164.131 46.6477 164.486C47.1023 164.838 47.4489 165.35 47.6875 166.02C47.929 166.688 48.0497 167.493 48.0497 168.436C48.0497 169.385 47.9304 170.195 47.6918 170.865C47.4531 171.533 47.108 172.043 46.6562 172.395C46.2045 172.744 45.6577 172.919 45.0156 172.919ZM45.0156 171.982C45.652 171.982 46.1463 171.675 46.4986 171.061C46.8509 170.448 47.027 169.573 47.027 168.436C47.027 167.68 46.946 167.037 46.7841 166.506C46.625 165.975 46.3949 165.57 46.0938 165.291C45.7955 165.013 45.4361 164.874 45.0156 164.874C44.3849 164.874 43.892 165.185 43.5369 165.807C43.1818 166.426 43.0043 167.303 43.0043 168.436C43.0043 169.192 43.0838 169.834 43.2429 170.362C43.402 170.891 43.6307 171.293 43.929 171.568C44.2301 171.844 44.5923 171.982 45.0156 171.982Z" fill="#838391"/>
<path d="M44.75 207.119C44.108 207.119 43.5611 206.945 43.1094 206.595C42.6577 206.243 42.3125 205.733 42.0739 205.065C41.8352 204.395 41.7159 203.585 41.7159 202.636C41.7159 201.693 41.8352 200.888 42.0739 200.22C42.3153 199.55 42.6619 199.038 43.1136 198.686C43.5682 198.331 44.1136 198.153 44.75 198.153C45.3864 198.153 45.9304 198.331 46.3821 198.686C46.8366 199.038 47.1832 199.55 47.4219 200.22C47.6634 200.888 47.7841 201.693 47.7841 202.636C47.7841 203.585 47.6648 204.395 47.4261 205.065C47.1875 205.733 46.8423 206.243 46.3906 206.595C45.9389 206.945 45.392 207.119 44.75 207.119ZM44.75 206.182C45.3864 206.182 45.8807 205.875 46.233 205.261C46.5852 204.648 46.7614 203.773 46.7614 202.636C46.7614 201.881 46.6804 201.237 46.5185 200.706C46.3594 200.175 46.1293 199.77 45.8281 199.491C45.5298 199.213 45.1705 199.074 44.75 199.074C44.1193 199.074 43.6264 199.385 43.2713 200.007C42.9162 200.626 42.7386 201.503 42.7386 202.636C42.7386 203.392 42.8182 204.034 42.9773 204.562C43.1364 205.091 43.3651 205.493 43.6634 205.768C43.9645 206.044 44.3267 206.182 44.75 206.182Z" fill="#838391"/>
<line x1="58" y1="28.5" x2="679" y2="28.5" stroke="#CACAD0" stroke-dasharray="2"/>
<line x1="58" y1="63.7002" x2="679" y2="63.7002" stroke="#CACAD0" stroke-dasharray="2"/>
<line x1="58" y1="98.8999" x2="679" y2="98.8999" stroke="#CACAD0" stroke-dasharray="2"/>
<line x1="58" y1="134.1" x2="679" y2="134.1" stroke="#CACAD0" stroke-dasharray="2"/>
<line x1="58" y1="169.3" x2="679" y2="169.3" stroke="#CACAD0" stroke-dasharray="2"/>
<line x1="58" y1="204.5" x2="679" y2="204.5" stroke="#E1E1E5"/>
<line x1="57.5" y1="205" x2="57.5" y2="29" stroke="#CACAD0" stroke-dasharray="2"/>
<line x1="161" y1="205" x2="161" y2="29" stroke="#CACAD0" stroke-dasharray="2"/>
<line x1="264.5" y1="205" x2="264.5" y2="29" stroke="#CACAD0" stroke-dasharray="2"/>
<line x1="368" y1="205" x2="368" y2="29" stroke="#CACAD0" stroke-dasharray="2"/>
<line x1="471.5" y1="205" x2="471.5" y2="29" stroke="#CACAD0" stroke-dasharray="2"/>
<line x1="575" y1="205" x2="575" y2="29" stroke="#CACAD0" stroke-dasharray="2"/>
<line x1="678.5" y1="205" x2="678.5" y2="29" stroke="#CACAD0" stroke-dasharray="2"/>
<path d="M108.917 117.296L212.75 33.3931L316.583 89.9083L420.416 99.9829L524.25 136.297L628.083 128.571M628.083 128.571V128.571Z" stroke="#89D1BD" stroke-width="4"/>
<circle cx="108.917" cy="117.296" r="3.5" fill="white" stroke="#89D1BD"/>
<circle cx="212.75" cy="33.3931" r="3.5" fill="white" stroke="#89D1BD"/>
<circle cx="316.583" cy="89.9082" r="3.5" fill="white" stroke="#89D1BD"/>
<circle cx="420.417" cy="99.9829" r="3.5" fill="white" stroke="#89D1BD"/>
<circle cx="524.25" cy="136.297" r="3.5" fill="white" stroke="#89D1BD"/>
<circle cx="628.083" cy="128.571" r="3.5" fill="white" stroke="#89D1BD"/>
<path d="M108.917 61.3896L212.75 62.5554L316.583 136.279L420.416 121.002L524.25 109.657L628.083 161.266M628.083 161.266V161.266Z" stroke="#F6A66E" stroke-width="4"/>
<circle cx="108.917" cy="61.3896" r="3.5" fill="white" stroke="#F6A66E"/>
<circle cx="212.75" cy="62.5557" r="3.5" fill="white" stroke="#F6A66E"/>
<circle cx="316.583" cy="136.279" r="3.5" fill="white" stroke="#F6A66E"/>
<circle cx="420.417" cy="121.002" r="3.5" fill="white" stroke="#F6A66E"/>
<circle cx="524.25" cy="109.657" r="3.5" fill="white" stroke="#F6A66E"/>
<circle cx="628.083" cy="161.266" r="3.5" fill="white" stroke="#F6A66E"/>
<path d="M108.917 80.077L212.75 65.3218L316.583 153.749L420.416 157.768L524.25 82.5304L628.083 110.544M628.083 110.544V110.544Z" stroke="#B0A5E8" stroke-width="4"/>
<circle cx="108.917" cy="80.0771" r="3.5" fill="white" stroke="#B0A5E8"/>
<circle cx="212.75" cy="65.3218" r="3.5" fill="white" stroke="#B0A5E8"/>
<circle cx="316.583" cy="153.749" r="3.5" fill="white" stroke="#B0A5E8"/>
<circle cx="420.417" cy="157.768" r="3.5" fill="white" stroke="#B0A5E8"/>
<circle cx="524.25" cy="82.5303" r="3.5" fill="white" stroke="#B0A5E8"/>
<circle cx="628.083" cy="110.544" r="3.5" fill="white" stroke="#B0A5E8"/>
<rect x="80" y="210" width="56" height="12" rx="6" fill="#E1E1E5"/>
<rect x="184" y="210" width="56" height="12" rx="6" fill="#E1E1E5"/>
<rect x="288" y="210" width="56" height="12" rx="6" fill="#E1E1E5"/>
<rect x="392" y="210" width="56" height="12" rx="6" fill="#E1E1E5"/>
<rect x="496" y="210" width="56" height="12" rx="6" fill="#E1E1E5"/>
<rect x="600" y="210" width="56" height="12" rx="6" fill="#E1E1E5"/>
<rect x="240.5" y="250" width="16" height="2" fill="#B0A5E8"/>
<circle cx="248.5" cy="251" r="3.5" fill="white" stroke="#B0A5E8"/>
<path d="M267.555 246.156C267.555 249.766 266.352 253.02 261.854 255.207L261.156 254.195C263.351 253.129 264.718 251.81 265.49 250.244L261.402 250.627L261.225 249.492L265.9 249.191C266.092 248.569 266.215 247.906 266.27 247.209H261.84V246.156H267.555ZM271.137 244.912V257.162H269.824V244.912H271.137Z" fill="#838391"/>
<rect x="305.5" y="250" width="16" height="2" fill="#F6A66E"/>
<circle cx="313.5" cy="251" r="3.5" fill="white" stroke="#F6A66E"/>
<path d="M335.754 252.924V257.012H327.291V252.924H335.754ZM328.576 253.963V255.959H334.496V253.963H328.576ZM335.699 245.35V249.52H332.172V250.791H337.121V251.844H325.951V250.791H330.887V249.52H327.373V245.35H335.699ZM328.645 246.402V248.48H334.414V246.402H328.645ZM349.248 251.939V252.992H344.244V257.148H342.973V252.992H338.037V251.939H349.248ZM347.84 245.568V250.381H339.445V245.568H347.84ZM340.717 246.607V249.369H346.541V246.607H340.717ZM360.678 244.912V257.162H359.447V244.912H360.678ZM358.094 245.227V256.561H356.863V250.873H354.471C353.739 252.295 352.577 253.539 350.848 254.551L350.109 253.621C352.707 252.076 353.958 250.019 354.184 247.496H350.684V246.43H355.469C355.462 247.626 355.298 248.768 354.922 249.834H356.863V245.227H358.094Z" fill="#838391"/>
<rect x="394.5" y="250" width="16" height="2" fill="#89D1BD"/>
<circle cx="402.5" cy="251" r="3.5" fill="white" stroke="#89D1BD"/>
<path d="M421.117 246.088V249.314H423.879V244.912H425.164V257.189H423.879V250.367H421.117V254.1H415.43V246.088H421.117ZM416.715 247.1V253.061H419.846V247.1H416.715ZM437.223 244.912V257.189H435.924V244.912H437.223ZM433.477 246.02V250.49H429.074V253.17C431.057 253.163 432.793 253.074 434.844 252.732L434.967 253.799C432.793 254.168 430.947 254.25 428.787 254.25H427.748V249.451H432.15V247.072H427.734V246.02H433.477ZM449.008 248.043V249.082H440.613V245.363H448.885V246.416H441.912V248.043H449.008ZM450.32 249.957V251.01H445.371V252.09H448.912V254.947H441.775V256.027H449.254V257.039H440.504V254.018H447.627V253.061H440.49V252.09H444.086V251.01H439.15V249.957H450.32ZM455.994 246.225V250.586H452.891V253.102C454.224 253.095 455.495 253.047 457.006 252.773L457.115 253.84C455.42 254.141 454.025 254.182 452.48 254.195H451.633V249.547H454.75V247.277H451.619V246.225H455.994ZM461.764 244.912V257.162H460.52V244.912H461.764ZM459.248 245.186V256.533H458.018V250.299H456.568V249.246H458.018V245.186H459.248Z" fill="#838391"/>
</svg>
