<svg width="200" height="200" viewBox="0 0 200 200" fill="none" xmlns="http://www.w3.org/2000/svg">
<g clip-path="url(#clip0_821_4938)">
<path d="M75.0717 161.051C77.3715 150.278 83.195 137.858 87.3822 130.721H108.235L95.6732 161.816C94.8692 163.447 94.1658 169.972 93.9145 173.03C94.7185 178.739 88.7223 180.166 85.6237 180.166C70.4313 180.166 72.2276 180.166 65.776 179.657C56.559 178.928 55.5591 175.749 56.2291 173.795C56.43 169.513 68.8745 163.515 75.0717 161.051Z" fill="#FD959B"/>
<path d="M140.665 161.051C138.365 150.278 132.542 137.858 128.354 130.721H107.502L120.063 161.816C120.867 163.447 121.571 169.972 121.822 173.03C121.018 178.739 127.014 180.166 130.113 180.166C145.305 180.166 143.509 180.166 149.961 179.657C159.178 178.928 160.177 175.749 159.508 173.795C159.307 169.513 146.862 163.515 140.665 161.051Z" fill="#FD959B"/>
<path fill-rule="evenodd" clip-rule="evenodd" d="M122.24 28.9598C116.552 28.9598 111.616 32.1958 109.158 36.9348C108.952 36.4735 108.721 36.0182 108.464 35.5709C104.393 28.4903 95.3778 26.0643 88.3273 30.1523C83.4006 33.0089 80.7371 38.2903 80.9683 43.6288C80.5601 43.3324 80.1329 43.0541 79.6872 42.7956C72.6367 38.7077 63.6213 41.1337 59.5507 48.2142C56.7063 53.162 57.029 59.0733 59.8872 63.5804C59.3863 63.5287 58.8779 63.5022 58.3634 63.5022C50.2222 63.5022 43.6225 70.1302 43.6225 78.3061C43.6225 84.0193 46.8451 88.9766 51.5643 91.4446C51.1049 91.6514 50.6516 91.8837 50.2062 92.142C43.1557 96.2299 40.74 105.284 44.8106 112.364C47.6549 117.312 52.9136 119.987 58.2291 119.755C57.9341 120.165 57.6571 120.594 57.3999 121.041C53.3293 128.122 55.745 137.175 62.7954 141.263C67.722 144.12 73.608 143.796 78.0959 140.926C78.0445 141.429 78.0181 141.939 78.0181 142.456C78.0181 150.632 84.6178 157.26 92.759 157.26C98.448 157.26 103.384 154.023 105.842 149.284C106.048 149.745 106.279 150.201 106.536 150.648C110.607 157.729 119.622 160.155 126.673 156.067C131.599 153.21 134.263 147.929 134.032 142.591C134.44 142.887 134.866 143.165 135.312 143.423C142.362 147.511 151.378 145.085 155.448 138.005C158.293 133.057 157.97 127.146 155.112 122.639C155.613 122.69 156.122 122.717 156.637 122.717C164.778 122.717 171.378 116.089 171.378 107.913C171.378 102.2 168.155 97.243 163.436 94.7748C163.895 94.5681 164.348 94.336 164.794 94.0779C171.844 89.9899 174.26 80.936 170.189 73.8555C167.345 68.908 162.086 66.233 156.771 66.465C157.066 66.055 157.343 65.626 157.6 65.1783C161.671 58.0978 159.255 49.0439 152.205 44.9559C147.278 42.0993 141.392 42.4235 136.903 45.2941C136.955 44.791 136.981 44.2804 136.981 43.7636C136.981 35.5877 130.382 28.9598 122.24 28.9598Z" fill="#FEB7BB"/>
<ellipse cx="85.9536" cy="96.5927" rx="7.12429" ry="7.15471" fill="#FD959B"/>
<ellipse cx="128.325" cy="96.5927" rx="7.12429" ry="7.15471" fill="#FD959B"/>
<ellipse cx="95.8969" cy="84.6362" rx="9.89325" ry="9.93549" fill="white"/>
<ellipse cx="97.2463" cy="85.0871" rx="7.64478" ry="7.67743" fill="#3B3B41"/>
<ellipse cx="94.5483" cy="88.7" rx="2.24847" ry="2.25807" fill="white"/>
<ellipse cx="99.9445" cy="81.4742" rx="4.04724" ry="4.06452" fill="white"/>
<ellipse cx="9.89325" cy="9.93549" rx="9.89325" ry="9.93549" transform="matrix(-1 0 0 1 128.571 74.7007)" fill="white"/>
<ellipse cx="117.328" cy="85.0871" rx="7.64478" ry="7.67743" fill="#3B3B41"/>
<ellipse cx="114.631" cy="88.7" rx="2.24847" ry="2.25807" fill="white"/>
<ellipse cx="120.026" cy="81.4742" rx="4.04724" ry="4.06452" fill="white"/>
<path d="M108.208 120.956L106.757 98.7656L89.2177 99.765C83.9169 100.067 84.4997 105.389 85.4538 108.012C88.5764 117.474 99.2438 121.467 108.208 120.956Z" fill="#3B3B41"/>
<path d="M108.208 120.956L106.757 98.7656L124.296 97.7663C129.597 97.4643 129.712 102.813 129.107 105.525C127.241 115.271 117.173 120.445 108.208 120.956Z" fill="#3B3B41"/>
<path fill-rule="evenodd" clip-rule="evenodd" d="M126.4 112.193C123.764 109.275 117.209 107.88 109.96 109.008C101.026 110.399 94.4213 115.096 95.2081 119.5C95.2357 119.654 95.2721 119.806 95.3169 119.956C99.2106 121.654 103.61 122.343 107.662 122.113C114.753 121.709 122.533 118.387 126.4 112.193Z" fill="#D64A52"/>
<path d="M100.989 108.878C102.392 111 101.574 124.306 100.989 129.218C98.4041 142.529 83.9848 151.385 67.8181 146.957C55.693 143.267 50.9166 128.138 58.2649 119.651C57.5298 124.817 67.4008 139.324 82.5152 129.983C87.2918 127.031 87.1559 117.916 86.6688 112.709C86.435 106.108 90.1758 106.52 90.7603 109.467C91.3448 112.709 92.2216 111.825 91.6371 109.173C91.3448 105.341 94.7831 105.931 95.1441 107.994C95.8455 112.002 96.8976 111.825 96.8976 110.941C95.9624 107.404 97.4821 106.52 98.3589 106.52C99.5279 106.52 100.599 108.092 100.989 108.878Z" fill="#FD959B"/>
<path d="M112.136 108.878C110.733 111 111.552 124.306 112.136 129.218C114.721 142.529 129.14 151.385 145.307 146.957C157.432 143.267 162.209 128.138 154.86 119.651C155.595 124.817 145.724 139.324 130.61 129.983C125.833 127.031 125.969 117.916 126.456 112.709C126.69 106.108 122.949 106.52 122.365 109.467C121.78 112.709 120.904 111.825 121.488 109.173C121.78 105.341 118.342 105.931 117.981 107.994C117.28 112.002 116.228 111.825 116.228 110.941C117.163 107.404 115.643 106.52 114.766 106.52C113.597 106.52 112.526 108.092 112.136 108.878Z" fill="#FD959B"/>
<path d="M36.6426 5.23971L37.7661 0.506827C37.8008 0.360843 37.8794 0.231659 37.9895 0.139825C38.0996 0.0479913 38.2348 -0.00121875 38.3736 2.29342e-05C38.5124 0.00126462 38.6468 0.0528866 38.7555 0.146678C38.8641 0.240469 38.9408 0.371042 38.9733 0.517627L40.0169 5.23644C40.2574 6.32277 40.7508 7.32375 41.4498 8.14331C42.1489 8.96287 43.0301 9.57351 44.0089 9.91662L46.2359 10.6975C46.3623 10.7419 46.4722 10.829 46.5497 10.9461C46.6272 11.0633 46.6682 11.2043 46.6666 11.3485C46.6651 11.4927 46.6211 11.6326 46.5411 11.7477C46.4611 11.8629 46.3493 11.9472 46.2221 11.9883L44.1083 12.6704C43.0915 12.9987 42.1729 13.6138 41.4461 14.4532C40.7193 15.2926 40.2103 16.3262 39.9708 17.4488L39.0043 21.9771C38.9725 22.1261 38.8951 22.259 38.7847 22.354C38.6743 22.449 38.5375 22.5005 38.3967 22.5C38.2559 22.4995 38.1194 22.4472 38.0095 22.3515C37.8997 22.2558 37.823 22.1224 37.792 21.9732L36.874 17.5447C36.6412 16.422 36.139 15.3862 35.4185 14.5425C34.6979 13.6988 33.7847 13.0773 32.7715 12.7411L30.4405 11.9687C30.3152 11.9272 30.2052 11.8438 30.1261 11.7304C30.047 11.6169 30.0029 11.4793 30.0001 11.337C29.9973 11.1948 30.036 11.0552 30.1105 10.9382C30.185 10.8212 30.2917 10.7327 30.4152 10.6854L32.8281 9.76018C33.7565 9.40431 34.5899 8.80585 35.2551 8.01753C35.9203 7.22921 36.3968 6.27525 36.6426 5.23971V5.23971Z" fill="#F1C274"/>
<path d="M5.31409 80.5478L6.21287 77.0419C6.24064 76.9338 6.30356 76.8381 6.39162 76.7701C6.47968 76.7021 6.58783 76.6656 6.69886 76.6665C6.80989 76.6674 6.91743 76.7057 7.00437 76.7752C7.09131 76.8446 7.15265 76.9413 7.17864 77.0499L8.01355 80.5453C8.20589 81.35 8.60062 82.0915 9.15985 82.6986C9.71909 83.3057 10.424 83.758 11.2071 84.0122L12.9887 84.5906C13.0898 84.6235 13.1778 84.688 13.2398 84.7748C13.3018 84.8615 13.3345 84.9659 13.3333 85.0728C13.3321 85.1796 13.2969 85.2833 13.2329 85.3685C13.1689 85.4538 13.0795 85.5163 12.9776 85.5468L11.2866 86.052C10.4732 86.2952 9.73833 86.7508 9.1569 87.3726C8.57547 87.9943 8.16824 88.76 7.97667 89.5915L7.20347 92.9458C7.17802 93.0562 7.11607 93.1547 7.02777 93.225C6.93946 93.2954 6.83003 93.3335 6.71738 93.3332C6.60473 93.3328 6.49552 93.294 6.40764 93.2232C6.31976 93.1523 6.25839 93.0535 6.2336 92.9429L5.4992 89.6626C5.31295 88.8309 4.9112 88.0637 4.33477 87.4387C3.75834 86.8138 3.02775 86.3534 2.2172 86.1044L0.352404 85.5322C0.252172 85.5015 0.164148 85.4397 0.100887 85.3557C0.0376261 85.2716 0.0023585 85.1697 0.000114173 85.0643C-0.00213016 84.9589 0.0287634 84.8555 0.0883889 84.7688C0.148014 84.6822 0.233327 84.6167 0.332158 84.5816L2.26251 83.8963C3.00516 83.6327 3.67196 83.1894 4.20412 82.6054C4.73628 82.0215 5.11747 81.3148 5.31409 80.5478V80.5478Z" fill="#F1C274"/>
<path d="M189.976 22.0544L191.099 16.586C191.134 16.4173 191.212 16.2679 191.323 16.1617C191.433 16.0555 191.568 15.9986 191.707 16C191.845 16.0015 191.98 16.0612 192.089 16.1696C192.197 16.2781 192.274 16.4291 192.306 16.5985L193.35 22.0506C193.59 23.3061 194.083 24.463 194.783 25.4103C195.482 26.3576 196.363 27.0634 197.342 27.4601L199.569 28.3623C199.695 28.4135 199.805 28.5141 199.883 28.6494C199.96 28.7847 200.001 28.9476 200 29.1142C199.998 29.2809 199.954 29.4426 199.874 29.5756C199.794 29.7086 199.682 29.8059 199.555 29.8534L197.44 30.6426C196.423 31.0218 195.505 31.7325 194.778 32.7023C194.051 33.6722 193.542 34.8664 193.303 36.1635L192.337 41.3952C192.305 41.5676 192.227 41.7213 192.117 41.8312C192.007 41.941 191.87 42.0006 191.729 42C191.588 41.9994 191.451 41.9388 191.341 41.828C191.231 41.7172 191.155 41.5629 191.124 41.3903L190.206 36.2736C189.973 34.9764 189.471 33.7796 188.751 32.8048C188.03 31.8301 187.117 31.1121 186.104 30.7239L183.774 29.8307C183.649 29.7828 183.539 29.6864 183.459 29.5554C183.38 29.4244 183.336 29.2653 183.333 29.1009C183.331 28.9366 183.369 28.7753 183.444 28.6401C183.518 28.5049 183.625 28.4026 183.748 28.3479L186.161 27.2789C187.09 26.8677 187.923 26.176 188.589 25.2649C189.254 24.3538 189.73 23.2512 189.976 22.0544V22.0544Z" fill="#F1C274"/>
</g>
<defs>
<clipPath id="clip0_821_4938">
<rect width="200" height="200" fill="white"/>
</clipPath>
</defs>
</svg>
