<svg width="200" height="162" viewBox="0 0 200 162" fill="none" xmlns="http://www.w3.org/2000/svg">
<path d="M39.5562 35.2207C40.0856 37.2336 32.2476 40.0321 29.4376 42.9315C26.6277 45.8309 22.0711 38.8954 25.9571 35.1294C29.8431 31.3635 39.0268 33.2077 39.5562 35.2207Z" fill="#93CBDF"/>
<path d="M41.2636 29.3964C39.5814 31.1762 31.9345 25.0087 27.2997 23.9716C22.665 22.9345 26.7692 14.0479 32.9354 15.6332C39.1017 17.2184 42.9459 27.6165 41.2636 29.3964Z" fill="#93CBDF"/>
<ellipse cx="30.8102" cy="30.9545" rx="30.8102" ry="30.9545" transform="matrix(1 0 0.00880039 0.999961 64.6143 90.8711)" fill="#FD959B"/>
<path d="M197.057 105.745C195.885 108.216 180.947 116.237 176.117 118.429C162.474 123.449 140.048 114.884 135.181 97.5417C131.869 84.3296 131.053 71.9716 142.901 74.0181C137.754 76.213 145.447 90.9428 160.186 100.425C169.694 106.543 181.122 98.0355 185.631 94.6929C191.56 90.808 193.248 94.4808 190.866 96.6571C188.214 98.9972 189.509 99.3128 191.621 97.3003C194.975 94.9015 196.333 98.3941 194.64 99.8732C191.349 102.747 192.092 103.617 192.904 103.126C195.633 100.299 197.283 101.206 197.768 102.013C198.414 103.089 197.563 104.949 197.057 105.745Z" fill="#FD959B"/>
<path d="M2.02866 69.3663C1.96035 72.1027 11.6634 86.0498 14.9821 90.2021C24.8841 100.885 48.7391 103.451 60.8949 90.202C69.8023 79.9286 76.0995 69.2813 64.614 65.7162C68.2136 70.0146 54.7155 79.6478 37.3009 81.3974C26.0656 82.5262 19.7114 69.7422 17.1977 64.7105C13.6622 58.5494 10.5021 61.0562 11.6447 64.0801C12.9547 67.3731 11.6573 67.0651 10.6819 64.3102C8.77213 60.6454 5.98692 63.1414 6.83047 65.2308C8.46935 69.29 7.41428 69.7277 6.91237 68.9203C5.75332 65.1585 3.87245 65.2165 3.0769 65.7158C2.01616 66.3814 1.9361 68.4268 2.02866 69.3663Z" fill="#FD959B"/>
<path d="M147.9 132.273C136.717 128.438 122.093 126.979 113.23 126.926L101.841 146.4L137.352 151.937C139.294 152.092 145.69 155.058 148.646 156.522C153.467 160.444 158.057 155.637 159.749 152.743C168.047 138.556 167.066 140.233 170.12 133.925C174.483 124.913 172.099 122.214 169.933 121.754C165.878 119.564 153.555 127.854 147.9 132.273Z" fill="#FD959B"/>
<path d="M44.0129 132.273C55.1953 128.438 69.8199 126.979 78.6824 126.926L90.0718 146.4L54.5605 151.937C52.6184 152.092 46.2223 155.058 43.267 156.522C38.4457 160.444 33.8557 155.637 32.1633 152.743C23.8655 138.556 24.8466 140.233 21.7925 133.925C17.4294 124.913 19.8131 122.214 21.9795 121.754C26.0345 119.564 38.358 127.854 44.0129 132.273Z" fill="#FD959B"/>
<path fill-rule="evenodd" clip-rule="evenodd" d="M111.936 4.75717C106.552 4.75717 101.881 7.83894 99.5548 12.3521C99.3598 11.9122 99.1406 11.4781 98.897 11.0516C95.0446 4.30838 86.5126 1.998 79.8401 5.89121C75.1773 8.61184 72.6565 13.642 72.8757 18.7264C72.4892 18.444 72.0847 18.1789 71.6627 17.9327C64.9903 14.0395 56.4582 16.3498 52.6059 23.093C49.9137 27.8054 50.2195 33.4357 52.9251 37.7282C52.4513 37.6791 51.9703 37.6539 51.4836 37.6539C43.7789 37.6539 37.533 43.966 37.533 51.7523C37.533 57.1927 40.5822 61.9134 45.0478 64.2641C44.6133 64.4609 44.1846 64.682 43.7633 64.9278C37.0908 68.821 34.8046 77.4435 38.657 84.1867C41.3486 88.8981 46.3247 91.4455 51.3549 91.225C51.0758 91.6153 50.8137 92.0236 50.5702 92.4497C46.7179 99.1929 49.004 107.815 55.6765 111.709C60.3394 114.429 65.9104 114.12 70.1579 111.386C70.1091 111.866 70.0841 112.352 70.0841 112.845C70.0841 120.631 76.33 126.943 84.0348 126.943C89.4187 126.943 94.0903 123.861 96.4162 119.347C96.6111 119.787 96.8301 120.221 97.0736 120.647C100.926 127.39 109.458 129.7 116.13 125.807C120.793 123.087 123.313 118.058 123.095 112.975C123.481 113.256 123.884 113.521 124.305 113.766C130.978 117.66 139.51 115.349 143.362 108.606C146.054 103.894 145.749 98.264 143.043 93.9715C143.518 94.0209 144.001 94.0463 144.488 94.0463C152.193 94.0463 158.439 87.7342 158.439 79.9478C158.439 74.507 155.389 69.7861 150.923 67.4355C151.357 67.239 151.785 67.0181 152.206 66.7727C158.879 62.8795 161.165 54.257 157.312 47.5139C154.621 42.8021 149.644 40.2547 144.613 40.4755C144.893 40.0847 145.156 39.6757 145.399 39.249C149.252 32.5058 146.966 23.8833 140.293 19.9901C135.631 17.2696 130.06 17.5783 125.813 20.3118C125.861 19.8331 125.886 19.3473 125.886 18.8556C125.886 11.0693 119.64 4.75717 111.936 4.75717Z" fill="#FEB7BB"/>
<ellipse cx="6.95713" cy="6.98973" rx="6.95713" ry="6.98973" transform="matrix(1 0 -0.00113313 0.999999 105.145 65.9082)" fill="#FD959B"/>
<ellipse cx="6.95713" cy="6.98973" rx="6.95713" ry="6.98973" transform="matrix(-1 0 0.00113313 0.999999 88.644 65.9082)" fill="#FD959B"/>
<path fill-rule="evenodd" clip-rule="evenodd" d="M116.024 56.9227C115.515 55.9439 114.313 55.5629 113.337 56.0716L114.258 57.8439C113.337 56.0716 113.338 56.0715 113.337 56.0716L113.328 56.0765L113.306 56.0882L113.224 56.1315C113.153 56.1691 113.05 56.2237 112.92 56.2935C112.661 56.433 112.293 56.6337 111.852 56.8809C110.973 57.3736 109.792 58.058 108.605 58.8155C107.431 59.5642 106.19 60.4227 105.224 61.2654C104.745 61.6835 104.272 62.1502 103.904 62.6447C103.58 63.0821 103.112 63.8354 103.129 64.775C103.155 66.2441 104.334 66.9553 104.827 67.2008C105.445 67.5084 106.187 67.6974 106.88 67.8275C108.302 68.0947 110.112 68.2174 111.821 68.2717C113.553 68.3267 115.273 68.3137 116.555 68.2875C117.198 68.2743 117.733 68.2578 118.11 68.2444C118.298 68.2378 118.447 68.2319 118.549 68.2277L118.667 68.2226L118.709 68.2207C118.709 68.2207 118.71 68.2207 118.616 66.2254L118.71 68.2207C119.809 68.1694 120.657 67.2346 120.605 66.1327C120.552 65.0308 119.62 64.179 118.521 64.2302L118.487 64.2317L118.38 64.2362C118.285 64.2402 118.145 64.2457 117.965 64.2521C117.605 64.2648 117.089 64.2808 116.469 64.2935C115.226 64.319 113.58 64.3309 111.943 64.2789C110.55 64.2347 109.227 64.1458 108.18 63.995C108.887 63.4209 109.79 62.7957 110.745 62.1868C111.847 61.4837 112.958 60.8395 113.797 60.3688C114.216 60.1342 114.564 59.9444 114.807 59.814C114.928 59.7488 115.022 59.6985 115.086 59.6649L115.157 59.6273L115.174 59.6184L115.178 59.6164C116.153 59.1076 116.532 57.9014 116.024 56.9227ZM107.028 65.1426C107.029 65.1425 107.034 65.1346 107.041 65.1192C107.031 65.1351 107.027 65.1428 107.028 65.1426ZM106.577 63.614C106.557 63.6004 106.544 63.5939 106.543 63.5941C106.542 63.5943 106.552 63.6011 106.577 63.614Z" fill="#3B3B41"/>
<path fill-rule="evenodd" clip-rule="evenodd" d="M77.7645 56.9227C78.2728 55.9439 79.4755 55.5629 80.4507 56.0716L79.5304 57.8439C80.4507 56.0716 80.4505 56.0715 80.4507 56.0716L80.4599 56.0765L80.4822 56.0882L80.5644 56.1315C80.6354 56.1691 80.738 56.2237 80.8676 56.2935C81.1269 56.433 81.4951 56.6337 81.9361 56.8809C82.8154 57.3736 83.9963 58.058 85.1834 58.8155C86.357 59.5642 87.5976 60.4227 88.5638 61.2654C89.0432 61.6835 89.5163 62.1502 89.8836 62.6447C90.2085 63.0821 90.6759 63.8354 90.6593 64.775C90.6333 66.2441 89.4545 66.9553 88.961 67.2008C88.3429 67.5084 87.6011 67.6974 86.9083 67.8275C85.4863 68.0947 83.6765 68.2174 81.9671 68.2717C80.2355 68.3267 78.5147 68.3137 77.233 68.2875C76.5905 68.2743 76.0547 68.2578 75.6783 68.2444C75.49 68.2378 75.3415 68.2319 75.2392 68.2277L75.1213 68.2226L75.0789 68.2207C75.0787 68.2207 75.0777 68.2207 75.1724 66.2254L75.0777 68.2207C73.9792 68.1694 73.131 67.2346 73.1833 66.1327C73.2356 65.0308 74.1685 64.179 75.2669 64.2302L75.3007 64.2317L75.4079 64.2362C75.5028 64.2402 75.6434 64.2457 75.8232 64.2521C76.183 64.2648 76.6989 64.2808 77.3187 64.2935C78.5617 64.319 80.2078 64.3309 81.8455 64.2789C83.2379 64.2347 84.5612 64.1458 85.608 63.995C84.9011 63.4209 83.9976 62.7957 83.0432 62.1868C81.9412 61.4837 80.8306 60.8395 79.9907 60.3688C79.5721 60.1342 79.2238 59.9444 78.9814 59.814C78.8603 59.7488 78.7658 59.6985 78.7024 59.6649L78.6311 59.6273L78.6141 59.6184L78.6104 59.6164C77.6353 59.1076 77.2562 57.9014 77.7645 56.9227ZM86.76 65.1426C86.7593 65.1425 86.7546 65.1346 86.7476 65.1192C86.7572 65.1351 86.7607 65.1428 86.76 65.1426ZM87.2111 63.614C87.2316 63.6004 87.244 63.5939 87.2451 63.5941C87.2462 63.5943 87.2359 63.6011 87.2111 63.614Z" fill="#3B3B41"/>
<path fill-rule="evenodd" clip-rule="evenodd" d="M190.022 74.2592C190.471 74.7104 190.471 75.4419 190.022 75.8932C189.572 76.3444 188.844 76.3444 188.395 75.8932L187.582 75.0757L183.516 79.1601L186.769 82.4281C187.218 82.8793 187.218 83.6108 186.769 84.0621C186.32 84.5133 185.592 84.5133 185.143 84.0621L183.517 82.4284L169.692 96.3177C168.025 97.9928 165.589 98.4242 163.525 97.6119L162.374 98.7688C161.772 99.3739 160.919 99.5733 160.151 99.3671L157.495 102.036C157.046 102.488 156.317 102.488 155.868 102.036C155.419 101.585 155.419 100.854 155.868 100.402L158.525 97.7327C158.321 96.9619 158.519 96.1056 159.121 95.5008L160.273 94.344C159.464 92.2709 159.893 89.8229 161.561 88.1478L175.385 74.2584L173.758 72.6241C173.309 72.1728 173.309 71.4413 173.758 70.9901C174.207 70.5389 174.935 70.5389 175.385 70.9901L178.637 74.2581L182.703 70.1737L181.89 69.3572C181.441 68.906 181.441 68.1744 181.89 67.7232C182.339 67.272 183.067 67.272 183.516 67.7232L190.022 74.2592ZM180.043 75.6703L184.108 71.5858L186.176 73.6634L182.111 77.7479L180.043 75.6703ZM176.79 75.6706L182.111 81.0162L177.732 85.4159L172.411 80.0701L176.79 75.6706ZM176.106 87.0499L173.666 89.5009C172.261 90.9123 173.296 89.8723 172.04 91.1349L170.414 92.7685C169.321 93.8664 169.57 93.6159 168.788 94.4025L168.287 94.9056C167.195 96.0021 165.6 96.2841 164.25 95.7516L162.124 93.6159C161.594 92.259 161.875 90.6565 162.966 89.56L170.785 81.7041L176.106 87.0499ZM160.499 96.9447C160.508 96.9336 160.517 96.9231 160.527 96.9131L161.346 96.0901C161.415 96.1675 161.487 96.2434 161.561 96.3177C161.635 96.3922 161.71 96.4642 161.787 96.5338L160.968 97.3567C160.958 97.3668 160.948 97.3761 160.937 97.3846C160.886 97.295 160.823 97.2106 160.747 97.1343C160.672 97.0584 160.588 96.9951 160.499 96.9447Z" fill="#93CBDF"/>
<path fill-rule="evenodd" clip-rule="evenodd" d="M176.106 87.0508L173.667 89.5018C172.262 90.9132 173.297 89.8733 172.041 91.1358L170.415 92.7694C169.322 93.8674 169.571 93.6169 168.788 94.4034L168.287 94.9066C167.196 96.0031 165.601 96.285 164.251 95.7525L162.125 93.6169C161.595 92.26 161.875 90.6574 162.967 89.5609L170.786 81.7051L176.106 87.0508ZM160.5 96.9457C160.508 96.9346 160.518 96.924 160.527 96.914L161.346 96.091C161.416 96.1684 161.487 96.2443 161.561 96.3187C161.635 96.3932 161.711 96.4652 161.788 96.5348L160.969 97.3577C160.959 97.3678 160.948 97.377 160.937 97.3855C160.887 97.296 160.824 97.2116 160.748 97.1353C160.672 97.0593 160.589 96.996 160.5 96.9457Z" fill="#93CBDF"/>
<path d="M117.29 91.3994C117.29 98.7676 107.723 87.2943 95.9216 87.2943C84.1202 87.2943 74.5532 98.7676 74.5532 91.3994C74.5532 84.0311 84.1202 71.9004 95.9216 71.9004C107.723 71.9004 117.29 84.0311 117.29 91.3994Z" fill="#4B4B53"/>
<path fill-rule="evenodd" clip-rule="evenodd" d="M106.356 89.8396C103.27 88.4773 99.711 87.2943 95.9216 87.2943C92.1321 87.2943 88.5729 88.4773 85.487 89.8396C85.4862 89.8104 85.4858 89.7805 85.4858 89.7499C85.4858 86.4007 90.1581 80.8867 95.9215 80.8867C101.685 80.8867 106.357 86.4007 106.357 89.7499C106.357 89.7805 106.357 89.8104 106.356 89.8396Z" fill="#D64A52"/>
<path d="M68.0842 70.0167C68.5857 69.7366 69.19 69.982 69.3507 70.5332C69.8882 72.3771 70.7539 76.431 69.2735 79.8608C68.1297 82.5108 65.6555 83.4953 63.4115 82.5275C61.1675 81.5597 60.4433 79.055 61.5871 76.4051C62.9788 73.1808 66.4166 70.9479 68.0842 70.0167Z" fill="#E5F3F7"/>
</svg>
