<svg width="150" height="132" viewBox="0 0 150 132" fill="none" xmlns="http://www.w3.org/2000/svg">
<path d="M56.5544 120.04C58.2615 112.102 62.5841 102.95 65.6922 97.6914H81.1705L71.8463 120.603C71.2495 121.805 70.7274 126.613 70.5409 128.866C71.1376 133.073 66.6868 134.125 64.3869 134.125C53.11 134.125 54.4433 134.125 49.6546 133.749C42.8131 133.213 42.0709 130.87 42.5681 129.43C42.7173 126.275 51.9545 121.855 56.5544 120.04Z" fill="#FD959B"/>
<path d="M105.242 120.04C103.535 112.102 99.2128 102.95 96.1047 97.6914H80.6264L89.9506 120.603C90.5474 121.805 91.0695 126.613 91.256 128.866C90.6593 133.073 95.11 134.125 97.41 134.125C108.687 134.125 107.354 134.125 112.142 133.749C118.984 133.213 119.726 130.87 119.229 129.43C119.08 126.275 109.842 121.855 105.242 120.04Z" fill="#FD959B"/>
<path fill-rule="evenodd" clip-rule="evenodd" d="M91.5663 22.7097C87.3437 22.7097 83.6799 25.0942 81.8556 28.5862C81.7028 28.2463 81.5312 27.9109 81.3403 27.5814C78.3188 22.3641 71.627 20.5765 66.3937 23.5887C62.7369 25.6935 60.7598 29.5848 60.9313 33.5183C60.6283 33.3 60.3113 33.095 59.9805 32.9046C54.7472 29.8924 48.0553 31.6799 45.0339 36.8972C42.9225 40.543 43.1621 44.8988 45.2838 48.2199C44.9119 48.1818 44.5345 48.1623 44.1525 48.1623C38.1096 48.1623 33.2108 53.046 33.2108 59.0704C33.2108 63.2801 35.6029 66.9329 39.1058 68.7515C38.7648 68.9038 38.4283 69.075 38.0977 69.2653C32.8643 72.2775 31.0713 78.9488 34.0927 84.166C36.204 87.8115 40.1072 89.7826 44.0528 89.6116C43.8338 89.9136 43.6283 90.2295 43.4374 90.5592C40.4159 95.7765 42.209 102.448 47.4423 105.46C51.0992 107.565 55.4682 107.326 58.7995 105.211C58.7613 105.582 58.7417 105.958 58.7417 106.338C58.7417 112.363 63.6405 117.247 69.6834 117.247C73.9061 117.247 77.57 114.862 79.3942 111.37C79.5471 111.71 79.7188 112.045 79.9098 112.375C82.9312 117.592 89.6231 119.38 94.8564 116.368C98.5133 114.263 100.49 110.372 100.319 106.438C100.622 106.656 100.938 106.861 101.269 107.051C106.502 110.064 113.194 108.276 116.216 103.059C118.327 99.413 118.087 95.0573 115.966 91.7363C116.338 91.7744 116.716 91.7939 117.098 91.7939C123.141 91.7939 128.04 86.9102 128.04 80.8858C128.04 76.6762 125.648 73.0236 122.145 71.2049C122.486 71.0527 122.822 70.8816 123.152 70.6914C128.386 67.6792 130.179 61.0079 127.157 55.7906C125.046 52.1451 121.143 50.1741 117.197 50.345C117.416 50.043 117.622 49.7268 117.813 49.397C120.834 44.1797 119.041 37.5084 113.808 34.4962C110.151 32.3913 105.782 32.6302 102.45 34.7455C102.488 34.3748 102.508 33.9986 102.508 33.6178C102.508 27.5934 97.6092 22.7097 91.5663 22.7097Z" fill="#FEB7BB"/>
<ellipse cx="64.6319" cy="72.5444" rx="5.28814" ry="5.27189" fill="#FD959B"/>
<ellipse cx="96.0826" cy="72.5444" rx="5.28814" ry="5.27189" fill="#FD959B"/>
<ellipse cx="72.0124" cy="63.734" rx="7.34344" ry="7.32089" fill="white"/>
<ellipse cx="73.0138" cy="64.0662" rx="5.67448" ry="5.65705" fill="#3B3B41"/>
<ellipse cx="71.0113" cy="66.7288" rx="1.66896" ry="1.66384" fill="white"/>
<ellipse cx="75.0168" cy="61.4041" rx="3.00414" ry="2.99491" fill="white"/>
<ellipse cx="7.34344" cy="7.32089" rx="7.34344" ry="7.32089" transform="matrix(-1 0 0 1 96.2646 56.4131)" fill="white"/>
<ellipse cx="87.9201" cy="64.0662" rx="5.67448" ry="5.65705" fill="#3B3B41"/>
<ellipse cx="85.9175" cy="66.7288" rx="1.66896" ry="1.66384" fill="white"/>
<ellipse cx="89.9226" cy="61.4041" rx="3.00414" ry="2.99491" fill="white"/>
<path d="M81.1506 90.4964L80.0732 74.1456L67.0543 74.882C63.1198 75.1045 63.5524 79.026 64.2605 80.959C66.5784 87.9306 74.4964 90.8727 81.1506 90.4964Z" fill="#3B3B41"/>
<path d="M81.1506 90.4964L80.0732 74.1456L93.0919 73.4092C97.0265 73.1867 97.112 77.1278 96.6629 79.1262C95.2776 86.3074 87.8047 90.12 81.1506 90.4964Z" fill="#3B3B41"/>
<path fill-rule="evenodd" clip-rule="evenodd" d="M94.6542 84.0411C92.6977 81.8908 87.8322 80.8629 82.4517 81.6943C75.8201 82.719 70.9175 86.1801 71.5016 89.425C71.522 89.5384 71.5489 89.65 71.582 89.7599C74.4723 91.0115 77.7383 91.5194 80.7461 91.3492C86.009 91.0516 91.7839 88.6043 94.6542 84.0411Z" fill="#D64A52"/>
<path d="M75.792 81.5966C76.8333 83.1601 76.2259 92.9649 75.792 96.5842C73.8733 106.392 63.1703 112.917 51.1702 109.655C42.1702 106.936 38.6248 95.7881 44.0792 89.5346C43.5336 93.3411 50.8604 104.03 62.0794 97.1476C65.6249 94.9725 65.5241 88.2562 65.1625 84.4197C64.989 79.5552 67.7657 79.8593 68.1995 82.0309C68.6334 84.4197 69.2842 83.7682 68.8503 81.8137C68.6334 78.9906 71.1855 79.4249 71.4534 80.9451C71.9741 83.8985 72.755 83.7682 72.755 83.1167C72.0609 80.5108 73.1889 79.8593 73.8397 79.8593C74.7074 79.8593 75.5028 81.0175 75.792 81.5966Z" fill="#FD959B"/>
<path d="M84.0664 81.5966C83.0251 83.1601 83.6325 92.9649 84.0664 96.5842C85.9851 106.392 96.6881 112.917 108.688 109.655C117.688 106.936 121.234 95.7881 115.779 89.5346C116.325 93.3411 108.998 104.03 97.779 97.1476C94.2335 94.9725 94.3343 88.2562 94.6959 84.4197C94.8694 79.5552 92.0927 79.8593 91.6589 82.0309C91.225 84.4197 90.5742 83.7682 91.0081 81.8137C91.225 78.9906 88.6729 79.4249 88.405 80.9451C87.8843 83.8985 87.1034 83.7682 87.1034 83.1167C87.7975 80.5108 86.6695 79.8593 86.0187 79.8593C85.151 79.8593 84.3556 81.0175 84.0664 81.5966Z" fill="#FD959B"/>
<path d="M27.482 3.92978L28.3246 0.38012C28.3506 0.270632 28.4096 0.173744 28.4921 0.104869C28.5747 0.0359934 28.6761 -0.000914061 28.7802 1.72006e-05C28.8843 0.000948462 28.9851 0.0396649 29.0666 0.110008C29.1481 0.180351 29.2056 0.278281 29.23 0.388221L30.0127 3.92733C30.193 4.74208 30.5631 5.49281 31.0874 6.10748C31.6116 6.72215 32.2725 7.18013 33.0067 7.43747L34.6769 8.02314C34.7717 8.05643 34.8542 8.12176 34.9123 8.20961C34.9704 8.29745 35.0011 8.40319 35 8.51136C34.9988 8.61953 34.9658 8.72446 34.9058 8.81081C34.8458 8.89716 34.762 8.96039 34.6665 8.99126L33.0812 9.5028C32.3186 9.74902 31.6297 10.2104 31.0846 10.8399C30.5395 11.4694 30.1577 12.2446 29.9781 13.0866L29.2533 16.4828C29.2294 16.5946 29.1713 16.6942 29.0885 16.7655C29.0057 16.8367 28.9032 16.8753 28.7975 16.875C28.6919 16.8747 28.5896 16.8354 28.5072 16.7636C28.4248 16.6918 28.3672 16.5918 28.344 16.4799L27.6555 13.1585C27.4809 12.3165 27.1043 11.5396 26.5638 10.9069C26.0234 10.2741 25.3385 9.80798 24.5786 9.55582L22.8304 8.97653C22.7364 8.94541 22.6539 8.88285 22.5946 8.79778C22.5353 8.7127 22.5022 8.60945 22.5001 8.50276C22.498 8.39607 22.527 8.29138 22.5829 8.20362C22.6388 8.11587 22.7187 8.04953 22.8114 8.01406L24.6211 7.32013C25.3173 7.05323 25.9425 6.60439 26.4414 6.01315C26.9403 5.42191 27.2976 4.70644 27.482 3.92978Z" fill="#F1C274"/>
<path d="M3.98557 60.4109L4.65965 57.7816C4.68048 57.7005 4.72767 57.6287 4.79371 57.5777C4.85976 57.5267 4.94087 57.4993 5.02415 57.5C5.10742 57.5007 5.18807 57.5294 5.25328 57.5815C5.31848 57.6336 5.36449 57.7061 5.38398 57.7876L6.01016 60.4091C6.15442 61.0126 6.45047 61.5687 6.86989 62.0241C7.28931 62.4794 7.81804 62.8186 8.40532 63.0092L9.74155 63.4431C9.81735 63.4677 9.88333 63.5161 9.92982 63.5812C9.97632 63.6463 10.0009 63.7246 9.99997 63.8047C9.99904 63.8848 9.97265 63.9626 9.92466 64.0265C9.87667 64.0905 9.80959 64.1373 9.73324 64.1602L8.46497 64.5391C7.85489 64.7215 7.30374 65.0632 6.86767 65.5296C6.4316 65.9959 6.12618 66.5701 5.9825 67.1938L5.4026 69.7095C5.38351 69.7923 5.33705 69.8661 5.27082 69.9189C5.2046 69.9717 5.12252 70.0002 5.03803 70C4.95355 69.9997 4.87164 69.9707 4.80573 69.9175C4.73982 69.8643 4.69379 69.7902 4.6752 69.7073L4.1244 67.247C3.98471 66.6233 3.6834 66.0479 3.25108 65.5792C2.81875 65.1105 2.27081 64.7652 1.6629 64.5784L0.264303 64.1493C0.189129 64.1262 0.123111 64.0799 0.0756654 64.0169C0.0282196 63.9539 0.00176888 63.8774 8.56297e-05 63.7983C-0.00159762 63.7193 0.0215726 63.6418 0.0662917 63.5768C0.111011 63.5118 0.174995 63.4626 0.249119 63.4363L1.69688 62.9223C2.25387 62.7246 2.75397 62.3921 3.15309 61.9542C3.55221 61.5162 3.8381 60.9862 3.98557 60.4109Z" fill="#F1C274"/>
<path d="M142.482 26.284L143.325 22.8663C143.35 22.7608 143.409 22.6674 143.492 22.6011C143.575 22.5347 143.676 22.4991 143.78 22.5C143.884 22.5009 143.985 22.5382 144.066 22.606C144.148 22.6738 144.205 22.7682 144.23 22.8741L145.012 26.2817C145.193 27.0663 145.563 27.7894 146.087 28.3814C146.611 28.9735 147.272 29.4146 148.007 29.6625L149.677 30.2264C149.772 30.2584 149.854 30.3213 149.912 30.4059C149.97 30.4904 150.001 30.5922 150 30.6964C149.999 30.8006 149.966 30.9016 149.906 30.9847C149.846 31.0679 149.762 31.1287 149.666 31.1583L148.08 31.6516C147.318 31.8886 146.629 32.3328 146.084 32.939C145.538 33.5451 145.157 34.2915 144.977 35.1022L144.253 38.372C144.229 38.4797 144.171 38.5758 144.088 38.6445C144.005 38.7131 143.902 38.7504 143.797 38.75C143.691 38.7496 143.588 38.7117 143.506 38.6425C143.424 38.5733 143.366 38.4768 143.343 38.3689L142.655 35.171C142.48 34.3602 142.103 33.6122 141.563 33.003C141.023 32.3938 140.338 31.9451 139.578 31.7024L137.83 31.1442C137.737 31.1142 137.654 31.054 137.595 30.9721C137.535 30.8902 137.502 30.7908 137.5 30.6881C137.498 30.5854 137.527 30.4846 137.583 30.4C137.639 30.3155 137.719 30.2516 137.811 30.2175L139.621 29.5493C140.317 29.2923 140.943 28.86 141.441 28.2905C141.94 27.7211 142.298 27.032 142.482 26.284Z" fill="#F1C274"/>
</svg>
