<svg width="240" height="240" viewBox="0 0 240 240" fill="none" xmlns="http://www.w3.org/2000/svg">
<path d="M89.8854 193.86C92.6595 180.819 99.6836 165.784 104.734 157.145H129.887L114.735 194.786C113.765 196.76 112.916 204.659 112.613 208.361C113.583 215.272 106.351 217 102.613 217C84.2883 217 86.4549 217 78.6732 216.383C67.5557 215.501 66.3496 211.652 67.1577 209.287C67.4002 204.103 82.4105 196.843 89.8854 193.86Z" fill="#FD959B"/>
<path d="M169.003 193.86C166.229 180.819 159.205 165.784 154.154 157.145H129.002L144.154 194.786C145.124 196.76 145.972 204.659 146.275 208.361C145.306 215.272 152.538 217 156.276 217C174.6 217 172.434 217 180.216 216.383C191.333 215.501 192.539 211.652 191.731 209.287C191.489 204.103 176.478 196.843 169.003 193.86Z" fill="#FD959B"/>
<path fill-rule="evenodd" clip-rule="evenodd" d="M146.78 33.9603C139.918 33.9603 133.965 37.8776 131 43.6143C130.752 43.0558 130.473 42.5047 130.163 41.9632C125.253 33.392 114.378 30.4553 105.874 35.4039C99.9317 38.8619 96.7189 45.2552 96.998 51.7176C96.5056 51.3588 95.9902 51.0219 95.4526 50.7091C86.9484 45.7605 76.0742 48.6972 71.1643 57.2684C67.7334 63.2577 68.1227 70.4134 71.57 75.8693C70.9658 75.8068 70.3527 75.7748 69.7322 75.7748C59.9124 75.7748 51.9519 83.798 51.9519 93.6952C51.9519 100.611 55.839 106.612 61.5314 109.6C60.9772 109.85 60.4304 110.131 59.8931 110.444C51.3889 115.393 48.4752 126.353 53.3851 134.924C56.8159 140.913 63.1588 144.151 69.5703 143.87C69.2145 144.366 68.8804 144.885 68.5701 145.427C63.6602 153.998 66.5739 164.958 75.0781 169.907C81.0205 173.365 88.1201 172.973 93.5333 169.498C93.4713 170.107 93.4395 170.725 93.4395 171.35C93.4395 181.248 101.4 189.271 111.22 189.271C118.082 189.271 124.036 185.353 127 179.616C127.248 180.174 127.527 180.726 127.838 181.267C132.748 189.839 143.622 192.775 152.126 187.827C158.068 184.369 161.281 177.976 161.002 171.514C161.494 171.873 162.009 172.209 162.546 172.522C171.05 177.47 181.925 174.533 186.835 165.962C190.265 159.973 189.876 152.817 186.429 147.361C187.033 147.424 187.647 147.456 188.268 147.456C198.088 147.456 206.048 139.433 206.048 129.536C206.048 122.62 202.162 116.619 196.469 113.631C197.023 113.381 197.57 113.1 198.107 112.787C206.611 107.839 209.525 96.8787 204.615 88.3075C201.184 82.3184 194.841 79.0803 188.43 79.3611C188.786 78.8649 189.12 78.3455 189.43 77.8036C194.34 69.2324 191.427 58.2724 182.922 53.3239C176.98 49.8658 169.88 50.2583 164.466 53.7333C164.528 53.1243 164.56 52.5063 164.56 51.8808C164.56 41.9836 156.6 33.9603 146.78 33.9603Z" fill="#FEB7BB"/>
<ellipse cx="103.011" cy="115.832" rx="8.59322" ry="8.66097" fill="#FD959B"/>
<ellipse cx="154.119" cy="115.832" rx="8.59322" ry="8.66097" fill="#FD959B"/>
<ellipse cx="115.005" cy="101.358" rx="11.9331" ry="12.0272" fill="white"/>
<ellipse cx="116.632" cy="101.904" rx="9.22103" ry="9.29373" fill="#3B3B41"/>
<ellipse cx="113.378" cy="106.277" rx="2.71207" ry="2.73345" fill="white"/>
<ellipse cx="119.887" cy="97.5301" rx="4.88172" ry="4.92021" fill="white"/>
<ellipse cx="11.9331" cy="12.0272" rx="11.9331" ry="12.0272" transform="matrix(-1 0 0 1 154.415 89.3306)" fill="white"/>
<ellipse cx="140.855" cy="101.904" rx="9.22103" ry="9.29373" fill="#3B3B41"/>
<ellipse cx="137.601" cy="106.277" rx="2.71207" ry="2.73345" fill="white"/>
<ellipse cx="144.109" cy="97.5301" rx="4.88172" ry="4.92021" fill="white"/>
<path d="M129.854 145.324L128.104 118.462L106.948 119.672C100.554 120.038 101.257 126.48 102.408 129.656C106.174 141.109 119.041 145.942 129.854 145.324Z" fill="#3B3B41"/>
<path d="M129.854 145.324L128.104 118.462L149.259 117.252C155.653 116.887 155.792 123.362 155.062 126.645C152.811 138.442 140.667 144.706 129.854 145.324Z" fill="#3B3B41"/>
<path fill-rule="evenodd" clip-rule="evenodd" d="M151.797 134.717C148.618 131.184 140.711 129.495 131.968 130.861C121.191 132.545 113.225 138.231 114.174 143.562C114.207 143.749 114.251 143.933 114.305 144.114C119.002 146.17 124.308 147.004 129.196 146.725C137.748 146.236 147.133 142.215 151.797 134.717Z" fill="#D64A52"/>
<path d="M121.147 130.703C122.839 133.272 121.852 149.38 121.147 155.326C118.029 171.439 100.636 182.159 81.1363 176.799C66.5113 172.332 60.75 154.018 69.6134 143.744C68.7268 149.998 80.633 167.559 98.8638 156.251C104.625 152.678 104.461 141.644 103.874 135.341C103.592 127.35 108.104 127.849 108.809 131.417C109.514 135.341 110.571 134.271 109.866 131.06C109.514 126.422 113.661 127.136 114.097 129.633C114.943 134.485 116.212 134.271 116.212 133.201C115.084 128.919 116.917 127.849 117.974 127.849C119.384 127.849 120.677 129.752 121.147 130.703Z" fill="#FD959B"/>
<path d="M134.592 130.703C132.9 133.272 133.887 149.38 134.592 155.326C137.71 171.439 155.103 182.159 174.603 176.799C189.228 172.332 194.989 154.018 186.126 143.744C187.012 149.998 175.106 167.559 156.875 156.251C151.114 152.678 151.278 141.644 151.865 135.341C152.147 127.35 147.635 127.849 146.93 131.417C146.225 135.341 145.168 134.271 145.873 131.06C146.225 126.422 142.078 127.136 141.642 129.633C140.796 134.485 139.527 134.271 139.527 133.201C140.655 128.919 138.822 127.849 137.765 127.849C136.355 127.849 135.062 129.752 134.592 130.703Z" fill="#FD959B"/>
<path d="M43.9711 6.28765L45.3193 0.608193C45.361 0.433011 45.4553 0.277991 45.5874 0.16779C45.7195 0.0575895 45.8817 -0.0014625 46.0483 2.7521e-05C46.2148 0.00151754 46.3761 0.0634639 46.5066 0.176013C46.637 0.288562 46.729 0.44525 46.768 0.621153L48.0203 6.28372C48.3088 7.58732 48.9009 8.78849 49.7398 9.77197C50.5786 10.7554 51.6361 11.4882 52.8106 11.8999L55.4831 12.837C55.6347 12.8903 55.7667 12.9948 55.8597 13.1354C55.9526 13.2759 56.0018 13.4451 55.9999 13.6182C55.9981 13.7913 55.9453 13.9591 55.8493 14.0973C55.7533 14.2354 55.6192 14.3366 55.4665 14.386L52.9299 15.2045C51.7098 15.5984 50.6075 16.3366 49.7353 17.3438C48.8632 18.3511 48.2524 19.5914 47.965 20.9385L46.8052 26.3725C46.767 26.5514 46.6741 26.7108 46.5417 26.8248C46.4092 26.9388 46.245 27.0005 46.0761 27C45.9071 26.9994 45.7433 26.9366 45.6115 26.8218C45.4796 26.7069 45.3876 26.5469 45.3504 26.3678L44.2488 21.0536C43.9694 19.7063 43.3668 18.4634 42.5022 17.451C41.6375 16.4386 40.5416 15.6928 39.3258 15.2893L36.5286 14.3624C36.3783 14.3127 36.2462 14.2126 36.1513 14.0764C36.0564 13.9403 36.0035 13.7751 36.0002 13.6044C35.9968 13.4337 36.0431 13.2662 36.1326 13.1258C36.222 12.9854 36.35 12.8792 36.4982 12.8225L39.3938 11.7122C40.5077 11.2852 41.5079 10.567 42.3062 9.62104C43.1044 8.67506 43.6762 7.5303 43.9711 6.28765Z" fill="#F1C274"/>
<path d="M6.37691 96.6575L7.45544 92.4505C7.48876 92.3207 7.56427 92.2059 7.66994 92.1243C7.77562 92.0427 7.9054 91.9989 8.03864 92C8.17187 92.0011 8.30092 92.047 8.40524 92.1304C8.50957 92.2137 8.58318 92.3298 8.61437 92.4601L9.61626 96.6546C9.84707 97.6202 10.3207 98.51 10.9918 99.2385C11.6629 99.967 12.5089 100.51 13.4485 100.815L15.5865 101.509C15.7078 101.548 15.8133 101.626 15.8877 101.73C15.9621 101.834 16.0014 101.959 16 102.088C15.9985 102.216 15.9562 102.34 15.8795 102.442C15.8027 102.545 15.6953 102.62 15.5732 102.656L13.544 103.263C12.5678 103.554 11.686 104.101 10.9883 104.847C10.2906 105.593 9.80189 106.512 9.572 107.51L8.64416 111.535C8.61362 111.668 8.53928 111.786 8.43332 111.87C8.32736 111.955 8.19604 112 8.06086 112C7.92567 112 7.79463 111.953 7.68917 111.868C7.58371 111.783 7.51007 111.664 7.48031 111.532L6.59904 107.595C6.37553 106.597 5.89344 105.677 5.20172 104.927C4.51 104.177 3.63329 103.624 2.66063 103.325L0.422885 102.639C0.302606 102.602 0.196978 102.528 0.121065 102.427C0.0451513 102.326 0.0028302 102.204 0.000137008 102.077C-0.00255619 101.951 0.0345161 101.827 0.106067 101.723C0.177617 101.619 0.279992 101.54 0.39859 101.498L2.71501 100.676C3.6062 100.359 4.40635 99.8274 5.04494 99.1267C5.68353 98.426 6.14096 97.578 6.37691 96.6575Z" fill="#F1C274"/>
<path d="M227.971 42.0544L229.319 36.586C229.361 36.4173 229.455 36.2679 229.587 36.1617C229.719 36.0555 229.881 35.9986 230.048 36C230.215 36.0015 230.376 36.0612 230.506 36.1696C230.637 36.2781 230.729 36.4291 230.768 36.5985L232.02 42.0506C232.308 43.3061 232.9 44.463 233.739 45.4103C234.578 46.3576 235.636 47.0634 236.81 47.4601L239.483 48.3623C239.634 48.4135 239.767 48.5141 239.86 48.6494C239.953 48.7847 240.002 48.9476 240 49.1142C239.998 49.2809 239.945 49.4426 239.849 49.5756C239.753 49.7086 239.619 49.8059 239.466 49.8534L236.928 50.6426C235.708 51.0218 234.606 51.7325 233.734 52.7023C232.862 53.6722 232.251 54.8664 231.963 56.1635L230.804 61.3952C230.766 61.5676 230.673 61.7213 230.541 61.8312C230.408 61.941 230.244 62.0006 230.075 62C229.905 61.9994 229.742 61.9388 229.61 61.828C229.478 61.7172 229.386 61.5629 229.349 61.3903L228.247 56.2736C227.968 54.9764 227.366 53.7796 226.501 52.8048C225.636 51.8301 224.54 51.1121 223.324 50.7239L220.529 49.8307C220.378 49.7828 220.246 49.6864 220.151 49.5554C220.057 49.4244 220.004 49.2653 220 49.1009C219.997 48.9366 220.043 48.7753 220.132 48.6401C220.222 48.5049 220.35 48.4026 220.498 48.3479L223.394 47.2789C224.508 46.8677 225.508 46.176 226.306 45.2649C227.105 44.3538 227.676 43.2512 227.971 42.0544Z" fill="#F1C274"/>
</svg>
