<svg width="240" height="212" viewBox="0 0 240 212" fill="none" xmlns="http://www.w3.org/2000/svg">
<g clip-path="url(#clip0_821_4938)">
<path d="M89.8854 193.86C92.6595 180.819 99.6836 165.784 104.734 157.145H129.887L114.735 194.786C113.765 196.76 112.916 204.659 112.613 208.361C113.583 215.272 106.351 217 102.613 217C84.2883 217 86.4549 217 78.6732 216.383C67.5557 215.501 66.3496 211.652 67.1577 209.287C67.4002 204.103 82.4105 196.843 89.8854 193.86Z" fill="#FD959B"/>
<path d="M169.003 193.86C166.229 180.819 159.205 165.784 154.154 157.145H129.002L144.154 194.786C145.124 196.76 145.972 204.659 146.275 208.361C145.306 215.272 152.538 217 156.276 217C174.6 217 172.434 217 180.216 216.383C191.333 215.501 192.539 211.652 191.731 209.287C191.489 204.103 176.478 196.843 169.003 193.86Z" fill="#FD959B"/>
<path fill-rule="evenodd" clip-rule="evenodd" d="M146.78 33.9603C139.918 33.9603 133.965 37.8776 131 43.6143C130.752 43.0558 130.473 42.5047 130.163 41.9632C125.253 33.392 114.378 30.4553 105.874 35.4039C99.9317 38.8619 96.7189 45.2552 96.998 51.7176C96.5056 51.3588 95.9902 51.0219 95.4526 50.7091C86.9484 45.7605 76.0742 48.6972 71.1643 57.2684C67.7334 63.2577 68.1227 70.4134 71.57 75.8693C70.9658 75.8068 70.3527 75.7748 69.7322 75.7748C59.9124 75.7748 51.9519 83.798 51.9519 93.6952C51.9519 100.611 55.839 106.612 61.5314 109.6C60.9772 109.85 60.4304 110.131 59.8931 110.444C51.3889 115.393 48.4752 126.353 53.3851 134.924C56.8159 140.913 63.1588 144.151 69.5703 143.87C69.2145 144.366 68.8804 144.885 68.5701 145.427C63.6602 153.998 66.5739 164.958 75.0781 169.907C81.0205 173.365 88.1201 172.973 93.5333 169.498C93.4713 170.107 93.4395 170.725 93.4395 171.35C93.4395 181.248 101.4 189.271 111.22 189.271C118.082 189.271 124.036 185.353 127 179.616C127.248 180.174 127.527 180.726 127.838 181.267C132.748 189.839 143.622 192.775 152.126 187.827C158.068 184.369 161.281 177.976 161.002 171.514C161.494 171.873 162.009 172.209 162.546 172.522C171.05 177.47 181.925 174.533 186.835 165.962C190.265 159.973 189.876 152.817 186.429 147.361C187.033 147.424 187.647 147.456 188.268 147.456C198.088 147.456 206.048 139.433 206.048 129.536C206.048 122.62 202.162 116.619 196.469 113.631C197.023 113.381 197.57 113.1 198.107 112.787C206.611 107.839 209.525 96.8787 204.615 88.3075C201.184 82.3184 194.841 79.0803 188.43 79.3611C188.786 78.8649 189.12 78.3455 189.43 77.8036C194.34 69.2324 191.427 58.2724 182.922 53.3239C176.98 49.8658 169.88 50.2583 164.466 53.7333C164.528 53.1243 164.56 52.5063 164.56 51.8808C164.56 41.9836 156.6 33.9603 146.78 33.9603Z" fill="#FEB7BB"/>
<ellipse cx="103.011" cy="115.832" rx="8.59322" ry="8.66097" fill="#FD959B"/>
<ellipse cx="154.119" cy="115.832" rx="8.59322" ry="8.66097" fill="#FD959B"/>
<ellipse cx="115.005" cy="101.358" rx="11.9331" ry="12.0272" fill="white"/>
<ellipse cx="116.632" cy="101.904" rx="9.22103" ry="9.29373" fill="#3B3B41"/>
<ellipse cx="113.378" cy="106.277" rx="2.71207" ry="2.73345" fill="white"/>
<ellipse cx="119.887" cy="97.5301" rx="4.88172" ry="4.92021" fill="white"/>
<ellipse cx="11.9331" cy="12.0272" rx="11.9331" ry="12.0272" transform="matrix(-1 0 0 1 154.415 89.3306)" fill="white"/>
<ellipse cx="140.855" cy="101.904" rx="9.22103" ry="9.29373" fill="#3B3B41"/>
<ellipse cx="137.601" cy="106.277" rx="2.71207" ry="2.73345" fill="white"/>
<ellipse cx="144.109" cy="97.5301" rx="4.88172" ry="4.92021" fill="white"/>
<path d="M129.854 145.324L128.104 118.462L106.948 119.672C100.554 120.038 101.257 126.48 102.408 129.656C106.174 141.109 119.041 145.942 129.854 145.324Z" fill="#3B3B41"/>
<path d="M129.854 145.324L128.104 118.462L149.259 117.252C155.653 116.887 155.792 123.362 155.062 126.645C152.811 138.442 140.667 144.706 129.854 145.324Z" fill="#3B3B41"/>
<path fill-rule="evenodd" clip-rule="evenodd" d="M151.797 134.717C148.618 131.184 140.711 129.495 131.968 130.861C121.191 132.545 113.225 138.231 114.174 143.562C114.207 143.749 114.251 143.933 114.305 144.114C119.002 146.17 124.308 147.004 129.196 146.725C137.748 146.236 147.133 142.215 151.797 134.717Z" fill="#D64A52"/>
<path d="M121.147 130.703C122.839 133.272 121.852 149.38 121.147 155.326C118.029 171.439 100.636 182.159 81.1363 176.799C66.5113 172.332 60.75 154.018 69.6134 143.744C68.7268 149.998 80.633 167.559 98.8638 156.251C104.625 152.678 104.461 141.644 103.874 135.341C103.592 127.35 108.104 127.849 108.809 131.417C109.514 135.341 110.571 134.271 109.866 131.06C109.514 126.422 113.661 127.136 114.097 129.633C114.943 134.485 116.212 134.271 116.212 133.201C115.084 128.919 116.917 127.849 117.974 127.849C119.384 127.849 120.677 129.752 121.147 130.703Z" fill="#FD959B"/>
<path d="M134.592 130.703C132.9 133.272 133.887 149.38 134.592 155.326C137.71 171.439 155.103 182.159 174.603 176.799C189.228 172.332 194.989 154.018 186.126 143.744C187.012 149.998 175.106 167.559 156.875 156.251C151.114 152.678 151.278 141.644 151.865 135.341C152.147 127.35 147.635 127.849 146.93 131.417C146.225 135.341 145.168 134.271 145.873 131.06C146.225 126.422 142.078 127.136 141.642 129.633C140.796 134.485 139.527 134.271 139.527 133.201C140.655 128.919 138.822 127.849 137.765 127.849C136.355 127.849 135.062 129.752 134.592 130.703Z" fill="#FD959B"/>
<path d="M43.9711 5.55409L45.3193 0.537237C45.361 0.382493 45.4553 0.245559 45.5874 0.148215C45.7195 0.0508707 45.8817 -0.00129187 46.0483 2.43102e-05C46.2148 0.00134049 46.3761 0.0560598 46.5066 0.155478C46.637 0.254897 46.729 0.393304 46.768 0.548685L48.0203 5.55062C48.3088 6.70214 48.9009 7.76317 49.7398 8.6319C50.5786 9.50064 51.6361 10.1479 52.8106 10.5116L55.4831 11.3394C55.6347 11.3864 55.7667 11.4788 55.8597 11.6029C55.9526 11.7271 56.0018 11.8765 55.9999 12.0294C55.9981 12.1823 55.9453 12.3306 55.8493 12.4526C55.7533 12.5746 55.6192 12.664 55.4665 12.7076L52.9299 13.4306C51.7098 13.7786 50.6075 14.4307 49.7353 15.3204C48.8632 16.2101 48.2524 17.3058 47.965 18.4957L46.8052 23.2957C46.767 23.4537 46.6741 23.5945 46.5417 23.6952C46.4092 23.7959 46.245 23.8505 46.0761 23.85C45.9071 23.8495 45.7433 23.794 45.6115 23.6926C45.4796 23.5911 45.3876 23.4497 45.3504 23.2916L44.2488 18.5974C43.9694 17.4073 43.3668 16.3093 42.5022 15.415C41.6375 14.5207 40.5416 13.862 39.3258 13.5056L36.5286 12.6868C36.3783 12.6428 36.2462 12.5544 36.1513 12.4342C36.0564 12.314 36.0035 12.168 36.0002 12.0172C35.9968 11.8664 36.0431 11.7185 36.1326 11.5945C36.222 11.4704 36.35 11.3767 36.4982 11.3265L39.3938 10.3458C40.5077 9.96857 41.5079 9.3342 42.3062 8.49858C43.1044 7.66297 43.6762 6.65176 43.9711 5.55409V5.55409Z" fill="#F1C274"/>
<path d="M6.37691 85.3807L7.45544 81.6646C7.48876 81.5499 7.56427 81.4485 7.66994 81.3764C7.77562 81.3043 7.9054 81.2656 8.03864 81.2666C8.17187 81.2676 8.30092 81.3081 8.40524 81.3818C8.50957 81.4554 8.58318 81.5579 8.61437 81.673L9.61626 85.3782C9.84707 86.2311 10.3207 87.0171 10.9918 87.6606C11.6629 88.3041 12.5089 88.7836 13.4485 89.053L15.5865 89.6661C15.7078 89.701 15.8133 89.7694 15.8877 89.8613C15.9621 89.9533 16.0014 90.064 16 90.1773C15.9985 90.2905 15.9562 90.4004 15.8795 90.4908C15.8027 90.5812 15.6953 90.6474 15.5732 90.6797L13.544 91.2152C12.5678 91.473 11.686 91.956 10.9883 92.615C10.2906 93.2741 9.80189 94.0857 9.572 94.9671L8.64416 98.5227C8.61362 98.6397 8.53928 98.744 8.43332 98.8186C8.32736 98.8932 8.19604 98.9336 8.06086 98.9333C7.92567 98.9329 7.79463 98.8918 7.68917 98.8166C7.58371 98.7415 7.51007 98.6368 7.48031 98.5196L6.59904 95.0424C6.37553 94.1609 5.89344 93.3476 5.20172 92.6851C4.51 92.0227 3.63329 91.5347 2.66063 91.2707L0.422885 90.6643C0.302606 90.6317 0.196978 90.5662 0.121065 90.4771C0.0451513 90.388 0.0028302 90.28 0.000137008 90.1683C-0.00255619 90.0566 0.0345161 89.947 0.106067 89.8551C0.177617 89.7632 0.279992 89.6938 0.39859 89.6566L2.71501 88.9302C3.6062 88.6507 4.40635 88.1808 5.04494 87.5618C5.68353 86.9429 6.14096 86.1938 6.37691 85.3807V85.3807Z" fill="#F1C274"/>
<path d="M227.971 28.0544L229.319 22.586C229.361 22.4173 229.455 22.2679 229.587 22.1617C229.719 22.0555 229.881 21.9986 230.048 22C230.215 22.0015 230.376 22.0612 230.506 22.1696C230.637 22.2781 230.729 22.4291 230.768 22.5985L232.02 28.0506C232.308 29.3061 232.9 30.463 233.739 31.4103C234.578 32.3576 235.636 33.0634 236.81 33.4601L239.483 34.3623C239.634 34.4135 239.767 34.5141 239.86 34.6494C239.953 34.7847 240.002 34.9476 240 35.1142C239.998 35.2809 239.945 35.4426 239.849 35.5756C239.753 35.7086 239.619 35.8059 239.466 35.8534L236.928 36.6426C235.708 37.0218 234.606 37.7325 233.734 38.7023C232.862 39.6722 232.251 40.8664 231.963 42.1635L230.804 47.3952C230.766 47.5676 230.673 47.7213 230.541 47.8312C230.408 47.941 230.244 48.0006 230.075 48C229.905 47.9994 229.742 47.9388 229.61 47.828C229.478 47.7172 229.386 47.5629 229.349 47.3903L228.247 42.2736C227.968 40.9764 227.366 39.7796 226.501 38.8048C225.636 37.8301 224.54 37.1121 223.324 36.7239L220.529 35.8307C220.378 35.7828 220.246 35.6864 220.151 35.5554C220.057 35.4244 220.004 35.2653 220 35.1009C219.997 34.9366 220.043 34.7753 220.132 34.6401C220.222 34.5049 220.35 34.4026 220.498 34.3479L223.394 33.2789C224.508 32.8677 225.508 32.176 226.306 31.2649C227.105 30.3538 227.676 29.2512 227.971 28.0544Z" fill="#F1C274"/>
</g>
<defs>
<clipPath id="clip0_821_4938">
<rect width="240" height="212" fill="white"/>
</clipPath>
</defs>
</svg>
