<svg width="160" height="193" viewBox="0 0 160 193" fill="none" xmlns="http://www.w3.org/2000/svg">
<path d="M135.171 56.7734C112.463 10.0521 79.3494 -5.4251 41.4391 10.6439C3.52884 26.713 -0.879195 76.4038 17.498 123.152C35.8753 169.9 79.7926 202.446 123.207 182.542C166.621 162.638 157.88 103.495 135.171 56.7734Z" fill="#FCF0DE"/>
<path fill-rule="evenodd" clip-rule="evenodd" d="M90.8715 103.607C91.9295 103.924 92.5301 105.039 92.213 106.097C88.2086 119.456 81.4045 131.261 73.0004 139.842C64.6055 148.413 54.4969 153.876 43.9199 154.236C42.816 154.273 41.8908 153.409 41.8535 152.305C41.8162 151.201 42.6808 150.276 43.7848 150.238C53.0453 149.923 62.2364 145.116 70.1431 137.043C78.0407 128.979 84.5403 117.764 88.3815 104.949C88.6987 103.891 89.8135 103.29 90.8715 103.607Z" fill="#F6D9A7"/>
<path fill-rule="evenodd" clip-rule="evenodd" d="M68.3712 15.765C63.9148 16.9776 60.7377 20.5757 59.8226 24.8278C59.5627 24.5083 59.2842 24.1991 58.9871 23.9017C54.2899 19.1999 46.7112 19.2132 42.0596 23.9316C38.8091 27.2287 37.848 31.9506 39.1665 36.1005C38.7837 35.9544 38.3898 35.8266 37.9857 35.7183C31.5919 34.0055 25.047 37.8352 23.3672 44.2722C22.1933 48.7706 23.7059 53.3517 26.9055 56.2878C26.5018 56.3539 26.0977 56.4415 25.6944 56.5512C19.3172 58.2865 15.5597 64.9068 17.3019 71.3381C18.5193 75.8322 22.1 79.0448 26.3227 79.9802C26.0068 80.2408 25.7011 80.5202 25.4072 80.8184C20.7555 85.5368 20.7923 93.1733 25.4895 97.8752C28.7717 101.161 33.4609 102.144 37.5752 100.828C37.4315 101.213 37.3059 101.61 37.1998 102.016C35.52 108.453 39.3414 115.06 45.7352 116.773C50.2031 117.97 54.7449 116.46 57.6488 113.246C57.7157 113.653 57.8039 114.06 57.9141 114.467C59.6562 120.899 66.2382 124.705 72.6154 122.97C77.0719 121.757 80.2491 118.159 81.1641 113.907C81.4239 114.226 81.7023 114.535 81.9994 114.833C86.6965 119.535 94.2752 119.521 98.9269 114.803C102.177 111.506 103.138 106.784 101.82 102.634C102.202 102.78 102.596 102.908 102.999 103.016C109.393 104.729 115.938 100.899 117.618 94.4621C118.792 89.9639 117.279 85.3828 114.08 82.4467C114.484 82.3806 114.889 82.2929 115.292 82.183C121.67 80.4478 125.427 73.8275 123.685 67.3962C122.467 62.9019 118.886 59.6892 114.663 58.7539C114.979 58.4935 115.284 58.2144 115.578 57.9165C120.23 53.1981 120.193 45.5616 115.496 40.8598C112.213 37.5742 107.524 36.5911 103.409 37.9069C103.554 37.521 103.679 37.1238 103.786 36.7162C105.466 30.2792 101.644 23.6724 95.2504 21.9596C90.7827 20.7627 86.2412 22.2721 83.3373 25.4863C83.2705 25.0802 83.1824 24.6737 83.0725 24.2678C81.3304 17.8366 74.7484 14.0297 68.3712 15.765Z" fill="#FEB7BB"/>
<ellipse cx="5.68358" cy="5.69624" rx="5.68358" ry="5.69624" transform="matrix(0.964916 -0.262559 0.26146 0.965214 47.625 72.6934)" fill="#FD959B"/>
<ellipse cx="5.68358" cy="5.69624" rx="5.68358" ry="5.69624" transform="matrix(0.964916 -0.262559 0.26146 0.965214 78.3364 64.3359)" fill="#FD959B"/>
<path fill-rule="evenodd" clip-rule="evenodd" d="M48.8297 65.4987C49.6291 65.2812 50.4527 65.7531 50.6693 66.5527C51.329 68.9882 53.8213 69.9725 56.3954 69.3445C57.6408 69.0406 58.7027 68.3788 59.3417 67.5034C59.9497 66.6705 60.2538 65.5437 59.8504 64.0545C59.6338 63.2549 60.1062 62.4303 60.9056 62.2128C61.705 61.9953 62.5286 62.4672 62.7452 63.2668C63.3779 65.6027 62.9281 67.6757 61.763 69.2718C60.6288 70.8255 58.8984 71.8219 57.1032 72.2599C53.5962 73.1154 49.0144 71.9176 47.7745 67.3404C47.5579 66.5408 48.0303 65.7163 48.8297 65.4987Z" fill="#3B3B41"/>
<path fill-rule="evenodd" clip-rule="evenodd" d="M76.2755 58.03C77.0749 57.8125 77.8985 58.2844 78.1151 59.084C78.7748 61.5195 81.2671 62.5037 83.8412 61.8757C85.0866 61.5719 86.1485 60.91 86.7875 60.0347C87.3955 59.2018 87.6996 58.0749 87.2962 56.5857C87.0796 55.7861 87.552 54.9616 88.3514 54.7441C89.1508 54.5266 89.9744 54.9984 90.191 55.7981C90.8237 58.1339 90.3739 60.207 89.2088 61.8031C88.0746 63.3568 86.3442 64.3532 84.549 64.7911C81.042 65.6467 76.4602 64.4488 75.2203 59.8716C75.0037 59.072 75.4761 58.2475 76.2755 58.03Z" fill="#3B3B41"/>
<ellipse cx="7.96407" cy="7.97919" rx="7.96407" ry="7.97919" transform="matrix(0.964916 -0.262559 0.26146 0.965214 59.0874 77.2578)" fill="#FEF6F1"/>
<ellipse cx="7.96407" cy="7.97919" rx="7.96407" ry="7.97919" transform="matrix(0.964916 -0.262559 0.26146 0.965214 70.0659 74.2695)" fill="#FEF6F1"/>
<ellipse cx="5.68862" cy="5.69942" rx="5.68862" ry="5.69942" transform="matrix(0.964916 -0.262559 0.26146 0.965214 64.0747 78.2617)" fill="#F9C7A4"/>
<ellipse cx="5.68862" cy="5.69942" rx="5.68862" ry="5.69942" transform="matrix(0.964916 -0.262559 0.26146 0.965214 70.6616 76.4707)" fill="#F9C7A4"/>
<ellipse cx="3.41317" cy="3.41965" rx="3.41317" ry="3.41965" transform="matrix(0.964916 -0.262559 0.26146 0.965214 71.0547 81.2695)" stroke="#FEF6F1" stroke-width="2"/>
</svg>
