<svg width="92" height="32" viewBox="0 0 92 32" fill="none" xmlns="http://www.w3.org/2000/svg">
<mask id="path-1-outside-1_2009_5065" maskUnits="userSpaceOnUse" x="-0.5" y="0.5" width="93" height="31" fill="black">
<rect fill="white" x="-0.5" y="0.5" width="93" height="31"/>
<path d="M18.1277 10.256C18.1497 9.882 17.9737 9.728 17.5777 9.75C16.8737 9.772 15.9057 9.75 15.2677 9.662C14.1897 9.508 14.1017 8.606 14.1677 7.418C14.2337 6.23 14.5197 5.768 15.8177 5.834C16.8517 5.878 17.7097 5.878 18.6777 5.834C21.4277 5.702 22.2857 6.67 22.2197 9.046C22.1757 10.696 22.1757 13.556 22.2197 15.866C22.2417 16.944 21.3837 17.252 20.0637 17.252C18.7437 17.252 18.1497 16.944 18.1277 15.866C18.0837 13.952 18.0837 11.51 18.1277 10.256ZM9.76772 10.256C9.78972 9.882 9.61372 9.728 9.21772 9.75C8.51372 9.772 7.32572 9.772 6.68772 9.662C5.41172 9.442 5.41172 8.606 5.47772 7.418C5.54372 6.23 5.82972 5.746 7.34772 5.834C8.16172 5.878 9.56972 5.878 10.3177 5.834C13.2877 5.658 13.9257 6.67 13.8597 9.046C13.8157 10.696 13.8157 13.336 13.8597 15.646C13.8817 16.724 13.0237 17.032 11.7037 17.032C10.3837 17.032 9.78972 16.724 9.76772 15.646C9.72372 13.732 9.72372 11.51 9.76772 10.256ZM12.3197 18.638C12.3197 17.626 13.1337 17.406 14.3657 17.406C15.5977 17.406 16.4117 17.604 16.4117 18.638V21.322H16.5877C19.1397 21.476 20.7457 21.542 22.5937 21.256C23.8037 21.058 24.2877 21.652 24.3537 22.95C24.3977 23.94 24.3537 24.688 23.2977 24.908C21.2737 25.326 19.1837 25.348 14.2777 24.842C11.4177 24.556 8.99772 24.578 6.20372 24.996C4.88372 25.194 4.28972 24.6 4.28972 23.302C4.28972 22.312 4.35572 21.542 5.63172 21.3C6.92972 21.058 8.90972 20.838 12.0557 20.992L12.3197 21.014V18.638ZM27.6969 10.564C27.8069 9.464 27.8069 7.792 27.6969 6.692C27.5649 5.284 28.3129 4.932 29.6989 4.932C30.9749 4.932 31.5469 5.064 31.6789 6.472C31.7449 7.132 31.7669 8.188 31.7669 9.134C31.9209 9.068 32.1189 9.046 32.3609 9.024C33.5489 8.892 35.5509 8.98 37.1789 9.09L38.8069 9.178C38.9389 9.046 39.0049 8.914 39.0049 8.716C39.0049 8.122 38.5649 8.078 38.0369 8.078L33.2629 8.1C32.5149 8.1 32.2729 7.66 32.2509 6.692C32.2289 5.526 32.4049 5.02 33.5269 5.02L39.3349 4.976C41.3369 4.976 42.9209 5.438 42.9209 7.682C42.9209 8.342 42.8329 8.716 42.4589 9.09C42.9429 9.332 43.0749 9.904 43.0969 10.564C43.1189 11.466 42.8989 11.928 41.8869 12.104C40.7209 12.302 38.3449 12.28 37.0029 12.126C35.6389 11.972 33.3729 11.972 32.6469 12.06C31.9869 12.148 31.6129 12.06 31.3929 11.796C31.0849 12.258 30.5569 12.324 29.6989 12.324C28.5329 12.324 27.5649 11.972 27.6969 10.564ZM37.2009 17.186V17.252C37.7949 17.208 38.3229 17.186 38.7629 17.142C41.9309 16.834 43.2729 17.56 42.7889 20.596C42.8989 20.728 42.9869 20.882 43.0309 21.08C43.2949 21.96 43.0529 22.576 41.6229 22.796C38.7849 23.17 35.0009 23.28 31.8769 23.126V23.17C31.8109 23.654 31.8329 23.852 32.7349 23.852C36.1449 23.94 40.5449 23.742 41.7769 23.522C42.8109 23.346 43.4489 23.258 43.7789 24.424C44.0429 25.348 43.9329 25.964 42.8989 26.206C41.1609 26.624 32.6249 26.734 30.0729 26.47C27.9609 26.25 27.4769 25.062 27.7629 23.302L27.8729 22.598C27.5429 22.334 27.5869 21.916 27.6969 21.388C27.8509 20.684 27.9829 20.464 29.6109 20.596C32.2289 20.816 36.0129 20.904 38.8069 20.64C38.8949 20.024 38.5869 19.958 37.7949 20.002C36.0789 20.112 30.7769 20.002 29.0389 19.826C27.9829 19.716 27.7849 19.276 27.9389 18.308C28.1149 17.296 28.4669 17.032 29.5669 17.12C30.5129 17.186 31.8549 17.252 33.2409 17.274V17.186V16.174C30.3589 16.064 28.8189 16.108 26.9269 16.218C25.9369 16.284 25.4529 15.888 25.4089 14.92C25.3429 13.6 25.7389 13.182 26.6629 13.138C29.0609 13.006 31.0849 12.962 35.4849 13.182C39.8409 13.402 42.0189 13.248 43.6029 13.006C44.7029 12.83 45.4069 13.072 45.4729 14.656C45.5169 15.822 45.0549 15.976 44.1969 16.086C42.6569 16.284 40.6989 16.438 37.2009 16.328V17.186ZM60.366 10.256C60.388 9.882 60.212 9.728 59.816 9.75C59.112 9.772 58.144 9.75 57.506 9.662C56.428 9.508 56.34 8.606 56.406 7.418C56.472 6.23 56.758 5.768 58.056 5.834C59.09 5.878 59.948 5.878 60.916 5.834C63.666 5.702 64.524 6.67 64.458 9.046C64.414 10.696 64.414 13.556 64.458 15.866C64.48 16.944 63.622 17.252 62.302 17.252C60.982 17.252 60.388 16.944 60.366 15.866C60.322 13.952 60.322 11.51 60.366 10.256ZM52.006 10.256C52.028 9.882 51.852 9.728 51.456 9.75C50.752 9.772 49.564 9.772 48.926 9.662C47.65 9.442 47.65 8.606 47.716 7.418C47.782 6.23 48.068 5.746 49.586 5.834C50.4 5.878 51.808 5.878 52.556 5.834C55.526 5.658 56.164 6.67 56.098 9.046C56.054 10.696 56.054 13.336 56.098 15.646C56.12 16.724 55.262 17.032 53.942 17.032C52.622 17.032 52.028 16.724 52.006 15.646C51.962 13.732 51.962 11.51 52.006 10.256ZM54.558 18.638C54.558 17.626 55.372 17.406 56.604 17.406C57.836 17.406 58.65 17.604 58.65 18.638V21.322H58.826C61.378 21.476 62.984 21.542 64.832 21.256C66.042 21.058 66.526 21.652 66.592 22.95C66.636 23.94 66.592 24.688 65.536 24.908C63.512 25.326 61.422 25.348 56.516 24.842C53.656 24.556 51.236 24.578 48.442 24.996C47.122 25.194 46.528 24.6 46.528 23.302C46.528 22.312 46.594 21.542 47.87 21.3C49.168 21.058 51.148 20.838 54.294 20.992L54.558 21.014V18.638ZM69.9351 10.564C70.0451 9.464 70.0451 7.792 69.9351 6.692C69.8031 5.284 70.5511 4.932 71.9371 4.932C73.2131 4.932 73.7851 5.064 73.9171 6.472C73.9831 7.132 74.0051 8.188 74.0051 9.134C74.1591 9.068 74.3571 9.046 74.5991 9.024C75.7871 8.892 77.7891 8.98 79.4171 9.09L81.0451 9.178C81.1771 9.046 81.2431 8.914 81.2431 8.716C81.2431 8.122 80.8031 8.078 80.2751 8.078L75.5011 8.1C74.7531 8.1 74.5111 7.66 74.4891 6.692C74.4671 5.526 74.6431 5.02 75.7651 5.02L81.5731 4.976C83.5751 4.976 85.1591 5.438 85.1591 7.682C85.1591 8.342 85.0711 8.716 84.6971 9.09C85.1811 9.332 85.3131 9.904 85.3351 10.564C85.3571 11.466 85.1371 11.928 84.1251 12.104C82.9591 12.302 80.5831 12.28 79.2411 12.126C77.8771 11.972 75.6111 11.972 74.8851 12.06C74.2251 12.148 73.8511 12.06 73.6311 11.796C73.3231 12.258 72.7951 12.324 71.9371 12.324C70.7711 12.324 69.8031 11.972 69.9351 10.564ZM79.4391 17.186V17.252C80.0331 17.208 80.5611 17.186 81.0011 17.142C84.1691 16.834 85.5111 17.56 85.0271 20.596C85.1371 20.728 85.2251 20.882 85.2691 21.08C85.5331 21.96 85.2911 22.576 83.8611 22.796C81.0231 23.17 77.2391 23.28 74.1151 23.126V23.17C74.0491 23.654 74.0711 23.852 74.9731 23.852C78.3831 23.94 82.7831 23.742 84.0151 23.522C85.0491 23.346 85.6871 23.258 86.0171 24.424C86.2811 25.348 86.1711 25.964 85.1371 26.206C83.3991 26.624 74.8631 26.734 72.3111 26.47C70.1991 26.25 69.7151 25.062 70.0011 23.302L70.1111 22.598C69.7811 22.334 69.8251 21.916 69.9351 21.388C70.0891 20.684 70.2211 20.464 71.8491 20.596C74.4671 20.816 78.2511 20.904 81.0451 20.64C81.1331 20.024 80.8251 19.958 80.0331 20.002C78.3171 20.112 73.0151 20.002 71.2771 19.826C70.2211 19.716 70.0231 19.276 70.1771 18.308C70.3531 17.296 70.7051 17.032 71.8051 17.12C72.7511 17.186 74.0931 17.252 75.4791 17.274V17.186V16.174C72.5971 16.064 71.0571 16.108 69.1651 16.218C68.1751 16.284 67.6911 15.888 67.6471 14.92C67.5811 13.6 67.9771 13.182 68.9011 13.138C71.2991 13.006 73.3231 12.962 77.7231 13.182C82.0791 13.402 84.2571 13.248 85.8411 13.006C86.9411 12.83 87.6451 13.072 87.7111 14.656C87.7551 15.822 87.2931 15.976 86.4351 16.086C84.8951 16.284 82.9371 16.438 79.4391 16.328V17.186Z"/>
</mask>
<path d="M18.1277 10.256C18.1497 9.882 17.9737 9.728 17.5777 9.75C16.8737 9.772 15.9057 9.75 15.2677 9.662C14.1897 9.508 14.1017 8.606 14.1677 7.418C14.2337 6.23 14.5197 5.768 15.8177 5.834C16.8517 5.878 17.7097 5.878 18.6777 5.834C21.4277 5.702 22.2857 6.67 22.2197 9.046C22.1757 10.696 22.1757 13.556 22.2197 15.866C22.2417 16.944 21.3837 17.252 20.0637 17.252C18.7437 17.252 18.1497 16.944 18.1277 15.866C18.0837 13.952 18.0837 11.51 18.1277 10.256ZM9.76772 10.256C9.78972 9.882 9.61372 9.728 9.21772 9.75C8.51372 9.772 7.32572 9.772 6.68772 9.662C5.41172 9.442 5.41172 8.606 5.47772 7.418C5.54372 6.23 5.82972 5.746 7.34772 5.834C8.16172 5.878 9.56972 5.878 10.3177 5.834C13.2877 5.658 13.9257 6.67 13.8597 9.046C13.8157 10.696 13.8157 13.336 13.8597 15.646C13.8817 16.724 13.0237 17.032 11.7037 17.032C10.3837 17.032 9.78972 16.724 9.76772 15.646C9.72372 13.732 9.72372 11.51 9.76772 10.256ZM12.3197 18.638C12.3197 17.626 13.1337 17.406 14.3657 17.406C15.5977 17.406 16.4117 17.604 16.4117 18.638V21.322H16.5877C19.1397 21.476 20.7457 21.542 22.5937 21.256C23.8037 21.058 24.2877 21.652 24.3537 22.95C24.3977 23.94 24.3537 24.688 23.2977 24.908C21.2737 25.326 19.1837 25.348 14.2777 24.842C11.4177 24.556 8.99772 24.578 6.20372 24.996C4.88372 25.194 4.28972 24.6 4.28972 23.302C4.28972 22.312 4.35572 21.542 5.63172 21.3C6.92972 21.058 8.90972 20.838 12.0557 20.992L12.3197 21.014V18.638ZM27.6969 10.564C27.8069 9.464 27.8069 7.792 27.6969 6.692C27.5649 5.284 28.3129 4.932 29.6989 4.932C30.9749 4.932 31.5469 5.064 31.6789 6.472C31.7449 7.132 31.7669 8.188 31.7669 9.134C31.9209 9.068 32.1189 9.046 32.3609 9.024C33.5489 8.892 35.5509 8.98 37.1789 9.09L38.8069 9.178C38.9389 9.046 39.0049 8.914 39.0049 8.716C39.0049 8.122 38.5649 8.078 38.0369 8.078L33.2629 8.1C32.5149 8.1 32.2729 7.66 32.2509 6.692C32.2289 5.526 32.4049 5.02 33.5269 5.02L39.3349 4.976C41.3369 4.976 42.9209 5.438 42.9209 7.682C42.9209 8.342 42.8329 8.716 42.4589 9.09C42.9429 9.332 43.0749 9.904 43.0969 10.564C43.1189 11.466 42.8989 11.928 41.8869 12.104C40.7209 12.302 38.3449 12.28 37.0029 12.126C35.6389 11.972 33.3729 11.972 32.6469 12.06C31.9869 12.148 31.6129 12.06 31.3929 11.796C31.0849 12.258 30.5569 12.324 29.6989 12.324C28.5329 12.324 27.5649 11.972 27.6969 10.564ZM37.2009 17.186V17.252C37.7949 17.208 38.3229 17.186 38.7629 17.142C41.9309 16.834 43.2729 17.56 42.7889 20.596C42.8989 20.728 42.9869 20.882 43.0309 21.08C43.2949 21.96 43.0529 22.576 41.6229 22.796C38.7849 23.17 35.0009 23.28 31.8769 23.126V23.17C31.8109 23.654 31.8329 23.852 32.7349 23.852C36.1449 23.94 40.5449 23.742 41.7769 23.522C42.8109 23.346 43.4489 23.258 43.7789 24.424C44.0429 25.348 43.9329 25.964 42.8989 26.206C41.1609 26.624 32.6249 26.734 30.0729 26.47C27.9609 26.25 27.4769 25.062 27.7629 23.302L27.8729 22.598C27.5429 22.334 27.5869 21.916 27.6969 21.388C27.8509 20.684 27.9829 20.464 29.6109 20.596C32.2289 20.816 36.0129 20.904 38.8069 20.64C38.8949 20.024 38.5869 19.958 37.7949 20.002C36.0789 20.112 30.7769 20.002 29.0389 19.826C27.9829 19.716 27.7849 19.276 27.9389 18.308C28.1149 17.296 28.4669 17.032 29.5669 17.12C30.5129 17.186 31.8549 17.252 33.2409 17.274V17.186V16.174C30.3589 16.064 28.8189 16.108 26.9269 16.218C25.9369 16.284 25.4529 15.888 25.4089 14.92C25.3429 13.6 25.7389 13.182 26.6629 13.138C29.0609 13.006 31.0849 12.962 35.4849 13.182C39.8409 13.402 42.0189 13.248 43.6029 13.006C44.7029 12.83 45.4069 13.072 45.4729 14.656C45.5169 15.822 45.0549 15.976 44.1969 16.086C42.6569 16.284 40.6989 16.438 37.2009 16.328V17.186ZM60.366 10.256C60.388 9.882 60.212 9.728 59.816 9.75C59.112 9.772 58.144 9.75 57.506 9.662C56.428 9.508 56.34 8.606 56.406 7.418C56.472 6.23 56.758 5.768 58.056 5.834C59.09 5.878 59.948 5.878 60.916 5.834C63.666 5.702 64.524 6.67 64.458 9.046C64.414 10.696 64.414 13.556 64.458 15.866C64.48 16.944 63.622 17.252 62.302 17.252C60.982 17.252 60.388 16.944 60.366 15.866C60.322 13.952 60.322 11.51 60.366 10.256ZM52.006 10.256C52.028 9.882 51.852 9.728 51.456 9.75C50.752 9.772 49.564 9.772 48.926 9.662C47.65 9.442 47.65 8.606 47.716 7.418C47.782 6.23 48.068 5.746 49.586 5.834C50.4 5.878 51.808 5.878 52.556 5.834C55.526 5.658 56.164 6.67 56.098 9.046C56.054 10.696 56.054 13.336 56.098 15.646C56.12 16.724 55.262 17.032 53.942 17.032C52.622 17.032 52.028 16.724 52.006 15.646C51.962 13.732 51.962 11.51 52.006 10.256ZM54.558 18.638C54.558 17.626 55.372 17.406 56.604 17.406C57.836 17.406 58.65 17.604 58.65 18.638V21.322H58.826C61.378 21.476 62.984 21.542 64.832 21.256C66.042 21.058 66.526 21.652 66.592 22.95C66.636 23.94 66.592 24.688 65.536 24.908C63.512 25.326 61.422 25.348 56.516 24.842C53.656 24.556 51.236 24.578 48.442 24.996C47.122 25.194 46.528 24.6 46.528 23.302C46.528 22.312 46.594 21.542 47.87 21.3C49.168 21.058 51.148 20.838 54.294 20.992L54.558 21.014V18.638ZM69.9351 10.564C70.0451 9.464 70.0451 7.792 69.9351 6.692C69.8031 5.284 70.5511 4.932 71.9371 4.932C73.2131 4.932 73.7851 5.064 73.9171 6.472C73.9831 7.132 74.0051 8.188 74.0051 9.134C74.1591 9.068 74.3571 9.046 74.5991 9.024C75.7871 8.892 77.7891 8.98 79.4171 9.09L81.0451 9.178C81.1771 9.046 81.2431 8.914 81.2431 8.716C81.2431 8.122 80.8031 8.078 80.2751 8.078L75.5011 8.1C74.7531 8.1 74.5111 7.66 74.4891 6.692C74.4671 5.526 74.6431 5.02 75.7651 5.02L81.5731 4.976C83.5751 4.976 85.1591 5.438 85.1591 7.682C85.1591 8.342 85.0711 8.716 84.6971 9.09C85.1811 9.332 85.3131 9.904 85.3351 10.564C85.3571 11.466 85.1371 11.928 84.1251 12.104C82.9591 12.302 80.5831 12.28 79.2411 12.126C77.8771 11.972 75.6111 11.972 74.8851 12.06C74.2251 12.148 73.8511 12.06 73.6311 11.796C73.3231 12.258 72.7951 12.324 71.9371 12.324C70.7711 12.324 69.8031 11.972 69.9351 10.564ZM79.4391 17.186V17.252C80.0331 17.208 80.5611 17.186 81.0011 17.142C84.1691 16.834 85.5111 17.56 85.0271 20.596C85.1371 20.728 85.2251 20.882 85.2691 21.08C85.5331 21.96 85.2911 22.576 83.8611 22.796C81.0231 23.17 77.2391 23.28 74.1151 23.126V23.17C74.0491 23.654 74.0711 23.852 74.9731 23.852C78.3831 23.94 82.7831 23.742 84.0151 23.522C85.0491 23.346 85.6871 23.258 86.0171 24.424C86.2811 25.348 86.1711 25.964 85.1371 26.206C83.3991 26.624 74.8631 26.734 72.3111 26.47C70.1991 26.25 69.7151 25.062 70.0011 23.302L70.1111 22.598C69.7811 22.334 69.8251 21.916 69.9351 21.388C70.0891 20.684 70.2211 20.464 71.8491 20.596C74.4671 20.816 78.2511 20.904 81.0451 20.64C81.1331 20.024 80.8251 19.958 80.0331 20.002C78.3171 20.112 73.0151 20.002 71.2771 19.826C70.2211 19.716 70.0231 19.276 70.1771 18.308C70.3531 17.296 70.7051 17.032 71.8051 17.12C72.7511 17.186 74.0931 17.252 75.4791 17.274V17.186V16.174C72.5971 16.064 71.0571 16.108 69.1651 16.218C68.1751 16.284 67.6911 15.888 67.6471 14.92C67.5811 13.6 67.9771 13.182 68.9011 13.138C71.2991 13.006 73.3231 12.962 77.7231 13.182C82.0791 13.402 84.2571 13.248 85.8411 13.006C86.9411 12.83 87.6451 13.072 87.7111 14.656C87.7551 15.822 87.2931 15.976 86.4351 16.086C84.8951 16.284 82.9371 16.438 79.4391 16.328V17.186Z" fill="#F6D9A7"/>
<path d="M18.1277 10.256L14.1346 10.0211L14.1318 10.0684L14.1302 10.1157L18.1277 10.256ZM17.5777 9.75L17.7027 13.748L17.7512 13.7465L17.7996 13.7438L17.5777 9.75ZM15.2677 9.662L14.702 13.6218L14.7116 13.6232L14.7212 13.6245L15.2677 9.662ZM14.1677 7.418L18.1616 7.63988L18.1616 7.63988L14.1677 7.418ZM15.8177 5.834L15.6146 9.82884L15.6311 9.82968L15.6477 9.83038L15.8177 5.834ZM18.6777 5.834L18.8593 9.82989L18.8695 9.8294L18.6777 5.834ZM22.2197 9.046L18.2213 8.93493L18.2211 8.93937L22.2197 9.046ZM22.2197 15.866L18.2204 15.9422L18.2206 15.9476L22.2197 15.866ZM18.1277 15.866L22.1269 15.7844L22.1267 15.7741L18.1277 15.866ZM9.76772 10.256L5.77462 10.0211L5.77184 10.0684L5.77018 10.1157L9.76772 10.256ZM9.21772 9.75L9.34266 13.748L9.39116 13.7465L9.43961 13.7438L9.21772 9.75ZM6.68772 9.662L6.00809 13.6038L6.00809 13.6038L6.68772 9.662ZM5.47772 7.418L9.47156 7.63988L9.47156 7.63988L5.47772 7.418ZM7.34772 5.834L7.11622 9.82729L7.12402 9.82775L7.13182 9.82817L7.34772 5.834ZM10.3177 5.834L10.5526 9.8271L10.5543 9.82699L10.3177 5.834ZM13.8597 9.046L9.86126 8.93493L9.86114 8.93937L13.8597 9.046ZM13.8597 15.646L9.86044 15.7222L9.86055 15.7276L13.8597 15.646ZM9.76772 15.646L13.7669 15.5644L13.7667 15.5541L9.76772 15.646ZM16.4117 21.322H12.4117V25.322H16.4117V21.322ZM16.5877 21.322L16.8287 17.3293L16.7083 17.322H16.5877V21.322ZM22.5937 21.256L23.2055 25.2089L23.2226 25.2063L23.2397 25.2035L22.5937 21.256ZM24.3537 22.95L28.3498 22.7724L28.3492 22.7596L28.3486 22.7469L24.3537 22.95ZM23.2977 24.908L24.1067 28.8253L24.1135 28.8239L23.2977 24.908ZM14.2777 24.842L14.6881 20.8631L14.6757 20.8619L14.2777 24.842ZM6.20372 24.996L5.61188 21.04L5.61036 21.0403L6.20372 24.996ZM5.63172 21.3L4.89859 17.3677L4.88638 17.3701L5.63172 21.3ZM12.0557 20.992L12.3879 17.0058L12.3197 17.0001L12.2513 16.9968L12.0557 20.992ZM12.3197 21.014L11.9875 25.0002L16.3197 25.3612V21.014H12.3197ZM22.1208 10.4909C22.164 9.75722 22.0811 8.15014 20.7002 6.89474C19.4199 5.73086 17.9334 5.72407 17.3558 5.75616L17.7996 13.7438C17.618 13.7539 16.4175 13.8131 15.3188 12.8143C14.1193 11.7239 14.1135 10.3808 14.1346 10.0211L22.1208 10.4909ZM17.4528 5.75195C16.8577 5.77055 16.1389 5.7443 15.8143 5.69952L14.7212 13.6245C15.6725 13.7557 16.8897 13.7735 17.7027 13.748L17.4528 5.75195ZM15.8334 5.7022C16.1037 5.74081 16.5973 5.87084 17.1031 6.2682C17.6188 6.67345 17.8968 7.15985 18.0308 7.51466C18.1487 7.82689 18.1544 8.03122 18.1524 7.99965C18.151 7.97732 18.1482 7.87949 18.1616 7.63988L10.1739 7.19612C10.1432 7.7485 10.0643 9.06361 10.5466 10.3408C10.8291 11.0889 11.3271 11.9039 12.1605 12.5587C12.9838 13.2057 13.8927 13.5062 14.702 13.6218L15.8334 5.7022ZM18.1616 7.63988C18.1721 7.44988 18.1826 7.51683 18.1332 7.70015C18.077 7.90907 17.9063 8.40815 17.4362 8.90499C16.4073 9.99236 15.2204 9.8088 15.6146 9.82884L16.0208 1.83916C15.117 1.7932 13.1382 1.80764 11.6253 3.4065C10.284 4.82394 10.2054 6.62828 10.1739 7.19612L18.1616 7.63988ZM15.6477 9.83038C16.791 9.87903 17.7666 9.87954 18.8593 9.82987L18.4961 1.83813C17.6528 1.87645 16.9124 1.87696 15.9878 1.83762L15.6477 9.83038ZM18.8695 9.8294C19.3437 9.80664 19.5101 9.84575 19.4873 9.84041C19.4319 9.82742 19.1027 9.73482 18.7497 9.3995C18.3889 9.05674 18.2554 8.70032 18.219 8.56556C18.1946 8.47501 18.2318 8.55587 18.2213 8.93493L26.2182 9.15707C26.259 7.6866 26.0954 5.34339 24.2597 3.5995C22.469 1.89835 20.1194 1.76019 18.4859 1.8386L18.8695 9.8294ZM18.2211 8.93937C18.175 10.6689 18.1757 13.5932 18.2204 15.9422L26.219 15.7898C26.1757 13.5188 26.1764 10.7231 26.2183 9.15263L18.2211 8.93937ZM18.2206 15.9476C18.2151 15.6807 18.2612 15.1837 18.5623 14.629C18.8734 14.056 19.3135 13.6852 19.6851 13.4763C20.0173 13.2896 20.2612 13.2486 20.2823 13.245C20.3128 13.2397 20.2538 13.252 20.0637 13.252V21.252C20.8615 21.252 22.2859 21.1915 23.6048 20.4502C24.3532 20.0296 25.0862 19.3797 25.5932 18.4457C26.0902 17.5301 26.2353 16.5903 26.2189 15.7844L18.2206 15.9476ZM20.0637 13.252C19.8659 13.252 19.8543 13.2385 19.951 13.2568C20.0485 13.2752 20.4074 13.3536 20.8344 13.6395C21.3145 13.9609 21.6916 14.4183 21.9151 14.9264C22.1127 15.3753 22.1255 15.7153 22.1269 15.7844L14.1286 15.9476C14.1548 17.2323 14.5882 19.0849 16.3835 20.287C17.7687 21.2145 19.3192 21.252 20.0637 21.252V13.252ZM22.1267 15.7741C22.0836 13.9019 22.085 11.544 22.1253 10.3963L14.1302 10.1157C14.0825 11.476 14.0838 14.0021 14.1288 15.9579L22.1267 15.7741ZM13.7608 10.4909C13.804 9.75723 13.7211 8.15014 12.3402 6.89474C11.0599 5.73086 9.5734 5.72407 8.99583 5.75616L9.43961 13.7438C9.25804 13.7539 8.05754 13.8131 6.95878 12.8143C5.75933 11.7239 5.75346 10.3808 5.77462 10.0211L13.7608 10.4909ZM9.09278 5.75195C8.80029 5.76109 8.40168 5.76559 8.02262 5.75662C7.83416 5.75216 7.6698 5.7448 7.53772 5.73538C7.39329 5.72508 7.34473 5.71626 7.36735 5.72016L6.00809 13.6038C7.09971 13.7921 8.67223 13.769 9.34266 13.748L9.09278 5.75195ZM7.36735 5.72016C7.44658 5.73382 7.82864 5.81002 8.28135 6.13451C8.78603 6.49624 9.12238 6.98196 9.30247 7.44039C9.38209 7.64305 9.41893 7.80835 9.4364 7.90923C9.44533 7.96071 9.45007 8.00049 9.45259 8.02593C9.45511 8.05137 9.45577 8.06608 9.45584 8.06776C9.45591 8.06947 9.45555 8.06175 9.45553 8.04246C9.4555 8.02318 9.45582 7.9958 9.45687 7.95811C9.45909 7.87852 9.46374 7.78061 9.47156 7.63988L1.48388 7.19612C1.46362 7.56071 1.3247 9.01202 1.85646 10.3656C2.18781 11.209 2.75928 12.0193 3.62078 12.6367C4.43029 13.217 5.29086 13.4802 6.00809 13.6038L7.36735 5.72016ZM9.47156 7.63988C9.48251 7.44269 9.49297 7.53499 9.43273 7.74754C9.36035 8.00297 9.15713 8.53544 8.63712 9.03423C8.10997 9.53986 7.55509 9.72601 7.26024 9.78901C7.0116 9.84214 6.9169 9.81574 7.11622 9.82729L7.57921 1.8407C6.67213 1.78812 4.67123 1.75302 3.09932 3.26077C1.58672 4.71163 1.51442 6.6463 1.48388 7.19612L9.47156 7.63988ZM7.13182 9.82817C8.08304 9.87958 9.64207 9.88066 10.5526 9.8271L10.0828 1.8409C9.49736 1.87534 8.2404 1.87641 7.56362 1.83983L7.13182 9.82817ZM10.5543 9.82699C11.1003 9.79464 11.2844 9.83648 11.255 9.82985C11.1825 9.81353 10.7863 9.70307 10.384 9.29658C9.98479 8.89314 9.87155 8.49277 9.85137 8.40403C9.84097 8.35828 9.87374 8.48571 9.86126 8.93493L17.8582 9.15707C17.8926 7.91615 17.8703 5.48828 16.0704 3.66942C14.2411 1.82089 11.74 1.7427 10.0811 1.841L10.5543 9.82699ZM9.86114 8.93937C9.81502 10.6689 9.8157 13.3732 9.86044 15.7222L17.859 15.5698C17.8157 13.2988 17.8164 10.7231 17.8583 9.15263L9.86114 8.93937ZM9.86055 15.7276C9.85511 15.4607 9.90121 14.9637 10.2023 14.409C10.5134 13.836 10.9535 13.4652 11.3251 13.2563C11.6573 13.0696 11.9012 13.0286 11.9223 13.025C11.9528 13.0197 11.8938 13.032 11.7037 13.032V21.032C12.5015 21.032 13.9259 20.9715 15.2448 20.2302C15.9932 19.8096 16.7262 19.1597 17.2332 18.2257C17.7302 17.3101 17.8753 16.3703 17.8589 15.5644L9.86055 15.7276ZM11.7037 13.032C11.5059 13.032 11.4943 13.0185 11.591 13.0368C11.6885 13.0552 12.0474 13.1336 12.4744 13.4195C12.9545 13.7409 13.3316 14.1983 13.5551 14.7064C13.7527 15.1553 13.7655 15.4953 13.7669 15.5644L5.76855 15.7276C5.79477 17.0123 6.22819 18.8649 8.0235 20.067C9.40873 20.9945 10.9592 21.032 11.7037 21.032V13.032ZM13.7667 15.5541C13.7236 13.6819 13.725 11.544 13.7653 10.3963L5.77018 10.1157C5.72245 11.476 5.72382 13.7821 5.76878 15.7379L13.7667 15.5541ZM16.3197 18.638C16.3197 18.9222 16.2598 19.4568 15.9165 20.0422C15.562 20.6466 15.0765 21.0137 14.6915 21.2092C14.351 21.382 14.1075 21.4137 14.1042 21.4142C14.089 21.4164 14.1592 21.406 14.3657 21.406V13.406C13.7054 13.406 12.3451 13.4285 11.07 14.0758C10.3274 14.4528 9.56139 15.0647 9.0158 15.9949C8.48136 16.9062 8.31972 17.8478 8.31972 18.638H16.3197ZM14.3657 21.406C14.5856 21.406 14.6625 21.4161 14.654 21.4149C14.6433 21.4134 14.5839 21.4048 14.4899 21.3789C14.3961 21.353 14.2451 21.3036 14.0619 21.212C13.6645 21.0133 13.168 20.6388 12.8094 20.0234C12.4654 19.4332 12.4117 18.9013 12.4117 18.638H20.4117C20.4117 17.8577 20.2563 16.9133 19.7212 15.9951C19.1714 15.0519 18.3944 14.434 17.6396 14.0565C16.3595 13.4165 14.989 13.406 14.3657 13.406V21.406ZM12.4117 18.638V21.322H20.4117V18.638H12.4117ZM16.4117 25.322H16.5877V17.322H16.4117V25.322ZM16.3468 25.3147C18.8798 25.4676 20.8821 25.5685 23.2055 25.2089L21.982 17.3031C20.6094 17.5155 19.3997 17.4844 16.8287 17.3293L16.3468 25.3147ZM23.2397 25.2035C23.1939 25.211 22.0497 25.3652 21.047 24.3428C20.6346 23.9223 20.4659 23.5038 20.4035 23.3042C20.3444 23.1154 20.353 23.0379 20.3589 23.1531L28.3486 22.7469C28.3024 21.8383 28.0981 20.1071 26.7585 18.7412C25.1947 17.1468 23.2035 17.103 21.9478 17.3085L23.2397 25.2035ZM20.3577 23.1276C20.3676 23.3502 20.3634 23.3954 20.365 23.3719C20.3666 23.3478 20.3832 23.0792 20.5327 22.7114C20.7035 22.2912 21.0107 21.8345 21.4801 21.4745C21.9185 21.1382 22.3157 21.0267 22.4819 20.9921L24.1135 28.8239C25.6956 28.4943 27.2153 27.5162 27.9438 25.7241C28.4599 24.4543 28.3665 23.1494 28.3498 22.7724L20.3577 23.1276ZM22.4887 20.9907C21.1024 21.277 19.5302 21.3625 14.6881 20.8631L13.8673 28.8209C18.8372 29.3335 21.4451 29.375 24.1067 28.8253L22.4887 20.9907ZM14.6757 20.8619C11.5282 20.5471 8.77296 20.5671 5.61188 21.04L6.79556 28.952C9.22247 28.5889 11.3072 28.5649 13.8797 28.8221L14.6757 20.8619ZM5.61036 21.0403C5.61098 21.0402 5.62199 21.0385 5.64261 21.0369C5.66321 21.0352 5.69526 21.0334 5.73767 21.0333C5.82089 21.0332 5.95637 21.04 6.1301 21.0746C6.50105 21.1486 6.99461 21.3417 7.44757 21.7549C8.35194 22.58 8.28972 23.4871 8.28972 23.302H0.289719C0.289719 24.4149 0.524497 26.268 2.05587 27.6651C3.64383 29.1137 5.57977 29.1343 6.79708 28.9517L5.61036 21.0403ZM8.28972 23.302C8.28972 23.0659 8.29629 23.0426 8.29081 23.0876C8.28385 23.145 8.24424 23.4467 8.04853 23.832C7.8277 24.2667 7.48813 24.6512 7.07672 24.9209C6.70702 25.1633 6.41812 25.2222 6.37705 25.2299L4.88638 17.3701C3.42738 17.6468 1.81377 18.4414 0.915903 20.209C0.239409 21.5409 0.289719 22.9514 0.289719 23.302H8.28972ZM6.36485 25.2322C7.33115 25.0521 8.99794 24.8471 11.8601 24.9872L12.2513 16.9968C8.8215 16.8289 6.52829 17.0639 4.89859 17.3678L6.36485 25.2322ZM11.7235 24.9782L11.9875 25.0002L12.6519 17.0278L12.3879 17.0058L11.7235 24.9782ZM16.3197 21.014V18.638H8.31972V21.014H16.3197ZM27.6969 10.564L23.7167 10.166L23.7155 10.1783L23.7143 10.1906L27.6969 10.564ZM27.6969 6.692L23.7143 7.06536L23.7155 7.07769L23.7167 7.09001L27.6969 6.692ZM31.6789 6.472L27.6963 6.84536L27.6975 6.85769L27.6987 6.87001L31.6789 6.472ZM31.7669 9.134H27.7669V15.2001L33.3425 12.8106L31.7669 9.134ZM32.3609 9.024L32.723 13.0076L32.7628 13.0039L32.8026 12.9995L32.3609 9.024ZM37.1789 9.09L36.9092 13.0809L36.9361 13.0827L36.963 13.0842L37.1789 9.09ZM38.8069 9.178L38.591 13.1722L40.3732 13.2685L41.6353 12.0064L38.8069 9.178ZM38.0369 8.078V4.078H38.0276L38.0184 4.07804L38.0369 8.078ZM33.2629 8.1V12.1H33.2721L33.2813 12.1L33.2629 8.1ZM32.2509 6.692L28.2516 6.76746L28.2517 6.77517L28.2519 6.78289L32.2509 6.692ZM33.5269 5.02V9.02H33.542L33.5572 9.01988L33.5269 5.02ZM39.3349 4.976V0.975999H39.3197L39.3046 0.976113L39.3349 4.976ZM42.4589 9.09L39.6304 6.26157L35.7062 10.1858L40.67 12.6677L42.4589 9.09ZM43.0969 10.564L47.0957 10.4665L47.0952 10.4486L47.0946 10.4307L43.0969 10.564ZM41.8869 12.104L42.5565 16.0475L42.5644 16.0462L42.5722 16.0448L41.8869 12.104ZM37.0029 12.126L37.4589 8.15207L37.4516 8.15125L37.0029 12.126ZM32.6469 12.06L32.1655 8.08906L32.1419 8.09193L32.1182 8.09509L32.6469 12.06ZM31.3929 11.796L34.4657 9.23525L31.0362 5.11986L28.0647 9.5772L31.3929 11.796ZM37.2009 17.252H33.2009V21.5593L37.4963 21.2411L37.2009 17.252ZM38.7629 17.142L38.3758 13.1608L38.3648 13.1619L38.7629 17.142ZM42.7889 20.596L38.8387 19.9663L38.5527 21.7608L39.716 23.1568L42.7889 20.596ZM43.0309 21.08L39.1261 21.9477L39.1577 22.0899L39.1996 22.2294L43.0309 21.08ZM41.6229 22.796L42.1455 26.7617L42.1883 26.7561L42.2311 26.7495L41.6229 22.796ZM31.8769 23.126L32.0738 19.1309L27.8769 18.924V23.126H31.8769ZM31.8769 23.17L35.8402 23.7105L35.8769 23.4415V23.17H31.8769ZM32.7349 23.852L32.8381 19.8533L32.7865 19.852H32.7349V23.852ZM41.7769 23.522L41.1057 19.5787L41.0897 19.5814L41.0737 19.5843L41.7769 23.522ZM43.7789 24.424L39.93 25.5133L39.9328 25.5229L43.7789 24.424ZM42.8989 26.206L41.9873 22.3112L41.9754 22.314L41.9635 22.3169L42.8989 26.206ZM30.0729 26.47L29.6584 30.4485L29.6613 30.4488L30.0729 26.47ZM27.7629 23.302L31.7111 23.9436L31.713 23.9316L31.7149 23.9195L27.7629 23.302ZM27.8729 22.598L31.8249 23.2155L32.183 20.9236L30.3716 19.4745L27.8729 22.598ZM27.6969 21.388L23.7893 20.5332L23.785 20.5527L23.7809 20.5722L27.6969 21.388ZM29.6109 20.596L29.9458 16.61L29.9341 16.6091L29.6109 20.596ZM38.8069 20.64L39.1831 24.6223L42.3209 24.3258L42.7667 21.2057L38.8069 20.64ZM37.7949 20.002L37.573 16.0082L37.556 16.0091L37.539 16.0102L37.7949 20.002ZM29.0389 19.826L28.6244 23.8045L28.6359 23.8056L29.0389 19.826ZM27.9389 18.308L23.998 17.6226L23.9931 17.6511L23.9885 17.6795L27.9389 18.308ZM29.5669 17.12L29.2479 21.1073L29.2682 21.1089L29.2885 21.1103L29.5669 17.12ZM33.2409 17.274L33.1774 21.2735L37.2409 21.338V17.274H33.2409ZM33.2409 16.174H37.2409V12.3238L33.3934 12.1769L33.2409 16.174ZM26.9269 16.218L26.6947 12.2247L26.6777 12.2257L26.6608 12.2269L26.9269 16.218ZM25.4089 14.92L29.4047 14.7384L29.4043 14.7293L29.4039 14.7202L25.4089 14.92ZM26.6629 13.138L26.8531 17.1335L26.8679 17.1328L26.8827 17.132L26.6629 13.138ZM35.4849 13.182L35.6866 9.18709L35.6846 9.18699L35.4849 13.182ZM43.6029 13.006L44.207 16.9601L44.2209 16.958L44.2348 16.9558L43.6029 13.006ZM45.4729 14.656L49.47 14.5052L49.4697 14.4973L49.4694 14.4895L45.4729 14.656ZM44.1969 16.086L43.6882 12.1185L43.6868 12.1187L44.1969 16.086ZM37.2009 16.328L37.3266 12.33L33.2009 12.2002V16.328H37.2009ZM31.677 10.962C31.8135 9.59733 31.8135 7.65867 31.677 6.29398L23.7167 7.09001C23.8002 7.92533 23.8002 9.33067 23.7167 10.166L31.677 10.962ZM31.6794 6.31864C31.6796 6.32116 31.686 6.38746 31.6775 6.50302C31.669 6.61983 31.6441 6.80441 31.5721 7.0316C31.4098 7.54373 31.0721 8.06695 30.565 8.45638C30.114 8.80273 29.7146 8.90065 29.6016 8.92428C29.4909 8.94745 29.4951 8.932 29.6989 8.932V0.931999C28.928 0.931999 27.1786 0.970041 25.6922 2.11162C23.8025 3.56292 23.5847 5.68316 23.7143 7.06536L31.6794 6.31864ZM29.6989 8.932C29.992 8.932 30.0206 8.94297 29.9493 8.93255C29.8631 8.91993 29.4302 8.85033 28.9258 8.51984C28.3569 8.14717 28.0081 7.65059 27.8292 7.24191C27.6837 6.90982 27.684 6.71392 27.6963 6.84536L35.6614 6.09864C35.5627 5.04573 35.1997 3.06625 33.31 1.82815C32.4865 1.28866 31.6632 1.09806 31.1066 1.0167C30.5651 0.937529 30.0437 0.931999 29.6989 0.931999V8.932ZM27.6987 6.87001C27.7429 7.31198 27.7669 8.19079 27.7669 9.134H35.7669C35.7669 8.18521 35.7468 6.95201 35.659 6.07399L27.6987 6.87001ZM33.3425 12.8106C33.0132 12.9517 32.7564 12.9967 32.6885 13.0081C32.6463 13.0151 32.6241 13.0173 32.6348 13.0161C32.6462 13.0148 32.6696 13.0124 32.723 13.0076L31.9987 5.04043C31.8982 5.04956 31.0338 5.09629 30.1912 5.45741L33.3425 12.8106ZM32.8026 12.9995C33.5775 12.9134 35.224 12.967 36.9092 13.0809L37.4485 5.0991C35.8777 4.99296 33.5202 4.87057 31.9191 5.04846L32.8026 12.9995ZM36.963 13.0842L38.591 13.1722L39.0228 5.18383L37.3948 5.09583L36.963 13.0842ZM41.6353 12.0064C41.9374 11.7043 42.3231 11.2432 42.6106 10.5963C42.9058 9.93201 43.0049 9.28173 43.0049 8.716H35.0049C35.0049 8.34827 35.0709 7.86299 35.3001 7.3472C35.5216 6.84879 35.8083 6.5197 35.9784 6.34956L41.6353 12.0064ZM43.0049 8.716C43.0049 8.08847 42.8895 7.24638 42.4109 6.39884C41.9063 5.5053 41.1755 4.91966 40.4626 4.57432C39.3322 4.02678 38.1602 4.078 38.0369 4.078V12.078C38.1402 12.078 38.0751 12.082 37.9497 12.0675C37.8336 12.054 37.4472 12.0028 36.9751 11.7742C36.4382 11.5141 35.8504 11.0508 35.4448 10.3326C35.0652 9.66037 35.0049 9.04652 35.0049 8.716H43.0049ZM38.0184 4.07804L33.2444 4.10004L33.2813 12.1L38.0553 12.078L38.0184 4.07804ZM33.2629 4.1C33.4485 4.1 33.8797 4.12466 34.4022 4.35443C34.977 4.60716 35.4596 5.01946 35.7945 5.51299C36.0956 5.95669 36.1949 6.34327 36.2267 6.49366C36.2588 6.64555 36.2522 6.70442 36.2498 6.60111L28.2519 6.78289C28.2654 7.37794 28.3242 8.75168 29.1747 10.005C30.3062 11.6725 32.034 12.1 33.2629 12.1V4.1ZM36.2501 6.61654C36.246 6.3956 36.2578 6.4035 36.241 6.51804C36.2242 6.63276 36.1461 7.10052 35.7881 7.63755C35.3767 8.25458 34.8043 8.65546 34.2636 8.85955C34.0272 8.94881 33.8346 8.98658 33.7179 9.00336C33.6016 9.02007 33.5317 9.02 33.5269 9.02V1.02C32.5114 1.02 30.4383 1.24005 29.1317 3.19995C28.1634 4.65236 28.2431 6.31756 28.2516 6.76746L36.2501 6.61654ZM33.5572 9.01988L39.3652 8.97588L39.3046 0.976113L33.4966 1.02011L33.5572 9.01988ZM39.3349 8.976C39.6997 8.976 39.9138 8.99861 40.0226 9.01843C40.1345 9.03883 40.0113 9.03452 39.7887 8.89811C39.5232 8.73545 39.2451 8.46205 39.0657 8.10409C38.9035 7.78017 38.9209 7.58389 38.9209 7.682H46.9209C46.9209 5.4616 46.0318 3.34119 43.9685 2.07689C42.3219 1.0679 40.4622 0.975999 39.3349 0.975999V8.976ZM38.9209 7.682C38.9209 7.88864 38.8983 7.66902 39.008 7.31359C39.0701 7.11247 39.1632 6.90022 39.2908 6.69469C39.4154 6.49413 39.5414 6.35059 39.6304 6.26157L45.2873 11.9184C45.8814 11.3243 46.3703 10.5863 46.6522 9.67291C46.8994 8.87198 46.9209 8.13535 46.9209 7.682H38.9209ZM40.67 12.6677C39.7976 12.2315 39.3725 11.5177 39.2075 11.0792C39.0767 10.7317 39.0935 10.5307 39.0991 10.6973L47.0946 10.4307C47.0746 9.8288 46.9974 6.88711 44.2477 5.51229L40.67 12.6677ZM39.0981 10.6615C39.105 10.9455 39.0055 10.1482 39.6247 9.2813C39.9583 8.81425 40.3643 8.51648 40.702 8.34584C40.8581 8.26696 40.9862 8.22174 41.0676 8.19702C41.1485 8.17242 41.1973 8.16388 41.2015 8.16315L42.5722 16.0448C43.5231 15.8795 45.0677 15.4248 46.1345 13.9312C47.1113 12.5638 47.1107 11.0845 47.0957 10.4665L39.0981 10.6615ZM41.2172 8.16045C40.5528 8.27328 38.5842 8.28121 37.4589 8.15208L36.5468 16.0999C38.1056 16.2788 40.8889 16.3307 42.5565 16.0475L41.2172 8.16045ZM37.4516 8.15125C35.8581 7.97133 33.2708 7.95509 32.1655 8.08906L33.1282 16.0309C33.1241 16.0314 33.2552 16.0188 33.5606 16.0098C33.8355 16.0016 34.1759 15.9984 34.5457 16.0021C35.3113 16.0097 36.0659 16.0456 36.5541 16.1007L37.4516 8.15125ZM32.1182 8.09509C32.0055 8.11012 32.2642 8.05607 32.7002 8.15034C33.2468 8.26852 33.9293 8.59157 34.4657 9.23525L28.32 14.3567C29.9475 16.3097 32.2461 16.1488 33.1755 16.0249L32.1182 8.09509ZM28.0647 9.5772C28.2681 9.2721 28.5466 8.98198 28.8927 8.75018C29.2253 8.52735 29.5281 8.42 29.7191 8.36895C29.8975 8.32126 30.0037 8.31608 29.9766 8.31816C29.9511 8.32012 29.8743 8.324 29.6989 8.324V16.324C30.1256 16.324 30.9472 16.3216 31.7851 16.0976C32.8203 15.8208 33.9313 15.1994 34.7211 14.0148L28.0647 9.5772ZM29.6989 8.324C29.5912 8.324 29.6148 8.31424 29.7264 8.33853C29.835 8.36218 30.1541 8.44547 30.5292 8.71218C30.9462 9.00872 31.3079 9.44616 31.5149 9.97519C31.706 10.4634 31.6892 10.8329 31.6794 10.9374L23.7143 10.1906C23.5491 11.9525 24.0887 13.9488 25.893 15.2318C27.3088 16.2386 28.8932 16.324 29.6989 16.324V8.324ZM33.2009 17.186V17.252H41.2009V17.186H33.2009ZM37.4963 21.2411C37.8819 21.2125 38.677 21.1705 39.1609 21.1221L38.3648 13.1619C37.9688 13.2015 37.7078 13.2035 36.9054 13.2629L37.4963 21.2411ZM39.1499 21.1232C39.7997 21.0601 40.1445 21.074 40.2884 21.0924C40.4353 21.1112 40.1129 21.1021 39.6878 20.771C39.4665 20.5987 39.2737 20.3813 39.1287 20.1385C38.9881 19.903 38.9271 19.7022 38.9019 19.5871C38.8781 19.4785 38.8858 19.4451 38.885 19.5189C38.8842 19.5919 38.8755 19.7355 38.8387 19.9663L46.739 21.2257C47.0338 19.3761 47.0977 16.4016 44.6029 14.459C43.5068 13.6054 42.2852 13.2828 41.3045 13.1572C40.3209 13.0313 39.31 13.0699 38.3758 13.1608L39.1499 21.1232ZM39.716 23.1568C39.4933 22.8895 39.244 22.4782 39.1261 21.9477L46.9356 20.2123C46.7297 19.2858 46.3044 18.5665 45.8617 18.0352L39.716 23.1568ZM39.1996 22.2294C39.1891 22.1945 39.1094 21.9292 39.127 21.5176C39.1468 21.0533 39.2912 20.4484 39.6968 19.8751C40.4547 18.804 41.4219 18.7799 41.0146 18.8425L42.2311 26.7495C43.2538 26.5921 45.057 26.15 46.2274 24.4959C47.5028 22.6933 47.1198 20.7893 46.8622 19.9306L39.1996 22.2294ZM41.1002 18.8303C38.5431 19.1673 35.0044 19.2753 32.0738 19.1309L31.6799 27.1211C34.9973 27.2847 39.0266 27.1727 42.1455 26.7617L41.1002 18.8303ZM27.8769 23.126V23.17H35.8769V23.126H27.8769ZM27.9135 22.6295C27.9009 22.7219 27.8234 23.2252 27.8688 23.7972C27.9238 24.4911 28.1787 25.5852 29.1144 26.5209C29.9558 27.3623 30.9153 27.6314 31.4103 27.7325C31.9269 27.8381 32.4087 27.852 32.7349 27.852V19.852C32.61 19.852 32.7508 19.8412 33.0117 19.8945C33.2509 19.9433 34.0399 20.1327 34.7713 20.8641C35.597 21.6898 35.8024 22.6437 35.8437 23.1643C35.8753 23.5631 35.8198 23.8601 35.8402 23.7105L27.9135 22.6295ZM32.6317 27.8507C36.0834 27.9397 40.825 27.7552 42.48 27.4597L41.0737 19.5843C40.2647 19.7288 36.2064 19.9403 32.8381 19.8533L32.6317 27.8507ZM42.4481 27.4653C42.7392 27.4157 42.7788 27.4135 42.7598 27.4149C42.7343 27.4167 42.3656 27.4471 41.8633 27.2922C41.2668 27.1083 40.7305 26.7423 40.3488 26.2652C40.0243 25.8596 39.9335 25.5256 39.93 25.5133L47.6277 23.3347C47.2717 22.077 46.3675 20.3093 44.2204 19.6473C43.3881 19.3907 42.6454 19.4032 42.1991 19.4346C41.7594 19.4655 41.3315 19.5403 41.1057 19.5787L42.4481 27.4653ZM39.9328 25.5229C39.953 25.5937 39.9161 25.4927 39.9043 25.2805C39.892 25.0585 39.9004 24.5963 40.1283 24.0443C40.3748 23.4472 40.7799 22.984 41.2144 22.6795C41.6021 22.4079 41.9181 22.3275 41.9873 22.3112L43.8104 30.1008C44.9895 29.8248 46.7128 29.0593 47.5229 27.0972C48.1931 25.4739 47.8029 23.9478 47.625 23.3251L39.9328 25.5229ZM41.9635 22.3169C42.0118 22.3053 41.9025 22.3315 41.5357 22.3701C41.2104 22.4042 40.7882 22.4375 40.2813 22.4679C39.2698 22.5285 38.0195 22.5716 36.7211 22.5944C34.0452 22.6412 31.493 22.5956 30.4845 22.4912L29.6613 30.4488C31.2047 30.6084 34.1965 30.6398 36.8611 30.5931C38.233 30.5691 39.6021 30.5229 40.7596 30.4536C41.7907 30.3918 43.001 30.2955 43.8342 30.0951L41.9635 22.3169ZM30.4873 22.4915C30.2937 22.4714 30.3677 22.4505 30.5768 22.5556C30.8224 22.679 31.1396 22.9204 31.3855 23.3039C31.6176 23.6657 31.6721 23.9757 31.6841 24.0896C31.6944 24.1868 31.6764 24.1569 31.7111 23.9436L23.8146 22.6604C23.6165 23.8798 23.5031 25.8324 24.6517 27.6231C25.9086 29.5826 27.9469 30.2702 29.6584 30.4485L30.4873 22.4915ZM31.7149 23.9195L31.8249 23.2155L23.9208 21.9805L23.8108 22.6845L31.7149 23.9195ZM30.3716 19.4745C30.7463 19.7743 31.0713 20.1708 31.2972 20.6418C31.5137 21.0932 31.5849 21.4986 31.6068 21.7687C31.6418 22.2012 31.5562 22.4753 31.6128 22.2038L23.7809 20.5722C23.7275 20.8287 23.5649 21.5758 23.6329 22.4153C23.7182 23.4673 24.1704 24.7585 25.3741 25.7215L30.3716 19.4745ZM31.6045 22.2428C31.6485 22.0413 31.5996 22.3622 31.4013 22.7542C31.2792 22.9956 31.0897 23.2938 30.8033 23.5872C30.5125 23.8851 30.1906 24.1075 29.8745 24.2639C29.5723 24.4134 29.3134 24.4839 29.1498 24.5181C28.9888 24.5518 28.882 24.5582 28.8607 24.5593C28.8378 24.5606 28.9429 24.555 29.2876 24.5829L29.9341 16.6091C29.4648 16.571 28.943 16.5434 28.4326 16.5708C27.9525 16.5965 27.157 16.6829 26.3277 17.0931C24.1638 18.1634 23.8309 20.3429 23.7893 20.5332L31.6045 22.2428ZM29.2759 24.582C32.0416 24.8144 36.0778 24.9157 39.1831 24.6223L38.4306 16.6577C35.9479 16.8923 32.4161 16.8176 29.9458 16.61L29.2759 24.582ZM42.7667 21.2057C42.8249 20.7976 42.901 19.9931 42.6141 19.0779C42.2663 17.9682 41.5065 17.0739 40.5132 16.5441C39.7 16.1104 38.9325 16.0308 38.576 16.0061C38.1776 15.9785 37.805 15.9953 37.573 16.0082L38.0167 23.9958C38.1807 23.9867 38.1436 23.9953 38.0229 23.9869C37.9443 23.9815 37.3967 23.9486 36.7485 23.6029C35.9202 23.1611 35.2704 22.396 34.9803 21.4706C34.7512 20.7397 34.8328 20.1744 34.8471 20.0743L42.7667 21.2057ZM37.539 16.0102C36.0525 16.1055 30.9711 16.0012 29.4419 15.8464L28.6359 23.8056C30.5826 24.0028 36.1052 24.1185 38.0507 23.9938L37.539 16.0102ZM29.4533 15.8475C29.2249 15.8237 30.4996 15.8671 31.3691 17.1786C31.7703 17.7838 31.8646 18.3521 31.8861 18.6395C31.9056 18.9002 31.8734 19.0356 31.8892 18.9365L23.9885 17.6795C23.901 18.2296 23.6249 19.9754 24.7012 21.5989C25.8951 23.3999 27.7968 23.7183 28.6244 23.8045L29.4533 15.8475ZM31.8797 18.9934C31.9394 18.6501 31.8631 19.7269 30.7718 20.5271C30.2383 20.9184 29.7276 21.0433 29.4588 21.0831C29.2241 21.1178 29.114 21.0966 29.2479 21.1073L29.8858 13.1327C29.2389 13.081 27.5522 12.9676 26.0409 14.0759C24.4547 15.2391 24.1143 16.9539 23.998 17.6226L31.8797 18.9934ZM29.2885 21.1103C30.3002 21.1809 31.7141 21.2503 33.1774 21.2735L33.3043 13.2745C31.9956 13.2537 30.7255 13.1911 29.8453 13.1297L29.2885 21.1103ZM37.2409 17.274V17.186H29.2409V17.274H37.2409ZM37.2409 17.186V16.174H29.2409V17.186H37.2409ZM33.3934 12.1769C30.3767 12.0618 28.7081 12.1077 26.6947 12.2247L27.159 20.2113C28.9296 20.1083 30.3411 20.0662 33.0883 20.1711L33.3934 12.1769ZM26.6608 12.2269C26.6818 12.2255 26.8794 12.2124 27.1819 12.2826C27.5069 12.3579 27.9583 12.5321 28.3969 12.9032C29.3397 13.701 29.4011 14.6574 29.4047 14.7384L21.413 15.1016C21.4607 16.1506 21.786 17.789 23.2293 19.0103C24.6226 20.1892 26.2354 20.273 27.1929 20.2091L26.6608 12.2269ZM29.4039 14.7202C29.3966 14.5756 29.4138 14.6399 29.3785 14.828C29.3407 15.0295 29.2238 15.4715 28.8646 15.9505C28.0152 17.0831 26.8667 17.1328 26.8531 17.1335L26.4726 9.14253C25.535 9.18717 23.7265 9.46793 22.4646 11.1505C21.378 12.5993 21.3706 14.2539 21.4139 15.1198L29.4039 14.7202ZM26.8827 17.132C29.1279 17.0084 31.0112 16.9633 35.2851 17.177L35.6846 9.18699C31.1586 8.96069 28.9939 9.00363 26.443 9.14405L26.8827 17.132ZM35.2831 17.1769C39.8001 17.405 42.2672 17.2565 44.207 16.9601L42.9988 9.05188C41.7705 9.23952 39.8816 9.39896 35.6866 9.18709L35.2831 17.1769ZM44.2348 16.9558C44.3361 16.9396 44.2043 16.9728 43.9427 16.946C43.6484 16.9159 43.1094 16.8003 42.5566 16.394C41.3823 15.5309 41.4591 14.4086 41.4763 14.8225L49.4694 14.4895C49.4206 13.3193 49.1124 11.2841 47.2946 9.94801C45.5825 8.68953 43.681 8.94263 42.9709 9.05624L44.2348 16.9558ZM41.4757 14.8068C41.4842 15.033 41.3613 13.829 42.4787 12.8106C42.9653 12.3672 43.4433 12.1994 43.6335 12.1433C43.7963 12.0953 43.8756 12.0945 43.6882 12.1185L44.7055 20.0535C44.9503 20.0221 46.5794 19.8974 47.8675 18.7234C49.4194 17.309 49.5055 15.445 49.47 14.5052L41.4757 14.8068ZM43.6868 12.1187C42.3784 12.2869 40.6342 12.434 37.3266 12.33L37.0751 20.326C40.7635 20.442 42.9354 20.2811 44.7069 20.0533L43.6868 12.1187ZM33.2009 16.328V17.186H41.2009V16.328H33.2009ZM60.366 10.256L56.3729 10.0211L56.3701 10.0684L56.3685 10.1157L60.366 10.256ZM59.816 9.75L59.9409 13.748L59.9894 13.7465L60.0379 13.7438L59.816 9.75ZM57.506 9.662L56.9403 13.6218L56.9499 13.6232L56.9595 13.6245L57.506 9.662ZM56.406 7.418L60.3998 7.63988L60.3998 7.63988L56.406 7.418ZM58.056 5.834L57.8529 9.82884L57.8694 9.82968L57.8859 9.83038L58.056 5.834ZM60.916 5.834L61.0976 9.82989L61.1078 9.8294L60.916 5.834ZM64.458 9.046L60.4595 8.93493L60.4594 8.93937L64.458 9.046ZM64.458 15.866L60.4587 15.9422L60.4588 15.9476L64.458 15.866ZM60.366 15.866L64.3652 15.7844L64.3649 15.7741L60.366 15.866ZM52.006 10.256L48.0129 10.0211L48.0101 10.0684L48.0085 10.1157L52.006 10.256ZM51.456 9.75L51.5809 13.748L51.6294 13.7465L51.6779 13.7438L51.456 9.75ZM48.926 9.662L48.2464 13.6038L48.2464 13.6038L48.926 9.662ZM47.716 7.418L51.7098 7.63988L51.7098 7.63988L47.716 7.418ZM49.586 5.834L49.3545 9.82729L49.3623 9.82775L49.3701 9.82817L49.586 5.834ZM52.556 5.834L52.7909 9.8271L52.7926 9.82699L52.556 5.834ZM56.098 9.046L52.0995 8.93493L52.0994 8.93937L56.098 9.046ZM56.098 15.646L52.0987 15.7222L52.0988 15.7276L56.098 15.646ZM52.006 15.646L56.0052 15.5644L56.0049 15.5541L52.006 15.646ZM58.65 21.322H54.65V25.322H58.65V21.322ZM58.826 21.322L59.0669 17.3293L58.9466 17.322H58.826V21.322ZM64.832 21.256L65.4438 25.2089L65.4609 25.2063L65.478 25.2035L64.832 21.256ZM66.592 22.95L70.5881 22.7724L70.5875 22.7596L70.5868 22.7469L66.592 22.95ZM65.536 24.908L66.345 28.8253L66.3518 28.8239L65.536 24.908ZM56.516 24.842L56.9264 20.8631L56.914 20.8619L56.516 24.842ZM48.442 24.996L47.8502 21.04L47.8486 21.0403L48.442 24.996ZM47.87 21.3L47.1369 17.3677L47.1247 17.3701L47.87 21.3ZM54.294 20.992L54.6262 17.0058L54.558 17.0001L54.4896 16.9968L54.294 20.992ZM54.558 21.014L54.2258 25.0002L58.558 25.3612V21.014H54.558ZM64.3591 10.4909C64.4023 9.75722 64.3194 8.15014 62.9384 6.89474C61.6582 5.73086 60.1717 5.72407 59.5941 5.75616L60.0379 13.7438C59.8563 13.7539 58.6558 13.8131 57.5571 12.8143C56.3576 11.7239 56.3517 10.3808 56.3729 10.0211L64.3591 10.4909ZM59.6911 5.75195C59.096 5.77055 58.3772 5.7443 58.0525 5.69952L56.9595 13.6245C57.9108 13.7557 59.128 13.7735 59.9409 13.748L59.6911 5.75195ZM58.0717 5.7022C58.342 5.74081 58.8356 5.87084 59.3414 6.2682C59.8571 6.67345 60.1351 7.15985 60.2691 7.51466C60.387 7.82689 60.3927 8.03122 60.3907 7.99965C60.3893 7.97732 60.3865 7.87949 60.3998 7.63988L52.4122 7.19612C52.3815 7.7485 52.3026 9.06361 52.7849 10.3408C53.0674 11.0889 53.5654 11.9039 54.3988 12.5587C55.2221 13.2057 56.131 13.5062 56.9403 13.6218L58.0717 5.7022ZM60.3998 7.63988C60.4104 7.44988 60.4209 7.51683 60.3715 7.70015C60.3153 7.90907 60.1446 8.40815 59.6745 8.90499C58.6455 9.99236 57.4587 9.8088 57.8529 9.82884L58.2591 1.83916C57.3553 1.7932 55.3765 1.80764 53.8635 3.4065C52.5223 4.82394 52.4437 6.62828 52.4122 7.19612L60.3998 7.63988ZM57.8859 9.83038C59.0293 9.87903 60.0049 9.87954 61.0976 9.82987L60.7344 1.83813C59.8911 1.87645 59.1507 1.87696 58.2261 1.83762L57.8859 9.83038ZM61.1078 9.8294C61.5819 9.80664 61.7484 9.84575 61.7256 9.84041C61.6702 9.82742 61.341 9.73482 60.988 9.3995C60.6272 9.05674 60.4937 8.70032 60.4573 8.56556C60.4329 8.47501 60.4701 8.55587 60.4595 8.93493L68.4565 9.15707C68.4973 7.6866 68.3337 5.34339 66.498 3.5995C64.7073 1.89835 62.3577 1.76019 60.7242 1.8386L61.1078 9.8294ZM60.4594 8.93937C60.4133 10.6689 60.414 13.5932 60.4587 15.9422L68.4573 15.7898C68.414 13.5188 68.4147 10.7231 68.4566 9.15263L60.4594 8.93937ZM60.4588 15.9476C60.4534 15.6807 60.4995 15.1837 60.8006 14.629C61.1117 14.056 61.5518 13.6852 61.9234 13.4763C62.2556 13.2896 62.4995 13.2486 62.5206 13.245C62.5511 13.2397 62.4921 13.252 62.302 13.252V21.252C63.0998 21.252 64.5241 21.1915 65.8431 20.4502C66.5915 20.0296 67.3244 19.3797 67.8314 18.4457C68.3285 17.5301 68.4736 16.5903 68.4572 15.7844L60.4588 15.9476ZM62.302 13.252C62.1042 13.252 62.0926 13.2385 62.1893 13.2568C62.2868 13.2752 62.6457 13.3536 63.0727 13.6395C63.5527 13.9609 63.9299 14.4183 64.1534 14.9264C64.3509 15.3753 64.3638 15.7153 64.3652 15.7844L56.3668 15.9476C56.3931 17.2323 56.8265 19.0849 58.6218 20.287C60.007 21.2145 61.5575 21.252 62.302 21.252V13.252ZM64.3649 15.7741C64.3219 13.9019 64.3233 11.544 64.3635 10.3963L56.3685 10.1157C56.3207 11.476 56.3221 14.0021 56.3671 15.9579L64.3649 15.7741ZM55.9991 10.4909C56.0423 9.75723 55.9594 8.15014 54.5784 6.89474C53.2982 5.73086 51.8117 5.72407 51.2341 5.75616L51.6779 13.7438C51.4963 13.7539 50.2958 13.8131 49.1971 12.8143C47.9976 11.7239 47.9917 10.3808 48.0129 10.0211L55.9991 10.4909ZM51.3311 5.75195C51.0386 5.76109 50.64 5.76559 50.2609 5.75662C50.0724 5.75216 49.9081 5.7448 49.776 5.73538C49.6316 5.72508 49.583 5.71626 49.6056 5.72016L48.2464 13.6038C49.338 13.7921 50.9105 13.769 51.5809 13.748L51.3311 5.75195ZM49.6056 5.72016C49.6849 5.73382 50.0669 5.81002 50.5196 6.13451C51.0243 6.49624 51.3607 6.98196 51.5408 7.44039C51.6204 7.64305 51.6572 7.80835 51.6747 7.90923C51.6836 7.96071 51.6884 8.00049 51.6909 8.02593C51.6934 8.05137 51.694 8.06608 51.6941 8.06776C51.6942 8.06947 51.6938 8.06175 51.6938 8.04246C51.6938 8.02318 51.6941 7.9958 51.6951 7.95811C51.6974 7.87852 51.702 7.78061 51.7098 7.63988L43.7222 7.19612C43.7019 7.56071 43.563 9.01202 44.0947 10.3656C44.4261 11.209 44.9976 12.0193 45.8591 12.6367C46.6686 13.217 47.5291 13.4802 48.2464 13.6038L49.6056 5.72016ZM51.7098 7.63988C51.7208 7.44269 51.7313 7.53499 51.671 7.74754C51.5986 8.00297 51.3954 8.53544 50.8754 9.03423C50.3483 9.53986 49.7934 9.72601 49.4985 9.78901C49.2499 9.84214 49.1552 9.81574 49.3545 9.82729L49.8175 1.8407C48.9104 1.78812 46.9095 1.75302 45.3376 3.26077C43.825 4.71163 43.7527 6.6463 43.7222 7.19612L51.7098 7.63988ZM49.3701 9.82817C50.3213 9.87958 51.8804 9.88066 52.7909 9.8271L52.3211 1.8409C51.7356 1.87534 50.4787 1.87641 49.8019 1.83983L49.3701 9.82817ZM52.7926 9.82699C53.3385 9.79464 53.5227 9.83648 53.4932 9.82985C53.4208 9.81353 53.0246 9.70307 52.6223 9.29658C52.2231 8.89314 52.1098 8.49277 52.0897 8.40403C52.0793 8.35828 52.112 8.48571 52.0995 8.93493L60.0965 9.15707C60.1309 7.91615 60.1086 5.48828 58.3087 3.66942C56.4794 1.82089 53.9783 1.7427 52.3194 1.841L52.7926 9.82699ZM52.0994 8.93937C52.0533 10.6689 52.054 13.3732 52.0987 15.7222L60.0973 15.5698C60.054 13.2988 60.0547 10.7231 60.0966 9.15263L52.0994 8.93937ZM52.0988 15.7276C52.0934 15.4607 52.1395 14.9637 52.4406 14.409C52.7517 13.836 53.1917 13.4652 53.5634 13.2563C53.8956 13.0696 54.1395 13.0286 54.1606 13.025C54.1911 13.0197 54.1321 13.032 53.942 13.032V21.032C54.7398 21.032 56.1641 20.9715 57.4831 20.2302C58.2315 19.8096 58.9644 19.1597 59.4714 18.2257C59.9685 17.3101 60.1136 16.3703 60.0972 15.5644L52.0988 15.7276ZM53.942 13.032C53.7442 13.032 53.7326 13.0185 53.8293 13.0368C53.9268 13.0552 54.2857 13.1336 54.7127 13.4195C55.1927 13.7409 55.5699 14.1983 55.7934 14.7064C55.9909 15.1553 56.0038 15.4953 56.0052 15.5644L48.0068 15.7276C48.0331 17.0123 48.4665 18.8649 50.2618 20.067C51.647 20.9945 53.1975 21.032 53.942 21.032V13.032ZM56.0049 15.5541C55.9619 13.6819 55.9633 11.544 56.0035 10.3963L48.0085 10.1157C47.9607 11.476 47.9621 13.7821 48.0071 15.7379L56.0049 15.5541ZM58.558 18.638C58.558 18.9222 58.4981 19.4568 58.1548 20.0422C57.8003 20.6466 57.3148 21.0137 56.9298 21.2092C56.5893 21.382 56.3457 21.4137 56.3425 21.4142C56.3273 21.4164 56.3975 21.406 56.604 21.406V13.406C55.9437 13.406 54.5834 13.4285 53.3082 14.0758C52.5657 14.4528 51.7997 15.0647 51.2541 15.9949C50.7196 16.9062 50.558 17.8478 50.558 18.638H58.558ZM56.604 21.406C56.8239 21.406 56.9008 21.4161 56.8923 21.4149C56.8816 21.4134 56.8221 21.4048 56.7282 21.3789C56.6343 21.353 56.4834 21.3036 56.3001 21.212C55.9028 21.0133 55.4063 20.6388 55.0477 20.0234C54.7037 19.4332 54.65 18.9013 54.65 18.638H62.65C62.65 17.8577 62.4946 16.9133 61.9595 15.9951C61.4097 15.0519 60.6327 14.434 59.8779 14.0565C58.5977 13.4165 57.2273 13.406 56.604 13.406V21.406ZM54.65 18.638V21.322H62.65V18.638H54.65ZM58.65 25.322H58.826V17.322H58.65V25.322ZM58.5851 25.3147C61.118 25.4676 63.1203 25.5685 65.4438 25.2089L64.2202 17.3031C62.8477 17.5155 61.638 17.4844 59.0669 17.3293L58.5851 25.3147ZM65.478 25.2035C65.4322 25.211 64.288 25.3652 63.2852 24.3428C62.8728 23.9223 62.7042 23.5038 62.6418 23.3042C62.5827 23.1154 62.5913 23.0379 62.5972 23.1531L70.5868 22.7469C70.5406 21.8383 70.3364 20.1071 68.9968 18.7412C67.433 17.1468 65.4418 17.103 64.186 17.3085L65.478 25.2035ZM62.5959 23.1276C62.6058 23.3502 62.6016 23.3954 62.6032 23.3719C62.6049 23.3478 62.6215 23.0792 62.771 22.7114C62.9418 22.2912 63.249 21.8345 63.7184 21.4745C64.1568 21.1382 64.554 21.0267 64.7202 20.9921L66.3518 28.8239C67.9339 28.4943 69.4535 27.5162 70.182 25.7241C70.6982 24.4543 70.6048 23.1494 70.5881 22.7724L62.5959 23.1276ZM64.727 20.9907C63.3406 21.277 61.7685 21.3625 56.9264 20.8631L56.1056 28.8209C61.0755 29.3335 63.6834 29.375 66.345 28.8253L64.727 20.9907ZM56.914 20.8619C53.7665 20.5471 51.0112 20.5671 47.8502 21.04L49.0338 28.952C51.4608 28.5889 53.5455 28.5649 56.118 28.8221L56.914 20.8619ZM47.8486 21.0403C47.8493 21.0402 47.8603 21.0385 47.8809 21.0369C47.9015 21.0352 47.9335 21.0334 47.976 21.0333C48.0592 21.0332 48.1946 21.04 48.3684 21.0746C48.7393 21.1486 49.2329 21.3417 49.6858 21.7549C50.5902 22.58 50.528 23.4871 50.528 23.302H42.528C42.528 24.4149 42.7628 26.268 44.2942 27.6651C45.8821 29.1137 47.818 29.1343 49.0354 28.9517L47.8486 21.0403ZM50.528 23.302C50.528 23.0659 50.5346 23.0426 50.5291 23.0876C50.5221 23.145 50.4825 23.4467 50.2868 23.832C50.066 24.2667 49.7264 24.6512 49.315 24.9209C48.9453 25.1633 48.6564 25.2222 48.6153 25.2299L47.1247 17.3701C45.6657 17.6468 44.0521 18.4414 43.1542 20.209C42.4777 21.5409 42.528 22.9514 42.528 23.302H50.528ZM48.6031 25.2322C49.5694 25.0521 51.2362 24.8471 54.0984 24.9872L54.4896 16.9968C51.0598 16.8289 48.7666 17.0639 47.1369 17.3678L48.6031 25.2322ZM53.9618 24.9782L54.2258 25.0002L54.8902 17.0278L54.6262 17.0058L53.9618 24.9782ZM58.558 21.014V18.638H50.558V21.014H58.558ZM69.9351 10.564L65.955 10.166L65.9538 10.1783L65.9526 10.1906L69.9351 10.564ZM69.9351 6.692L65.9526 7.06536L65.9538 7.07769L65.955 7.09001L69.9351 6.692ZM73.9171 6.472L69.9346 6.84536L69.9358 6.85769L69.937 6.87001L73.9171 6.472ZM74.0051 9.134H70.0051V15.2001L75.5808 12.8106L74.0051 9.134ZM74.5991 9.024L74.9613 13.0076L75.0011 13.0039L75.0409 12.9995L74.5991 9.024ZM79.4171 9.09L79.1475 13.0809L79.1744 13.0827L79.2012 13.0842L79.4171 9.09ZM81.0451 9.178L80.8292 13.1722L82.6115 13.2685L83.8736 12.0064L81.0451 9.178ZM80.2751 8.078V4.078H80.2659L80.2567 4.07804L80.2751 8.078ZM75.5011 8.1V12.1H75.5104L75.5196 12.1L75.5011 8.1ZM74.4891 6.692L70.4899 6.76746L70.49 6.77517L70.4902 6.78289L74.4891 6.692ZM75.7651 5.02V9.02H75.7803L75.7954 9.01988L75.7651 5.02ZM81.5731 4.976V0.975999H81.558L81.5428 0.976113L81.5731 4.976ZM84.6971 9.09L81.8687 6.26157L77.9445 10.1858L82.9083 12.6677L84.6971 9.09ZM85.3351 10.564L89.334 10.4665L89.3335 10.4486L89.3329 10.4307L85.3351 10.564ZM84.1251 12.104L84.7948 16.0475L84.8027 16.0462L84.8105 16.0448L84.1251 12.104ZM79.2411 12.126L79.6972 8.15207L79.6899 8.15125L79.2411 12.126ZM74.8851 12.06L74.4038 8.08906L74.3801 8.09193L74.3565 8.09509L74.8851 12.06ZM73.6311 11.796L76.704 9.23525L73.2745 5.11986L70.3029 9.5772L73.6311 11.796ZM79.4391 17.252H75.4391V21.5593L79.7346 21.2411L79.4391 17.252ZM81.0011 17.142L80.6141 13.1608L80.6031 13.1619L81.0011 17.142ZM85.0271 20.596L81.077 19.9663L80.7909 21.7608L81.9543 23.1568L85.0271 20.596ZM85.2691 21.08L81.3644 21.9477L81.396 22.0899L81.4378 22.2294L85.2691 21.08ZM83.8611 22.796L84.3838 26.7617L84.4266 26.7561L84.4694 26.7495L83.8611 22.796ZM74.1151 23.126L74.3121 19.1309L70.1151 18.924V23.126H74.1151ZM74.1151 23.17L78.0785 23.7105L78.1151 23.4415V23.17H74.1151ZM74.9731 23.852L75.0763 19.8533L75.0247 19.852H74.9731V23.852ZM84.0151 23.522L83.3439 19.5787L83.3279 19.5814L83.312 19.5843L84.0151 23.522ZM86.0171 24.424L82.1683 25.5133L82.171 25.5229L86.0171 24.424ZM85.1371 26.206L84.2256 22.3112L84.2137 22.314L84.2018 22.3169L85.1371 26.206ZM72.3111 26.47L71.8967 30.4485L71.8995 30.4488L72.3111 26.47ZM70.0011 23.302L73.9494 23.9436L73.9513 23.9316L73.9532 23.9195L70.0011 23.302ZM70.1111 22.598L74.0632 23.2155L74.4213 20.9236L72.6099 19.4745L70.1111 22.598ZM69.9351 21.388L66.0275 20.5332L66.0233 20.5527L66.0192 20.5722L69.9351 21.388ZM71.8491 20.596L72.1841 16.61L72.1724 16.6091L71.8491 20.596ZM81.0451 20.64L81.4214 24.6223L84.5592 24.3258L85.0049 21.2057L81.0451 20.64ZM80.0331 20.002L79.8113 16.0082L79.7943 16.0091L79.7773 16.0102L80.0331 20.002ZM71.2771 19.826L70.8627 23.8045L70.8741 23.8056L71.2771 19.826ZM70.1771 18.308L66.2363 17.6226L66.2314 17.6511L66.2268 17.6795L70.1771 18.308ZM71.8051 17.12L71.4862 21.1073L71.5064 21.1089L71.5267 21.1103L71.8051 17.12ZM75.4791 17.274L75.4157 21.2735L79.4791 21.338V17.274H75.4791ZM75.4791 16.174H79.4791V12.3238L75.6317 12.1769L75.4791 16.174ZM69.1651 16.218L68.933 12.2247L68.916 12.2257L68.8991 12.2269L69.1651 16.218ZM67.6471 14.92L71.643 14.7384L71.6426 14.7293L71.6421 14.7202L67.6471 14.92ZM68.9011 13.138L69.0914 17.1335L69.1062 17.1328L69.121 17.132L68.9011 13.138ZM77.7231 13.182L77.9249 9.18709L77.9229 9.18699L77.7231 13.182ZM85.8411 13.006L86.4452 16.9601L86.4592 16.958L86.4731 16.9558L85.8411 13.006ZM87.7111 14.656L91.7083 14.5052L91.708 14.4973L91.7077 14.4895L87.7111 14.656ZM86.4351 16.086L85.9265 12.1185L85.9251 12.1187L86.4351 16.086ZM79.4391 16.328L79.5649 12.33L75.4391 12.2002V16.328H79.4391ZM73.9153 10.962C74.0518 9.59733 74.0518 7.65867 73.9153 6.29398L65.955 7.09001C66.0385 7.92533 66.0385 9.33067 65.955 10.166L73.9153 10.962ZM73.9177 6.31864C73.9179 6.32116 73.9243 6.38746 73.9158 6.50302C73.9073 6.61983 73.8824 6.80441 73.8104 7.0316C73.6481 7.54373 73.3103 8.06695 72.8033 8.45638C72.3523 8.80273 71.9529 8.90065 71.8399 8.92428C71.7292 8.94745 71.7334 8.932 71.9371 8.932V0.931999C71.1663 0.931999 69.4169 0.970041 67.9305 2.11162C66.0408 3.56292 65.823 5.68316 65.9526 7.06536L73.9177 6.31864ZM71.9371 8.932C72.2303 8.932 72.2589 8.94297 72.1876 8.93255C72.1013 8.91993 71.6685 8.85033 71.164 8.51984C70.5952 8.14717 70.2464 7.65059 70.0674 7.24191C69.922 6.90982 69.9223 6.71392 69.9346 6.84536L77.8997 6.09864C77.801 5.04573 77.438 3.06625 75.5482 1.82815C74.7248 1.28866 73.9014 1.09806 73.3449 1.0167C72.8034 0.937529 72.282 0.931999 71.9371 0.931999V8.932ZM69.937 6.87001C69.9812 7.31198 70.0051 8.19079 70.0051 9.134H78.0051C78.0051 8.18521 77.9851 6.95201 77.8973 6.07399L69.937 6.87001ZM75.5808 12.8106C75.2515 12.9517 74.9947 12.9967 74.9267 13.0081C74.8846 13.0151 74.8624 13.0173 74.8731 13.0161C74.8845 13.0148 74.9079 13.0124 74.9613 13.0076L74.237 5.04043C74.1365 5.04956 73.2721 5.09629 72.4295 5.45741L75.5808 12.8106ZM75.0409 12.9995C75.8158 12.9134 77.4623 12.967 79.1475 13.0809L79.6868 5.0991C78.116 4.99296 75.7585 4.87057 74.1574 5.04846L75.0409 12.9995ZM79.2012 13.0842L80.8292 13.1722L81.261 5.18383L79.633 5.09583L79.2012 13.0842ZM83.8736 12.0064C84.1757 11.7043 84.5614 11.2432 84.8489 10.5963C85.1441 9.93201 85.2431 9.28173 85.2431 8.716H77.2431C77.2431 8.34827 77.3092 7.86299 77.5384 7.3472C77.7599 6.84879 78.0466 6.5197 78.2167 6.34956L83.8736 12.0064ZM85.2431 8.716C85.2431 8.08847 85.1278 7.24638 84.6492 6.39884C84.1446 5.5053 83.4138 4.91966 82.7009 4.57432C81.5704 4.02678 80.3984 4.078 80.2751 4.078V12.078C80.3785 12.078 80.3134 12.082 80.188 12.0675C80.0719 12.054 79.6855 12.0028 79.2134 11.7742C78.6765 11.5141 78.0887 11.0508 77.6831 10.3326C77.3035 9.66037 77.2431 9.04652 77.2431 8.716H85.2431ZM80.2567 4.07804L75.4827 4.10004L75.5196 12.1L80.2936 12.078L80.2567 4.07804ZM75.5011 4.1C75.6868 4.1 76.1179 4.12466 76.6405 4.35443C77.2153 4.60716 77.6979 5.01946 78.0328 5.51299C78.3339 5.95669 78.4332 6.34327 78.465 6.49366C78.4971 6.64555 78.4905 6.70442 78.4881 6.60111L70.4902 6.78289C70.5037 7.37794 70.5625 8.75168 71.413 10.005C72.5445 11.6725 74.2723 12.1 75.5011 12.1V4.1ZM78.4884 6.61654C78.4843 6.3956 78.4961 6.4035 78.4793 6.51804C78.4625 6.63276 78.3844 7.10052 78.0263 7.63755C77.615 8.25458 77.0426 8.65546 76.5019 8.85955C76.2655 8.94881 76.0729 8.98658 75.9561 9.00336C75.8399 9.02007 75.77 9.02 75.7651 9.02V1.02C74.7497 1.02 72.6765 1.24005 71.3699 3.19995C70.4017 4.65236 70.4814 6.31756 70.4899 6.76746L78.4884 6.61654ZM75.7954 9.01988L81.6034 8.97588L81.5428 0.976113L75.7348 1.02011L75.7954 9.01988ZM81.5731 8.976C81.938 8.976 82.1521 8.99861 82.2608 9.01843C82.3728 9.03883 82.2496 9.03452 82.027 8.89811C81.7615 8.73545 81.4833 8.46205 81.304 8.10409C81.1418 7.78017 81.1591 7.58389 81.1591 7.682H89.1591C89.1591 5.4616 88.2701 3.34119 86.2068 2.07689C84.5602 1.0679 82.7005 0.975999 81.5731 0.975999V8.976ZM81.1591 7.682C81.1591 7.88864 81.1366 7.66902 81.2463 7.31359C81.3084 7.11247 81.4015 6.90022 81.5291 6.69469C81.6537 6.49413 81.7797 6.35059 81.8687 6.26157L87.5256 11.9184C88.1197 11.3243 88.6086 10.5863 88.8905 9.67291C89.1377 8.87198 89.1591 8.13535 89.1591 7.682H81.1591ZM82.9083 12.6677C82.0359 12.2315 81.6108 11.5177 81.4457 11.0792C81.315 10.7317 81.3318 10.5307 81.3374 10.6973L89.3329 10.4307C89.3129 9.8288 89.2356 6.88711 86.486 5.51229L82.9083 12.6677ZM81.3363 10.6615C81.3433 10.9455 81.2437 10.1482 81.863 9.2813C82.1966 8.81425 82.6026 8.51648 82.9403 8.34584C83.0964 8.26696 83.2245 8.22174 83.3059 8.19702C83.3868 8.17242 83.4356 8.16388 83.4398 8.16315L84.8105 16.0448C85.7613 15.8795 87.306 15.4248 88.3728 13.9312C89.3495 12.5638 89.349 11.0845 89.334 10.4665L81.3363 10.6615ZM83.4555 8.16045C82.7911 8.27328 80.8224 8.28121 79.6972 8.15208L78.7851 16.0999C80.3438 16.2788 83.1272 16.3307 84.7948 16.0475L83.4555 8.16045ZM79.6899 8.15125C78.0963 7.97133 75.5091 7.95509 74.4038 8.08906L75.3665 16.0309C75.3624 16.0314 75.4934 16.0188 75.7989 16.0098C76.0738 16.0016 76.4142 15.9984 76.784 16.0021C77.5496 16.0097 78.3041 16.0456 78.7924 16.1007L79.6899 8.15125ZM74.3565 8.09509C74.2438 8.11012 74.5025 8.05607 74.9385 8.15034C75.4851 8.26852 76.1676 8.59157 76.704 9.23525L70.5583 14.3567C72.1857 16.3097 74.4844 16.1488 75.4138 16.0249L74.3565 8.09509ZM70.3029 9.5772C70.5063 9.2721 70.7849 8.98198 71.1309 8.75018C71.4636 8.52735 71.7664 8.42 71.9574 8.36895C72.1357 8.32126 72.242 8.31608 72.2149 8.31816C72.1893 8.32012 72.1126 8.324 71.9371 8.324V16.324C72.3639 16.324 73.1855 16.3216 74.0234 16.0976C75.0586 15.8208 76.1696 15.1994 76.9593 14.0148L70.3029 9.5772ZM71.9371 8.324C71.8295 8.324 71.8531 8.31424 71.9647 8.33853C72.0733 8.36218 72.3924 8.44547 72.7675 8.71218C73.1845 9.00872 73.5461 9.44616 73.7532 9.97519C73.9443 10.4634 73.9275 10.8329 73.9177 10.9374L65.9526 10.1906C65.7874 11.9525 66.327 13.9488 68.1313 15.2318C69.5471 16.2386 71.1315 16.324 71.9371 16.324V8.324ZM75.4391 17.186V17.252H83.4391V17.186H75.4391ZM79.7346 21.2411C80.1202 21.2125 80.9152 21.1705 81.3992 21.1221L80.6031 13.1619C80.207 13.2015 79.9461 13.2035 79.1437 13.2629L79.7346 21.2411ZM81.3882 21.1232C82.038 21.0601 82.3828 21.074 82.5267 21.0924C82.6736 21.1112 82.3512 21.1021 81.9261 20.771C81.7048 20.5987 81.512 20.3813 81.367 20.1385C81.2264 19.903 81.1654 19.7022 81.1402 19.5871C81.1164 19.4785 81.1241 19.4451 81.1233 19.5189C81.1225 19.5919 81.1138 19.7355 81.077 19.9663L88.9773 21.2257C89.2721 19.3761 89.3359 16.4016 86.8412 14.459C85.7451 13.6054 84.5235 13.2828 83.5428 13.1572C82.5592 13.0313 81.5483 13.0699 80.6141 13.1608L81.3882 21.1232ZM81.9543 23.1568C81.7316 22.8895 81.4823 22.4782 81.3644 21.9477L89.1739 20.2123C88.968 19.2858 88.5427 18.5665 88.1 18.0352L81.9543 23.1568ZM81.4378 22.2294C81.4274 22.1945 81.3477 21.9292 81.3653 21.5176C81.3851 21.0533 81.5295 20.4484 81.9351 19.8751C82.693 18.804 83.6602 18.7799 83.2529 18.8425L84.4694 26.7495C85.4921 26.5921 87.2953 26.15 88.4657 24.4959C89.7411 22.6933 89.3581 20.7893 89.1004 19.9306L81.4378 22.2294ZM83.3385 18.8303C80.7814 19.1673 77.2427 19.2753 74.3121 19.1309L73.9182 27.1211C77.2356 27.2847 81.2649 27.1727 84.3838 26.7617L83.3385 18.8303ZM70.1151 23.126V23.17H78.1151V23.126H70.1151ZM70.1518 22.6295C70.1392 22.7219 70.0617 23.2252 70.1071 23.7972C70.1621 24.4911 70.417 25.5852 71.3527 26.5209C72.1941 27.3623 73.1536 27.6314 73.6486 27.7325C74.1652 27.8381 74.647 27.852 74.9731 27.852V19.852C74.8483 19.852 74.9891 19.8412 75.2499 19.8945C75.4892 19.9433 76.2782 20.1327 77.0096 20.8641C77.8353 21.6898 78.0407 22.6437 78.082 23.1643C78.1136 23.5631 78.0581 23.8601 78.0785 23.7105L70.1518 22.6295ZM74.8699 27.8507C78.3216 27.9397 83.0633 27.7552 84.7183 27.4597L83.312 19.5843C82.503 19.7288 78.4446 19.9403 75.0763 19.8533L74.8699 27.8507ZM84.6863 27.4653C84.9775 27.4157 85.0171 27.4135 84.9981 27.4149C84.9726 27.4167 84.6039 27.4471 84.1016 27.2922C83.5051 27.1083 82.9688 26.7423 82.587 26.2652C82.2626 25.8596 82.1718 25.5256 82.1683 25.5133L89.866 23.3347C89.51 22.077 88.6057 20.3093 86.4587 19.6473C85.6264 19.3907 84.8837 19.4032 84.4374 19.4346C83.9977 19.4655 83.5698 19.5403 83.3439 19.5787L84.6863 27.4653ZM82.171 25.5229C82.1913 25.5937 82.1544 25.4927 82.1426 25.2805C82.1302 25.0585 82.1387 24.5963 82.3666 24.0443C82.6131 23.4472 83.0182 22.984 83.4526 22.6795C83.8404 22.4079 84.1564 22.3275 84.2256 22.3112L86.0487 30.1008C87.2278 29.8248 88.9511 29.0593 89.7612 27.0972C90.4313 25.4739 90.0412 23.9478 89.8632 23.3251L82.171 25.5229ZM84.2018 22.3169C84.2501 22.3053 84.1408 22.3315 83.774 22.3701C83.4487 22.4042 83.0265 22.4375 82.5195 22.4679C81.5081 22.5285 80.2578 22.5716 78.9594 22.5944C76.2835 22.6412 73.7313 22.5956 72.7227 22.4912L71.8995 30.4488C73.443 30.6084 76.4348 30.6398 79.0994 30.5931C80.4713 30.5691 81.8403 30.5229 82.9979 30.4536C84.029 30.3918 85.2393 30.2955 86.0725 30.0951L84.2018 22.3169ZM72.7256 22.4915C72.532 22.4714 72.606 22.4505 72.8151 22.5556C73.0607 22.679 73.3778 22.9204 73.6238 23.3039C73.8559 23.6657 73.9104 23.9757 73.9224 24.0896C73.9327 24.1868 73.9147 24.1569 73.9494 23.9436L66.0529 22.6604C65.8548 23.8798 65.7414 25.8324 66.89 27.6231C68.1468 29.5826 70.1852 30.2702 71.8967 30.4485L72.7256 22.4915ZM73.9532 23.9195L74.0632 23.2155L66.1591 21.9805L66.0491 22.6845L73.9532 23.9195ZM72.6099 19.4745C72.9846 19.7743 73.3096 20.1708 73.5355 20.6418C73.752 21.0932 73.8232 21.4986 73.8451 21.7687C73.8801 22.2012 73.7945 22.4753 73.8511 22.2038L66.0192 20.5722C65.9658 20.8287 65.8032 21.5758 65.8712 22.4153C65.9565 23.4673 66.4087 24.7585 67.6124 25.7215L72.6099 19.4745ZM73.8427 22.2428C73.8868 22.0413 73.8378 22.3622 73.6396 22.7542C73.5175 22.9956 73.328 23.2938 73.0416 23.5872C72.7508 23.8851 72.4289 24.1075 72.1128 24.2639C71.8106 24.4134 71.5516 24.4839 71.388 24.5181C71.2271 24.5518 71.1203 24.5582 71.099 24.5593C71.076 24.5606 71.1812 24.555 71.5259 24.5829L72.1724 16.6091C71.7031 16.571 71.1812 16.5434 70.6708 16.5708C70.1908 16.5965 69.3953 16.6829 68.566 17.0931C66.4021 18.1634 66.0692 20.3429 66.0275 20.5332L73.8427 22.2428ZM71.5142 24.582C74.2799 24.8144 78.3161 24.9157 81.4214 24.6223L80.6689 16.6577C78.1862 16.8923 74.6544 16.8176 72.1841 16.61L71.5142 24.582ZM85.0049 21.2057C85.0632 20.7976 85.1393 19.9931 84.8524 19.0779C84.5046 17.9682 83.7448 17.0739 82.7515 16.5441C81.9383 16.1104 81.1707 16.0308 80.8143 16.0061C80.4159 15.9785 80.0433 15.9953 79.8113 16.0082L80.255 23.9958C80.419 23.9867 80.3819 23.9953 80.2612 23.9869C80.1825 23.9815 79.635 23.9486 78.9868 23.6029C78.1585 23.1611 77.5087 22.396 77.2186 21.4706C76.9895 20.7397 77.0711 20.1744 77.0853 20.0743L85.0049 21.2057ZM79.7773 16.0102C78.2908 16.1055 73.2094 16.0012 71.6801 15.8464L70.8741 23.8056C72.8209 24.0028 78.3435 24.1185 80.289 23.9938L79.7773 16.0102ZM71.6916 15.8475C71.4632 15.8237 72.7379 15.8671 73.6073 17.1786C74.0086 17.7838 74.1029 18.3521 74.1244 18.6395C74.1439 18.9002 74.1117 19.0356 74.1275 18.9365L66.2268 17.6795C66.1393 18.2296 65.8632 19.9754 66.9394 21.5989C68.1334 23.3999 70.0351 23.7183 70.8627 23.8045L71.6916 15.8475ZM74.118 18.9934C74.1777 18.6501 74.1013 19.7269 73.0101 20.5271C72.4766 20.9184 71.9659 21.0433 71.6971 21.0831C71.4624 21.1178 71.3523 21.0966 71.4862 21.1073L72.1241 13.1327C71.4772 13.081 69.7905 12.9676 68.2792 14.0759C66.6929 15.2391 66.3526 16.9539 66.2363 17.6226L74.118 18.9934ZM71.5267 21.1103C72.5385 21.1809 73.9524 21.2503 75.4157 21.2735L75.5426 13.2745C74.2339 13.2537 72.9638 13.1911 72.0835 13.1297L71.5267 21.1103ZM79.4791 17.274V17.186H71.4791V17.274H79.4791ZM79.4791 17.186V16.174H71.4791V17.186H79.4791ZM75.6317 12.1769C72.6149 12.0618 70.9464 12.1077 68.933 12.2247L69.3973 20.2113C71.1679 20.1083 72.5793 20.0662 75.3266 20.1711L75.6317 12.1769ZM68.8991 12.2269C68.9201 12.2255 69.1176 12.2124 69.4201 12.2826C69.7452 12.3579 70.1966 12.5321 70.6352 12.9032C71.578 13.701 71.6393 14.6574 71.643 14.7384L63.6513 15.1016C63.6989 16.1506 64.0243 17.789 65.4676 19.0103C66.8609 20.1892 68.4737 20.273 69.4312 20.2091L68.8991 12.2269ZM71.6421 14.7202C71.6349 14.5756 71.6521 14.6399 71.6168 14.828C71.579 15.0295 71.4621 15.4715 71.1029 15.9505C70.2535 17.0831 69.105 17.1328 69.0914 17.1335L68.7109 9.14253C67.7733 9.18717 65.9648 9.46793 64.7029 11.1505C63.6163 12.5993 63.6088 14.2539 63.6521 15.1198L71.6421 14.7202ZM69.121 17.132C71.3661 17.0084 73.2494 16.9633 77.5234 17.177L77.9229 9.18699C73.3968 8.96069 71.2321 9.00363 68.6813 9.14405L69.121 17.132ZM77.5214 17.1769C82.0384 17.405 84.5055 17.2565 86.4452 16.9601L85.237 9.05188C84.0088 9.23952 82.1199 9.39896 77.9249 9.18709L77.5214 17.1769ZM86.4731 16.9558C86.5743 16.9396 86.4426 16.9728 86.1809 16.946C85.8867 16.9159 85.3477 16.8003 84.7949 16.394C83.6206 15.5309 83.6974 14.4086 83.7146 14.8225L91.7077 14.4895C91.6589 13.3193 91.3507 11.2841 89.5329 9.94801C87.8208 8.68953 85.9192 8.94263 85.2092 9.05624L86.4731 16.9558ZM83.714 14.8068C83.7225 15.033 83.5996 13.829 84.717 12.8106C85.2036 12.3672 85.6816 12.1994 85.8718 12.1433C86.0346 12.0953 86.1138 12.0945 85.9265 12.1185L86.9438 20.0535C87.1886 20.0221 88.8176 19.8974 90.1058 18.7234C91.6577 17.309 91.7438 15.445 91.7083 14.5052L83.714 14.8068ZM85.9251 12.1187C84.6166 12.2869 82.8725 12.434 79.5649 12.33L79.3134 20.326C83.0018 20.442 85.1736 20.2811 86.9452 20.0533L85.9251 12.1187ZM75.4391 16.328V17.186H83.4391V16.328H75.4391Z" fill="#4B4B53" mask="url(#path-1-outside-1_2009_5065)"/>
</svg>
