<svg width="135" height="48" viewBox="0 0 135 48" fill="none" xmlns="http://www.w3.org/2000/svg">
<mask id="path-1-outside-1_985_689" maskUnits="userSpaceOnUse" x="0" y="1" width="135" height="45" fill="black">
<rect fill="white" y="1" width="135" height="45"/>
<path d="M26.9585 15.736C26.9905 15.192 26.7345 14.968 26.1585 15C25.1345 15.032 23.7265 15 22.7985 14.872C21.2305 14.648 21.1025 13.336 21.1985 11.608C21.2945 9.88 21.7105 9.208 23.5985 9.304C25.1025 9.368 26.3505 9.368 27.7585 9.304C31.7585 9.112 33.0065 10.52 32.9105 13.976C32.8465 16.376 32.8465 20.536 32.9105 23.896C32.9425 25.464 31.6945 25.912 29.7745 25.912C27.8545 25.912 26.9905 25.464 26.9585 23.896C26.8945 21.112 26.8945 17.56 26.9585 15.736ZM14.7985 15.736C14.8305 15.192 14.5745 14.968 13.9985 15C12.9745 15.032 11.2465 15.032 10.3185 14.872C8.4625 14.552 8.4625 13.336 8.5585 11.608C8.6545 9.88 9.0705 9.176 11.2785 9.304C12.4625 9.368 14.5105 9.368 15.5985 9.304C19.9185 9.048 20.8465 10.52 20.7505 13.976C20.6865 16.376 20.6865 20.216 20.7505 23.576C20.7825 25.144 19.5345 25.592 17.6145 25.592C15.6945 25.592 14.8305 25.144 14.7985 23.576C14.7345 20.792 14.7345 17.56 14.7985 15.736ZM18.5105 27.928C18.5105 26.456 19.6945 26.136 21.4865 26.136C23.2785 26.136 24.4625 26.424 24.4625 27.928V31.832H24.7185C28.4305 32.056 30.7665 32.152 33.4545 31.736C35.2145 31.448 35.9185 32.312 36.0145 34.2C36.0785 35.64 36.0145 36.728 34.4785 37.048C31.5345 37.656 28.4945 37.688 21.3585 36.952C17.1985 36.536 13.6785 36.568 9.6145 37.176C7.6945 37.464 6.8305 36.6 6.8305 34.712C6.8305 33.272 6.9265 32.152 8.7825 31.8C10.6705 31.448 13.5505 31.128 18.1265 31.352L18.5105 31.384V27.928ZM40.8773 16.184C41.0373 14.584 41.0373 12.152 40.8773 10.552C40.6853 8.504 41.7733 7.992 43.7893 7.992C45.6453 7.992 46.4773 8.184 46.6693 10.232C46.7653 11.192 46.7973 12.728 46.7973 14.104C47.0213 14.008 47.3093 13.976 47.6613 13.944C49.3893 13.752 52.3013 13.88 54.6693 14.04L57.0373 14.168C57.2293 13.976 57.3253 13.784 57.3253 13.496C57.3253 12.632 56.6853 12.568 55.9173 12.568L48.9733 12.6C47.8853 12.6 47.5333 11.96 47.5013 10.552C47.4693 8.856 47.7253 8.12 49.3573 8.12L57.8053 8.056C60.7173 8.056 63.0213 8.728 63.0213 11.992C63.0213 12.952 62.8933 13.496 62.3493 14.04C63.0533 14.392 63.2453 15.224 63.2773 16.184C63.3093 17.496 62.9893 18.168 61.5173 18.424C59.8213 18.712 56.3653 18.68 54.4132 18.456C52.4293 18.232 49.1333 18.232 48.0773 18.36C47.1173 18.488 46.5733 18.36 46.2533 17.976C45.8053 18.648 45.0373 18.744 43.7893 18.744C42.0933 18.744 40.6853 18.232 40.8773 16.184ZM54.7013 25.816V25.912C55.5653 25.848 56.3333 25.816 56.9733 25.752C61.5813 25.304 63.5333 26.36 62.8293 30.776C62.9893 30.968 63.1173 31.192 63.1813 31.48C63.5653 32.76 63.2133 33.656 61.1333 33.976C57.0053 34.52 51.5013 34.68 46.9573 34.456V34.52C46.8613 35.224 46.8933 35.512 48.2053 35.512C53.1653 35.64 59.5653 35.352 61.3573 35.032C62.8613 34.776 63.7893 34.648 64.2693 36.344C64.6533 37.688 64.4933 38.584 62.9893 38.936C60.4613 39.544 48.0453 39.704 44.3333 39.32C41.2613 39 40.5573 37.272 40.9733 34.712L41.1333 33.688C40.6533 33.304 40.7173 32.696 40.8773 31.928C41.1013 30.904 41.2933 30.584 43.6613 30.776C47.4693 31.096 52.9733 31.224 57.0373 30.84C57.1653 29.944 56.7173 29.848 55.5653 29.912C53.0693 30.072 45.3573 29.912 42.8293 29.656C41.2933 29.496 41.0052 28.856 41.2293 27.448C41.4852 25.976 41.9973 25.592 43.5973 25.72C44.9733 25.816 46.9253 25.912 48.9413 25.944V25.816V24.344C44.7493 24.184 42.5093 24.248 39.7573 24.408C38.3173 24.504 37.6133 23.928 37.5493 22.52C37.4533 20.6 38.0293 19.992 39.3733 19.928C42.8613 19.736 45.8053 19.672 52.2053 19.992C58.5413 20.312 61.7093 20.088 64.0133 19.736C65.6133 19.48 66.6373 19.832 66.7333 22.136C66.7973 23.832 66.1253 24.056 64.8773 24.216C62.6373 24.504 59.7893 24.728 54.7013 24.568V25.816ZM88.396 15.736C88.428 15.192 88.172 14.968 87.596 15C86.572 15.032 85.164 15 84.236 14.872C82.668 14.648 82.54 13.336 82.636 11.608C82.732 9.88 83.148 9.208 85.036 9.304C86.54 9.368 87.788 9.368 89.196 9.304C93.196 9.112 94.444 10.52 94.348 13.976C94.284 16.376 94.284 20.536 94.348 23.896C94.38 25.464 93.132 25.912 91.212 25.912C89.292 25.912 88.428 25.464 88.396 23.896C88.332 21.112 88.332 17.56 88.396 15.736ZM76.236 15.736C76.268 15.192 76.012 14.968 75.436 15C74.412 15.032 72.684 15.032 71.756 14.872C69.9 14.552 69.9 13.336 69.996 11.608C70.092 9.88 70.508 9.176 72.716 9.304C73.9 9.368 75.948 9.368 77.036 9.304C81.356 9.048 82.284 10.52 82.188 13.976C82.124 16.376 82.124 20.216 82.188 23.576C82.22 25.144 80.972 25.592 79.052 25.592C77.132 25.592 76.268 25.144 76.236 23.576C76.172 20.792 76.172 17.56 76.236 15.736ZM79.948 27.928C79.948 26.456 81.132 26.136 82.924 26.136C84.716 26.136 85.9 26.424 85.9 27.928V31.832H86.156C89.868 32.056 92.204 32.152 94.892 31.736C96.652 31.448 97.356 32.312 97.452 34.2C97.516 35.64 97.452 36.728 95.916 37.048C92.972 37.656 89.932 37.688 82.796 36.952C78.636 36.536 75.116 36.568 71.052 37.176C69.132 37.464 68.268 36.6 68.268 34.712C68.268 33.272 68.364 32.152 70.22 31.8C72.108 31.448 74.988 31.128 79.564 31.352L79.948 31.384V27.928ZM102.315 16.184C102.475 14.584 102.475 12.152 102.315 10.552C102.123 8.504 103.211 7.992 105.227 7.992C107.083 7.992 107.915 8.184 108.107 10.232C108.203 11.192 108.235 12.728 108.235 14.104C108.459 14.008 108.747 13.976 109.099 13.944C110.827 13.752 113.739 13.88 116.107 14.04L118.475 14.168C118.667 13.976 118.763 13.784 118.763 13.496C118.763 12.632 118.123 12.568 117.355 12.568L110.411 12.6C109.323 12.6 108.971 11.96 108.939 10.552C108.907 8.856 109.163 8.12 110.795 8.12L119.243 8.056C122.155 8.056 124.459 8.728 124.459 11.992C124.459 12.952 124.331 13.496 123.787 14.04C124.491 14.392 124.683 15.224 124.715 16.184C124.747 17.496 124.427 18.168 122.955 18.424C121.259 18.712 117.803 18.68 115.851 18.456C113.867 18.232 110.571 18.232 109.515 18.36C108.555 18.488 108.011 18.36 107.691 17.976C107.243 18.648 106.475 18.744 105.227 18.744C103.531 18.744 102.123 18.232 102.315 16.184ZM116.139 25.816V25.912C117.003 25.848 117.771 25.816 118.411 25.752C123.019 25.304 124.971 26.36 124.267 30.776C124.427 30.968 124.555 31.192 124.619 31.48C125.003 32.76 124.651 33.656 122.571 33.976C118.443 34.52 112.939 34.68 108.395 34.456V34.52C108.299 35.224 108.331 35.512 109.643 35.512C114.603 35.64 121.003 35.352 122.795 35.032C124.299 34.776 125.227 34.648 125.707 36.344C126.091 37.688 125.931 38.584 124.427 38.936C121.899 39.544 109.483 39.704 105.771 39.32C102.699 39 101.995 37.272 102.411 34.712L102.571 33.688C102.091 33.304 102.155 32.696 102.315 31.928C102.539 30.904 102.731 30.584 105.099 30.776C108.907 31.096 114.411 31.224 118.475 30.84C118.603 29.944 118.155 29.848 117.003 29.912C114.507 30.072 106.795 29.912 104.267 29.656C102.731 29.496 102.443 28.856 102.667 27.448C102.923 25.976 103.435 25.592 105.035 25.72C106.411 25.816 108.363 25.912 110.379 25.944V25.816V24.344C106.187 24.184 103.947 24.248 101.195 24.408C99.7548 24.504 99.0508 23.928 98.9868 22.52C98.8908 20.6 99.4668 19.992 100.811 19.928C104.299 19.736 107.243 19.672 113.643 19.992C119.979 20.312 123.147 20.088 125.451 19.736C127.051 19.48 128.075 19.832 128.171 22.136C128.235 23.832 127.563 24.056 126.315 24.216C124.075 24.504 121.227 24.728 116.139 24.568V25.816Z"/>
</mask>
<path d="M26.9585 15.736C26.9905 15.192 26.7345 14.968 26.1585 15C25.1345 15.032 23.7265 15 22.7985 14.872C21.2305 14.648 21.1025 13.336 21.1985 11.608C21.2945 9.88 21.7105 9.208 23.5985 9.304C25.1025 9.368 26.3505 9.368 27.7585 9.304C31.7585 9.112 33.0065 10.52 32.9105 13.976C32.8465 16.376 32.8465 20.536 32.9105 23.896C32.9425 25.464 31.6945 25.912 29.7745 25.912C27.8545 25.912 26.9905 25.464 26.9585 23.896C26.8945 21.112 26.8945 17.56 26.9585 15.736ZM14.7985 15.736C14.8305 15.192 14.5745 14.968 13.9985 15C12.9745 15.032 11.2465 15.032 10.3185 14.872C8.4625 14.552 8.4625 13.336 8.5585 11.608C8.6545 9.88 9.0705 9.176 11.2785 9.304C12.4625 9.368 14.5105 9.368 15.5985 9.304C19.9185 9.048 20.8465 10.52 20.7505 13.976C20.6865 16.376 20.6865 20.216 20.7505 23.576C20.7825 25.144 19.5345 25.592 17.6145 25.592C15.6945 25.592 14.8305 25.144 14.7985 23.576C14.7345 20.792 14.7345 17.56 14.7985 15.736ZM18.5105 27.928C18.5105 26.456 19.6945 26.136 21.4865 26.136C23.2785 26.136 24.4625 26.424 24.4625 27.928V31.832H24.7185C28.4305 32.056 30.7665 32.152 33.4545 31.736C35.2145 31.448 35.9185 32.312 36.0145 34.2C36.0785 35.64 36.0145 36.728 34.4785 37.048C31.5345 37.656 28.4945 37.688 21.3585 36.952C17.1985 36.536 13.6785 36.568 9.6145 37.176C7.6945 37.464 6.8305 36.6 6.8305 34.712C6.8305 33.272 6.9265 32.152 8.7825 31.8C10.6705 31.448 13.5505 31.128 18.1265 31.352L18.5105 31.384V27.928ZM40.8773 16.184C41.0373 14.584 41.0373 12.152 40.8773 10.552C40.6853 8.504 41.7733 7.992 43.7893 7.992C45.6453 7.992 46.4773 8.184 46.6693 10.232C46.7653 11.192 46.7973 12.728 46.7973 14.104C47.0213 14.008 47.3093 13.976 47.6613 13.944C49.3893 13.752 52.3013 13.88 54.6693 14.04L57.0373 14.168C57.2293 13.976 57.3253 13.784 57.3253 13.496C57.3253 12.632 56.6853 12.568 55.9173 12.568L48.9733 12.6C47.8853 12.6 47.5333 11.96 47.5013 10.552C47.4693 8.856 47.7253 8.12 49.3573 8.12L57.8053 8.056C60.7173 8.056 63.0213 8.728 63.0213 11.992C63.0213 12.952 62.8933 13.496 62.3493 14.04C63.0533 14.392 63.2453 15.224 63.2773 16.184C63.3093 17.496 62.9893 18.168 61.5173 18.424C59.8213 18.712 56.3653 18.68 54.4132 18.456C52.4293 18.232 49.1333 18.232 48.0773 18.36C47.1173 18.488 46.5733 18.36 46.2533 17.976C45.8053 18.648 45.0373 18.744 43.7893 18.744C42.0933 18.744 40.6853 18.232 40.8773 16.184ZM54.7013 25.816V25.912C55.5653 25.848 56.3333 25.816 56.9733 25.752C61.5813 25.304 63.5333 26.36 62.8293 30.776C62.9893 30.968 63.1173 31.192 63.1813 31.48C63.5653 32.76 63.2133 33.656 61.1333 33.976C57.0053 34.52 51.5013 34.68 46.9573 34.456V34.52C46.8613 35.224 46.8933 35.512 48.2053 35.512C53.1653 35.64 59.5653 35.352 61.3573 35.032C62.8613 34.776 63.7893 34.648 64.2693 36.344C64.6533 37.688 64.4933 38.584 62.9893 38.936C60.4613 39.544 48.0453 39.704 44.3333 39.32C41.2613 39 40.5573 37.272 40.9733 34.712L41.1333 33.688C40.6533 33.304 40.7173 32.696 40.8773 31.928C41.1013 30.904 41.2933 30.584 43.6613 30.776C47.4693 31.096 52.9733 31.224 57.0373 30.84C57.1653 29.944 56.7173 29.848 55.5653 29.912C53.0693 30.072 45.3573 29.912 42.8293 29.656C41.2933 29.496 41.0052 28.856 41.2293 27.448C41.4852 25.976 41.9973 25.592 43.5973 25.72C44.9733 25.816 46.9253 25.912 48.9413 25.944V25.816V24.344C44.7493 24.184 42.5093 24.248 39.7573 24.408C38.3173 24.504 37.6133 23.928 37.5493 22.52C37.4533 20.6 38.0293 19.992 39.3733 19.928C42.8613 19.736 45.8053 19.672 52.2053 19.992C58.5413 20.312 61.7093 20.088 64.0133 19.736C65.6133 19.48 66.6373 19.832 66.7333 22.136C66.7973 23.832 66.1253 24.056 64.8773 24.216C62.6373 24.504 59.7893 24.728 54.7013 24.568V25.816ZM88.396 15.736C88.428 15.192 88.172 14.968 87.596 15C86.572 15.032 85.164 15 84.236 14.872C82.668 14.648 82.54 13.336 82.636 11.608C82.732 9.88 83.148 9.208 85.036 9.304C86.54 9.368 87.788 9.368 89.196 9.304C93.196 9.112 94.444 10.52 94.348 13.976C94.284 16.376 94.284 20.536 94.348 23.896C94.38 25.464 93.132 25.912 91.212 25.912C89.292 25.912 88.428 25.464 88.396 23.896C88.332 21.112 88.332 17.56 88.396 15.736ZM76.236 15.736C76.268 15.192 76.012 14.968 75.436 15C74.412 15.032 72.684 15.032 71.756 14.872C69.9 14.552 69.9 13.336 69.996 11.608C70.092 9.88 70.508 9.176 72.716 9.304C73.9 9.368 75.948 9.368 77.036 9.304C81.356 9.048 82.284 10.52 82.188 13.976C82.124 16.376 82.124 20.216 82.188 23.576C82.22 25.144 80.972 25.592 79.052 25.592C77.132 25.592 76.268 25.144 76.236 23.576C76.172 20.792 76.172 17.56 76.236 15.736ZM79.948 27.928C79.948 26.456 81.132 26.136 82.924 26.136C84.716 26.136 85.9 26.424 85.9 27.928V31.832H86.156C89.868 32.056 92.204 32.152 94.892 31.736C96.652 31.448 97.356 32.312 97.452 34.2C97.516 35.64 97.452 36.728 95.916 37.048C92.972 37.656 89.932 37.688 82.796 36.952C78.636 36.536 75.116 36.568 71.052 37.176C69.132 37.464 68.268 36.6 68.268 34.712C68.268 33.272 68.364 32.152 70.22 31.8C72.108 31.448 74.988 31.128 79.564 31.352L79.948 31.384V27.928ZM102.315 16.184C102.475 14.584 102.475 12.152 102.315 10.552C102.123 8.504 103.211 7.992 105.227 7.992C107.083 7.992 107.915 8.184 108.107 10.232C108.203 11.192 108.235 12.728 108.235 14.104C108.459 14.008 108.747 13.976 109.099 13.944C110.827 13.752 113.739 13.88 116.107 14.04L118.475 14.168C118.667 13.976 118.763 13.784 118.763 13.496C118.763 12.632 118.123 12.568 117.355 12.568L110.411 12.6C109.323 12.6 108.971 11.96 108.939 10.552C108.907 8.856 109.163 8.12 110.795 8.12L119.243 8.056C122.155 8.056 124.459 8.728 124.459 11.992C124.459 12.952 124.331 13.496 123.787 14.04C124.491 14.392 124.683 15.224 124.715 16.184C124.747 17.496 124.427 18.168 122.955 18.424C121.259 18.712 117.803 18.68 115.851 18.456C113.867 18.232 110.571 18.232 109.515 18.36C108.555 18.488 108.011 18.36 107.691 17.976C107.243 18.648 106.475 18.744 105.227 18.744C103.531 18.744 102.123 18.232 102.315 16.184ZM116.139 25.816V25.912C117.003 25.848 117.771 25.816 118.411 25.752C123.019 25.304 124.971 26.36 124.267 30.776C124.427 30.968 124.555 31.192 124.619 31.48C125.003 32.76 124.651 33.656 122.571 33.976C118.443 34.52 112.939 34.68 108.395 34.456V34.52C108.299 35.224 108.331 35.512 109.643 35.512C114.603 35.64 121.003 35.352 122.795 35.032C124.299 34.776 125.227 34.648 125.707 36.344C126.091 37.688 125.931 38.584 124.427 38.936C121.899 39.544 109.483 39.704 105.771 39.32C102.699 39 101.995 37.272 102.411 34.712L102.571 33.688C102.091 33.304 102.155 32.696 102.315 31.928C102.539 30.904 102.731 30.584 105.099 30.776C108.907 31.096 114.411 31.224 118.475 30.84C118.603 29.944 118.155 29.848 117.003 29.912C114.507 30.072 106.795 29.912 104.267 29.656C102.731 29.496 102.443 28.856 102.667 27.448C102.923 25.976 103.435 25.592 105.035 25.72C106.411 25.816 108.363 25.912 110.379 25.944V25.816V24.344C106.187 24.184 103.947 24.248 101.195 24.408C99.7548 24.504 99.0508 23.928 98.9868 22.52C98.8908 20.6 99.4668 19.992 100.811 19.928C104.299 19.736 107.243 19.672 113.643 19.992C119.979 20.312 123.147 20.088 125.451 19.736C127.051 19.48 128.075 19.832 128.171 22.136C128.235 23.832 127.563 24.056 126.315 24.216C124.075 24.504 121.227 24.728 116.139 24.568V25.816Z" fill="#F6D9A7"/>
<path d="M26.9585 15.736L20.9689 15.3837L20.9647 15.4546L20.9622 15.5256L26.9585 15.736ZM26.1585 15L26.3459 20.9971L26.4187 20.9948L26.4913 20.9908L26.1585 15ZM22.7985 14.872L21.95 20.8117L21.9643 20.8137L21.9787 20.8157L22.7985 14.872ZM21.1985 11.608L27.1893 11.9408L27.1893 11.9408L21.1985 11.608ZM23.5985 9.304L23.2938 15.2963L23.3186 15.2975L23.3434 15.2986L23.5985 9.304ZM27.7585 9.304L28.0309 15.2978L28.0386 15.2975L28.0462 15.2971L27.7585 9.304ZM32.9105 13.976L26.9128 13.8094L26.9126 13.8161L32.9105 13.976ZM32.9105 23.896L26.9116 24.0103L26.9118 24.0184L32.9105 23.896ZM26.9585 23.896L32.9573 23.7736L32.9571 23.7658L32.9569 23.7581L26.9585 23.896ZM14.7985 15.736L8.80885 15.3837L8.80468 15.4546L8.80219 15.5256L14.7985 15.736ZM13.9985 15L14.1859 20.9971L14.2587 20.9948L14.3313 20.9908L13.9985 15ZM10.3185 14.872L9.29905 20.7848L9.29906 20.7848L10.3185 14.872ZM8.5585 11.608L14.5493 11.9408L14.5493 11.9408L8.5585 11.608ZM11.2785 9.304L10.9313 15.2939L10.943 15.2946L10.9547 15.2953L11.2785 9.304ZM15.5985 9.304L15.9508 15.2936L15.9534 15.2935L15.5985 9.304ZM20.7505 13.976L14.7528 13.8094L14.7526 13.8161L20.7505 13.976ZM20.7505 23.576L14.7516 23.6903L14.7517 23.6984L20.7505 23.576ZM14.7985 23.576L20.7973 23.4536L20.7971 23.4458L20.7969 23.4381L14.7985 23.576ZM24.4625 31.832H18.4625V37.832H24.4625V31.832ZM24.7185 31.832L25.0799 25.8429L24.8994 25.832H24.7185V31.832ZM33.4545 31.736L34.3721 37.6654L34.3978 37.6614L34.4234 37.6572L33.4545 31.736ZM36.0145 34.2L42.0086 33.9336L42.0077 33.9145L42.0068 33.8953L36.0145 34.2ZM34.4785 37.048L35.692 42.924L35.7022 42.9219L34.4785 37.048ZM21.3585 36.952L21.9741 30.9837L21.9648 30.9827L21.9555 30.9818L21.3585 36.952ZM9.6145 37.176L8.72674 31.242L8.72446 31.2424L9.6145 37.176ZM8.7825 31.8L7.6828 25.9016L7.67365 25.9033L7.6645 25.9051L8.7825 31.8ZM18.1265 31.352L18.6248 25.3727L18.5224 25.3642L18.4199 25.3592L18.1265 31.352ZM18.5105 31.384L18.0122 37.3633L24.5105 37.9048V31.384H18.5105ZM32.9481 16.0883C33.0124 14.9963 32.8898 12.5917 30.8225 10.7124C28.9063 8.97029 26.683 8.96161 25.8257 9.00924L26.4913 20.9908C26.21 21.0064 24.4027 21.0937 22.7505 19.5916C20.9472 17.9523 20.9366 15.9317 20.9689 15.3837L32.9481 16.0883ZM25.9711 9.00293C25.1105 9.02982 24.0763 8.99145 23.6183 8.92827L21.9787 20.8157C23.3767 21.0086 25.1585 21.0342 26.3459 20.9971L25.9711 9.00293ZM23.647 8.9323C24.0647 8.99197 24.8146 9.19088 25.5804 9.79259C26.3613 10.4061 26.7833 11.1432 26.9876 11.6844C27.0829 11.9367 27.1284 12.1374 27.1502 12.256C27.1614 12.3172 27.1678 12.3641 27.1712 12.3939C27.1747 12.4239 27.1758 12.4409 27.1759 12.4427C27.176 12.4434 27.1737 12.4047 27.1749 12.3133C27.1761 12.2224 27.1803 12.1025 27.1893 11.9408L15.2077 11.2752C15.1632 12.0767 15.0447 14.0257 15.7614 15.9236C16.1817 17.0368 16.9237 18.2519 18.1666 19.2284C19.3944 20.1931 20.7483 20.64 21.95 20.8117L23.647 8.9323ZM27.1893 11.9408C27.2043 11.6693 27.2187 11.7812 27.1421 12.0657C27.0552 12.3886 26.7954 13.1448 26.0847 13.8959C24.5303 15.5385 22.7321 15.2677 23.2938 15.2963L23.9032 3.31174C22.5769 3.2443 19.6267 3.26146 17.3683 5.64813C15.3675 7.76266 15.2536 10.4504 15.2077 11.2752L27.1893 11.9408ZM23.3434 15.2986C25.0114 15.3696 26.4358 15.3703 28.0309 15.2978L27.4861 3.31019C26.2652 3.36568 25.1936 3.36644 23.8536 3.30942L23.3434 15.2986ZM28.0462 15.2971C28.7261 15.2645 28.9499 15.3215 28.8946 15.3085C28.7903 15.2841 28.28 15.1369 27.738 14.622C27.1843 14.096 26.9756 13.5459 26.9158 13.3246C26.874 13.1695 26.9279 13.2678 26.9128 13.8094L38.9082 14.1426C38.968 11.9909 38.7315 8.51408 36.003 5.922C33.342 3.39403 29.8585 3.19629 27.4708 3.3109L28.0462 15.2971ZM26.9126 13.8161C26.8455 16.3354 26.8465 20.5919 26.9116 24.0103L38.9094 23.7817C38.8465 20.4801 38.8475 16.4166 38.9084 14.1359L26.9126 13.8161ZM26.9118 24.0184C26.9033 23.6058 26.9747 22.8502 27.4309 22.0099C27.9019 21.1422 28.5687 20.5797 29.1347 20.2615C29.6416 19.9767 30.0179 19.9119 30.0616 19.9044C30.1195 19.8944 30.0446 19.912 29.7745 19.912V31.912C30.9412 31.912 33.053 31.8248 35.0143 30.7225C36.1283 30.0963 37.2211 29.1278 37.9771 27.7351C38.7183 26.3698 38.9337 24.9702 38.9093 23.7736L26.9118 24.0184ZM29.7745 19.912C29.4928 19.912 29.4883 19.8926 29.6444 19.9221C29.8016 19.9518 30.3489 20.0727 30.9967 20.5064C31.7239 20.9933 32.295 21.6858 32.6339 22.4561C32.9338 23.1377 32.9549 23.6577 32.9573 23.7736L20.9598 24.0184C20.9986 25.921 21.6417 28.6841 24.3203 30.4776C26.3838 31.8592 28.6877 31.912 29.7745 31.912V19.912ZM32.9569 23.7581C32.8944 21.0368 32.8964 17.611 32.9548 15.9464L20.9622 15.5256C20.8926 17.509 20.8946 21.1872 20.9601 24.0339L32.9569 23.7581ZM20.7881 16.0883C20.8524 14.9963 20.7298 12.5917 18.6625 10.7124C16.7463 8.97029 14.523 8.96161 13.6657 9.00924L14.3313 20.9908C14.05 21.0064 12.2427 21.0937 10.5905 19.5916C8.78717 17.9523 8.77662 15.9317 8.80885 15.3837L20.7881 16.0883ZM13.8111 9.00293C13.3884 9.01614 12.8119 9.02264 12.2645 9.00968C11.9924 9.00324 11.7563 8.99264 11.5678 8.9792C11.3608 8.96444 11.2968 8.95214 11.3379 8.95924L9.29906 20.7848C10.9075 21.0621 13.2123 21.0275 14.1859 20.9971L13.8111 9.00293ZM11.3379 8.95924C11.4713 8.98223 12.0553 9.10079 12.7424 9.59332C13.5076 10.1417 14.0174 10.8777 14.291 11.5741C14.4122 11.8825 14.4686 12.1351 14.4957 12.2915C14.5225 12.4458 14.5263 12.5402 14.5265 12.5453C14.5267 12.5509 14.525 12.5106 14.5281 12.3987C14.5313 12.2855 14.5379 12.1452 14.5493 11.9408L2.56774 11.2752C2.53886 11.7951 2.33121 13.949 3.12199 15.9619C3.61558 17.2183 4.46744 18.4263 5.75157 19.3467C6.95774 20.2112 8.23771 20.6018 9.29905 20.7848L11.3379 8.95924ZM14.5493 11.9408C14.5649 11.6585 14.5793 11.8085 14.4862 12.1369C14.3749 12.5296 14.066 13.336 13.2799 14.0901C12.483 14.8544 11.6425 15.1377 11.1892 15.2345C10.8053 15.3166 10.6495 15.2776 10.9313 15.2939L11.6257 3.31406C10.2996 3.23718 7.31876 3.18004 4.97315 5.42991C2.71651 7.59445 2.61206 10.4774 2.56774 11.2752L14.5493 11.9408ZM10.9547 15.2953C12.3445 15.3704 14.619 15.372 15.9508 15.2936L15.2462 3.31435C14.402 3.36401 12.5805 3.36562 11.6023 3.31275L10.9547 15.2953ZM15.9534 15.2935C16.7385 15.247 16.9877 15.3084 16.9218 15.2935C16.7914 15.2642 16.181 15.0901 15.5657 14.4684C14.955 13.8512 14.7776 13.235 14.7429 13.0825C14.7229 12.9945 14.7708 13.1626 14.7528 13.8094L26.7482 14.1426C26.7984 12.3352 26.7714 8.73192 24.0953 6.02763C21.3751 3.27884 17.6644 3.17105 15.2436 3.31451L15.9534 15.2935ZM14.7526 13.8161C14.6855 16.3354 14.6865 20.2719 14.7516 23.6903L26.7494 23.4617C26.6865 20.1601 26.6875 16.4166 26.7484 14.1359L14.7526 13.8161ZM14.7517 23.6984C14.7433 23.2858 14.8147 22.5302 15.2709 21.6899C15.7419 20.8222 16.4087 20.2597 16.9747 19.9415C17.4816 19.6567 17.8579 19.5919 17.9016 19.5844C17.9595 19.5744 17.8846 19.592 17.6145 19.592V31.592C18.7812 31.592 20.893 31.5048 22.8543 30.4025C23.9683 29.7763 25.0611 28.8078 25.8171 27.415C26.5583 26.0498 26.7737 24.6502 26.7493 23.4536L14.7517 23.6984ZM17.6145 19.592C17.3328 19.592 17.3283 19.5726 17.4844 19.6021C17.6416 19.6318 18.1889 19.7527 18.8367 20.1864C19.5639 20.6733 20.135 21.3658 20.4739 22.1361C20.7738 22.8177 20.7949 23.3376 20.7973 23.4536L8.79975 23.6984C8.83858 25.601 9.4817 28.3641 12.1603 30.1576C14.2238 31.5392 16.5277 31.592 17.6145 31.592V19.592ZM20.7969 23.4381C20.7344 20.7168 20.7364 17.611 20.7948 15.9464L8.80219 15.5256C8.7326 17.509 8.73464 20.8672 8.80008 23.7139L20.7969 23.4381ZM24.5105 27.928C24.5105 28.3657 24.4183 29.177 23.899 30.0624C23.363 30.9764 22.6283 31.5327 22.0427 31.83C21.5238 32.0934 21.1486 32.1437 21.1323 32.1461C21.0982 32.151 21.1907 32.136 21.4865 32.136V20.136C20.524 20.136 18.5068 20.1672 16.6103 21.13C15.5047 21.6913 14.362 22.6036 13.548 23.9916C12.7507 25.351 12.5105 26.7543 12.5105 27.928H24.5105ZM21.4865 32.136C21.8023 32.136 21.9049 32.1506 21.8808 32.1473C21.8754 32.1465 21.4934 32.0997 20.9632 31.8346C20.3591 31.5325 19.6079 30.9652 19.0656 30.0347C18.5453 29.1419 18.4625 28.3347 18.4625 27.928H30.4625C30.4625 26.7693 30.2317 25.3621 29.4334 23.9923C28.6131 22.5848 27.4539 21.6635 26.3298 21.1014C24.4259 20.1495 22.3934 20.136 21.4865 20.136V32.136ZM18.4625 27.928V31.832H30.4625V27.928H18.4625ZM24.4625 37.832H24.7185V25.832H24.4625V37.832ZM24.3571 37.8211C28.0406 38.0434 30.971 38.1918 34.3721 37.6654L32.5369 25.8066C30.562 26.1122 28.8204 26.0686 25.0799 25.8429L24.3571 37.8211ZM34.4234 37.6572C34.3273 37.673 32.5917 37.8998 31.0749 36.3533C30.4499 35.716 30.1922 35.0796 30.0952 34.7696C30.0032 34.4756 30.0142 34.3466 30.0222 34.5047L42.0068 33.8953C41.939 32.5619 41.6388 29.9866 39.6421 27.9507C37.3093 25.5722 34.3417 25.511 32.4856 25.8148L34.4234 37.6572ZM30.0204 34.4664C30.0348 34.7891 30.0282 34.8463 30.0313 34.8013C30.0344 34.7556 30.0608 34.3439 30.2882 33.7845C30.5476 33.1464 31.0131 32.4548 31.724 31.9096C32.3886 31.3999 32.9934 31.2286 33.2548 31.1741L35.7022 42.9219C38.0513 42.4325 40.3183 40.9762 41.4048 38.3035C42.1728 36.4142 42.0327 34.4765 42.0086 33.9336L30.0204 34.4664ZM33.265 31.172C31.2775 31.5825 29.0142 31.7098 21.9741 30.9837L20.7429 42.9203C27.9748 43.6662 31.7915 43.7295 35.692 42.924L33.265 31.172ZM21.9555 30.9818C17.3642 30.5226 13.3414 30.5517 8.72674 31.242L10.5023 43.11C14.0156 42.5843 17.0328 42.5494 20.7615 42.9222L21.9555 30.9818ZM8.72446 31.2424C8.73093 31.2414 8.80534 31.2304 8.93639 31.2303C9.0677 31.2301 9.27689 31.2408 9.54297 31.2939C10.1104 31.407 10.8597 31.7011 11.5463 32.3274C12.9171 33.578 12.8305 34.9602 12.8305 34.712H0.8305C0.8305 36.3518 1.17592 39.11 3.45873 41.1926C5.82641 43.3526 8.70857 43.379 10.5045 43.1096L8.72446 31.2424ZM12.8305 34.712C12.8305 34.3691 12.8402 34.3447 12.8308 34.4221C12.8191 34.518 12.7575 34.9794 12.46 35.5652C12.1247 36.2252 11.6095 36.8088 10.984 37.2189C10.421 37.588 9.9766 37.6805 9.9005 37.6949L7.6645 25.9051C5.50499 26.3146 3.09983 27.495 1.76103 30.1308C0.754285 32.1128 0.8305 34.2086 0.8305 34.712H12.8305ZM9.8822 37.6984C11.2726 37.4391 13.6828 37.1417 17.8331 37.3448L18.4199 25.3592C13.4182 25.1143 10.0684 25.4569 7.6828 25.9016L9.8822 37.6984ZM17.6282 37.3313L18.0122 37.3633L19.0088 25.4047L18.6248 25.3727L17.6282 37.3313ZM24.5105 31.384V27.928H12.5105V31.384H24.5105ZM40.8773 16.184L34.907 15.587L34.9052 15.6055L34.9034 15.624L40.8773 16.184ZM40.8773 10.552L34.9034 11.112L34.9052 11.1305L34.907 11.149L40.8773 10.552ZM46.6693 10.232L40.6954 10.792L40.6972 10.8105L40.699 10.829L46.6693 10.232ZM46.7973 14.104H40.7973V23.2032L49.1607 19.6189L46.7973 14.104ZM47.6613 13.944L48.2045 19.9194L48.2642 19.9139L48.3238 19.9073L47.6613 13.944ZM54.6693 14.04L54.2648 20.0263L54.3051 20.0291L54.3454 20.0313L54.6693 14.04ZM57.0373 14.168L56.7134 20.1593L59.3868 20.3038L61.2799 18.4107L57.0373 14.168ZM55.9173 12.568V6.568H55.9034L55.8896 6.56806L55.9173 12.568ZM48.9733 12.6V18.6H48.9871L49.0009 18.5999L48.9733 12.6ZM47.5013 10.552L41.5023 10.6652L41.5025 10.6768L41.5028 10.6883L47.5013 10.552ZM49.3573 8.12V14.12H49.38L49.4027 14.1198L49.3573 8.12ZM57.8053 8.056V2.056H57.7825L57.7598 2.05617L57.8053 8.056ZM62.3493 14.04L58.1066 9.79736L52.2203 15.6837L59.666 19.4066L62.3493 14.04ZM63.2773 16.184L69.2755 16.0377L69.2748 16.0109L69.2739 15.9841L63.2773 16.184ZM61.5173 18.424L62.5217 24.3393L62.5335 24.3373L62.5453 24.3353L61.5173 18.424ZM54.4132 18.456L55.0973 12.4951L55.0864 12.4939L54.4132 18.456ZM48.0773 18.36L47.3553 12.4036L47.3197 12.4079L47.2843 12.4126L48.0773 18.36ZM46.2533 17.976L50.8626 14.1349L45.7183 7.96179L41.261 14.6478L46.2533 17.976ZM54.7013 25.912H48.7013V32.3729L55.1445 31.8956L54.7013 25.912ZM56.9733 25.752L56.3927 19.7802L56.3844 19.781L56.3762 19.7818L56.9733 25.752ZM62.8293 30.776L56.9041 29.8314L56.475 32.5232L58.2199 34.6171L62.8293 30.776ZM63.1813 31.48L57.3241 32.7816L57.3715 32.9948L57.4343 33.2041L63.1813 31.48ZM61.1333 33.976L61.9172 39.9246L61.9815 39.9161L62.0456 39.9062L61.1333 33.976ZM46.9573 34.456L47.2527 28.4633L40.9573 28.1529V34.456H46.9573ZM46.9573 34.52L52.9022 35.3307L52.9573 34.9272V34.52H46.9573ZM48.2053 35.512L48.36 29.514L48.2827 29.512H48.2053V35.512ZM61.3573 35.032L60.3505 29.1171L60.3265 29.1212L60.3025 29.1254L61.3573 35.032ZM64.2693 36.344L58.496 37.9779L58.4981 37.9851L58.5001 37.9923L64.2693 36.344ZM62.9893 38.936L61.6219 33.0939L61.6041 33.0981L61.5862 33.1023L62.9893 38.936ZM44.3333 39.32L43.7116 45.2877L43.7159 45.2882L44.3333 39.32ZM40.9733 34.712L46.8956 35.6744L46.8985 35.6563L46.9013 35.6383L40.9733 34.712ZM41.1333 33.688L47.0613 34.6143L47.5985 31.1764L44.8814 29.0028L41.1333 33.688ZM40.8773 31.928L35.0159 30.6458L35.0095 30.675L35.0034 30.7043L40.8773 31.928ZM43.6613 30.776L44.1637 24.7971L44.1549 24.7963L44.1461 24.7956L43.6613 30.776ZM57.0373 30.84L57.6017 36.8134L62.3084 36.3687L62.9769 31.6885L57.0373 30.84ZM55.5653 29.912L55.2324 23.9212L55.2069 23.9227L55.1814 23.9243L55.5653 29.912ZM42.8293 29.656L42.2076 35.6237L42.2162 35.6246L42.2247 35.6255L42.8293 29.656ZM41.2293 27.448L35.318 26.42L35.3106 26.4626L35.3038 26.5053L41.2293 27.448ZM43.5973 25.72L43.1188 31.7009L43.1492 31.7033L43.1797 31.7054L43.5973 25.72ZM48.9413 25.944L48.846 31.9432L54.9413 32.04V25.944H48.9413ZM48.9413 24.344H54.9413V18.5686L49.1701 18.3484L48.9413 24.344ZM39.7573 24.408L39.409 18.4181L39.3836 18.4196L39.3581 18.4213L39.7573 24.408ZM37.5493 22.52L43.5431 22.2476L43.5424 22.234L43.5418 22.2204L37.5493 22.52ZM39.3733 19.928L39.6586 25.9212L39.6808 25.9202L39.703 25.9189L39.3733 19.928ZM52.2053 19.992L52.5079 13.9996L52.5049 13.9995L52.2053 19.992ZM64.0133 19.736L64.9194 25.6672L64.9403 25.664L64.9612 25.6606L64.0133 19.736ZM66.7333 22.136L72.729 21.9097L72.7285 21.898L72.728 21.8862L66.7333 22.136ZM64.8773 24.216L64.1143 18.2647L64.1121 18.265L64.8773 24.216ZM54.7013 24.568L54.8898 18.571L48.7013 18.3764V24.568H54.7013ZM46.8475 16.781C47.0472 14.784 47.0472 11.952 46.8475 9.95498L34.907 11.149C35.0273 12.352 35.0273 14.384 34.907 15.587L46.8475 16.781ZM46.8511 9.99195C46.8522 10.0037 46.8618 10.1104 46.8487 10.2903C46.8354 10.4721 46.797 10.7549 46.6873 11.1009C46.4405 11.8796 45.9282 12.6724 45.1598 13.2626C44.4756 13.7881 43.8665 13.939 43.6851 13.9769C43.507 14.0142 43.4993 13.992 43.7893 13.992V1.992C42.6645 1.992 40.0647 2.04506 37.8507 3.74542C35.0317 5.91037 34.7121 9.07074 34.9034 11.112L46.8511 9.99195ZM43.7893 13.992C44.2145 13.992 44.2449 14.0081 44.1273 13.9909C43.9872 13.9704 43.329 13.8633 42.5651 13.3628C41.7046 12.799 41.1758 12.0474 40.9031 11.4248C40.6808 10.9171 40.6785 10.6109 40.6954 10.792L52.6431 9.67195C52.498 8.12459 51.9615 5.17288 49.1414 3.32523C47.9135 2.52075 46.6873 2.23759 45.8632 2.11711C45.0616 1.99992 44.292 1.992 43.7893 1.992V13.992ZM40.699 10.829C40.7623 11.462 40.7973 12.7322 40.7973 14.104H52.7973C52.7973 12.7238 52.7682 10.922 52.6395 9.63498L40.699 10.829ZM49.1607 19.6189C48.6633 19.8321 48.2741 19.9006 48.1676 19.9184C48.066 19.9353 48.0233 19.9358 48.2045 19.9194L47.118 7.96864C46.9783 7.98134 45.6907 8.05043 44.4338 8.58912L49.1607 19.6189ZM48.3238 19.9073C49.4322 19.7841 51.811 19.8606 54.2648 20.0263L55.0737 8.05365C52.7915 7.89944 49.3463 7.71985 46.9987 7.9807L48.3238 19.9073ZM54.3454 20.0313L56.7134 20.1593L57.3611 8.17675L54.9931 8.04875L54.3454 20.0313ZM61.2799 18.4107C61.7301 17.9604 62.3064 17.2718 62.7361 16.3048C63.1775 15.3118 63.3253 14.3401 63.3253 13.496H51.3253C51.3253 12.9399 51.425 12.2082 51.7704 11.4312C52.1042 10.6802 52.5364 10.1836 52.7946 9.92534L61.2799 18.4107ZM63.3253 13.496C63.3253 12.5615 63.1534 11.3035 62.4378 10.0362C61.6831 8.69986 60.5903 7.82418 59.5248 7.30811C57.8372 6.49066 56.0902 6.568 55.9173 6.568V18.568C56.0663 18.568 55.9629 18.5739 55.7695 18.5515C55.5901 18.5307 55.0058 18.4528 54.2937 18.1079C53.4842 17.7158 52.5994 17.0181 51.9887 15.9368C51.4171 14.9245 51.3253 13.9985 51.3253 13.496H63.3253ZM55.8896 6.56806L48.9456 6.60006L49.0009 18.5999L55.9449 18.5679L55.8896 6.56806ZM48.9733 6.6C49.2603 6.6 49.914 6.63824 50.7037 6.98546C51.5717 7.36711 52.3002 7.98945 52.8061 8.73499C53.2613 9.40579 53.4128 9.99228 53.4622 10.2259C53.512 10.4618 53.503 10.5596 53.4997 10.4157L41.5028 10.6883C41.5226 11.5589 41.6078 13.6035 42.8764 15.473C44.5666 17.9638 47.147 18.6 48.9733 18.6V6.6ZM53.5002 10.4388C53.4942 10.1207 53.5116 10.1439 53.485 10.3253C53.4584 10.507 53.3387 11.2165 52.7976 12.0282C52.1764 12.9599 51.3121 13.5658 50.4931 13.8749C50.1345 14.0103 49.8412 14.0681 49.6609 14.0939C49.4814 14.1197 49.371 14.12 49.3573 14.12V2.12C47.8596 2.12 44.7646 2.44433 42.8129 5.3718C41.3688 7.53805 41.4901 10.0168 41.5023 10.6652L53.5002 10.4388ZM49.4027 14.1198L57.8507 14.0558L57.7598 2.05617L49.3118 2.12017L49.4027 14.1198ZM57.8053 14.056C58.3298 14.056 58.6294 14.0886 58.7729 14.1148C58.9214 14.1418 58.719 14.1295 58.3704 13.9159C57.9575 13.6629 57.5284 13.2406 57.2512 12.6874C56.9997 12.1852 57.0213 11.8703 57.0213 11.992H69.0213C69.0213 8.71239 67.7056 5.56253 64.6401 3.68408C62.1996 2.1886 59.4508 2.056 57.8053 2.056V14.056ZM57.0213 11.992C57.0213 12.287 56.9884 11.9458 57.1561 11.4025C57.2508 11.0958 57.3925 10.7727 57.5867 10.46C57.7763 10.1547 57.9688 9.93514 58.1066 9.79736L66.5919 18.2826C67.4746 17.3999 68.2027 16.3014 68.6224 14.9415C68.9901 13.7502 69.0213 12.657 69.0213 11.992H57.0213ZM59.666 19.4066C58.3464 18.7468 57.7017 17.6668 57.4498 16.9974C57.2493 16.4646 57.2728 16.1491 57.2806 16.3839L69.2739 15.9841C69.2448 15.1112 69.135 10.7247 65.0325 8.67343L59.666 19.4066ZM57.279 16.3303C57.2889 16.7358 57.1419 15.5243 58.0789 14.2126C58.5833 13.5063 59.1979 13.055 59.7118 12.7953C59.9497 12.6751 60.146 12.6056 60.2727 12.5671C60.3988 12.5288 60.4772 12.5148 60.4892 12.5127L62.5453 24.3353C63.9486 24.0912 66.2515 23.4164 67.8437 21.1874C69.3006 19.1477 69.2976 16.9442 69.2755 16.0377L57.279 16.3303ZM60.5128 12.5087C59.5691 12.6689 56.7242 12.6818 55.0973 12.4951L53.7292 24.4169C56.0063 24.6782 60.0734 24.7551 62.5217 24.3393L60.5128 12.5087ZM55.0864 12.4939C52.758 12.231 48.9802 12.2066 47.3553 12.4036L48.7992 24.3164C48.7848 24.3181 48.9688 24.3 49.4118 24.2869C49.8089 24.2751 50.3016 24.2704 50.8375 24.2757C51.9482 24.2868 53.0388 24.3389 53.7401 24.4181L55.0864 12.4939ZM47.2843 12.4126C47.1302 12.4332 47.53 12.3521 48.1932 12.4955C49.0224 12.6748 50.053 13.1634 50.8626 14.1349L41.6439 21.8171C44.0751 24.7346 47.5062 24.4892 48.8702 24.3074L47.2843 12.4126ZM41.261 14.6478C41.5695 14.1849 41.9915 13.7456 42.5154 13.3947C43.0192 13.0572 43.4789 12.8938 43.7717 12.8155C44.0456 12.7423 44.2121 12.7335 44.1794 12.736C44.149 12.7384 44.0427 12.744 43.7893 12.744V24.744C44.4098 24.744 45.6265 24.7411 46.8708 24.4085C48.4109 23.9967 50.0679 23.0706 51.2455 21.3042L41.261 14.6478ZM43.7893 12.744C43.6411 12.744 43.6891 12.7304 43.868 12.7693C44.0424 12.8073 44.5314 12.9362 45.1024 13.3423C45.7364 13.7931 46.2854 14.4572 46.6001 15.2613C46.8908 16.0041 46.8672 16.5714 46.8511 16.744L34.9034 15.624C34.6587 18.2348 35.4586 21.2092 38.1481 23.1217C40.255 24.6199 42.6073 24.744 43.7893 24.744V12.744ZM48.7013 25.816V25.912H60.7013V25.816H48.7013ZM55.1445 31.8956C55.6959 31.8548 56.8644 31.7928 57.5703 31.7222L56.3762 19.7818C55.8021 19.8392 55.4346 19.8412 54.258 19.9284L55.1445 31.8956ZM57.5538 31.7238C58.4925 31.6326 58.9789 31.654 59.1692 31.6784C59.3638 31.7033 58.8599 31.6825 58.2069 31.174C57.8673 30.9096 57.5718 30.5764 57.3493 30.2037C57.1334 29.8421 57.0381 29.5311 56.9979 29.3474C56.9319 29.0458 57.0184 29.1141 56.9041 29.8314L68.7544 31.7206C69.1857 29.0152 69.2912 24.5962 65.5796 21.706C63.9507 20.4375 62.1387 19.9607 60.6933 19.7756C59.2436 19.59 57.758 19.6474 56.3927 19.7802L57.5538 31.7238ZM58.2199 34.6171C57.8809 34.2103 57.5029 33.5863 57.3241 32.7816L69.0384 30.1784C68.7316 28.7977 68.0976 27.7257 67.4386 26.9349L58.2199 34.6171ZM57.4343 33.2041C57.4156 33.1418 57.2945 32.7346 57.3212 32.1087C57.3514 31.4039 57.5702 30.4889 58.1833 29.6225C59.3295 28.0025 60.7993 27.9568 60.2209 28.0458L62.0456 39.9062C63.5472 39.6752 66.233 39.0215 67.9792 36.5535C69.883 33.8629 69.3086 31.024 68.9282 29.7559L57.4343 33.2041ZM60.3493 28.0274C56.6427 28.5159 51.5066 28.673 47.2527 28.4633L46.6618 40.4487C51.4959 40.687 57.3678 40.5241 61.9172 39.9246L60.3493 28.0274ZM40.9573 34.456V34.52H52.9573V34.456H40.9573ZM41.0123 33.7093C40.9941 33.8424 40.8783 34.5926 40.9461 35.4467C41.0284 36.4836 41.4096 38.1216 42.8106 39.5226C44.0702 40.7822 45.5055 41.1841 46.2423 41.3346C47.0114 41.4917 47.7263 41.512 48.2053 41.512V29.512C48.0282 29.512 48.2471 29.4963 48.6442 29.5774C49.009 29.6519 50.1963 29.9378 51.2959 31.0374C52.5369 32.2784 52.8462 33.7124 52.9084 34.4973C52.9562 35.0994 52.8724 35.5496 52.9022 35.3307L41.0123 33.7093ZM48.0505 41.51C53.073 41.6396 59.9855 41.3719 62.412 40.9386L60.3025 29.1254C60.3028 29.1254 60.3001 29.1259 60.294 29.1269C60.2879 29.1279 60.2792 29.1293 60.2677 29.131C60.2443 29.1346 60.2123 29.1393 60.171 29.1448C60.0872 29.156 59.9777 29.1693 59.8404 29.184C59.5642 29.2137 59.2138 29.2453 58.7932 29.2769C57.952 29.3403 56.903 29.3987 55.7338 29.4446C53.3873 29.5368 50.6811 29.5739 48.36 29.514L48.0505 41.51ZM62.364 40.9469C62.789 40.8746 62.8378 40.8731 62.7998 40.8757C62.752 40.8791 62.1903 40.9243 61.4294 40.6896C60.5271 40.4114 59.7162 39.8584 59.138 39.1357C58.6458 38.5203 58.505 38.0097 58.496 37.9779L70.0425 34.7101C69.5161 32.85 68.1706 30.2107 64.9651 29.2224C63.7242 28.8397 62.6185 28.8589 61.9587 28.9053C61.3087 28.9509 60.6775 29.0614 60.3505 29.1171L62.364 40.9469ZM58.5001 37.9923C58.5275 38.088 58.4702 37.927 58.452 37.5999C58.433 37.2583 58.4467 36.5571 58.7913 35.7224C59.6408 33.6647 61.3808 33.1503 61.6219 33.0939L64.3566 44.7781C66.1017 44.3697 68.6737 43.2313 69.8832 40.3016C70.8828 37.8804 70.2993 35.6087 70.0384 34.6957L58.5001 37.9923ZM61.5862 33.1023C61.6686 33.0825 61.5193 33.1198 60.9875 33.1756C60.518 33.2249 59.9067 33.2732 59.171 33.3172C57.7031 33.4052 55.8871 33.4679 54.0002 33.5009C50.1078 33.5691 46.4055 33.5023 44.9506 33.3518L43.7159 45.2882C45.973 45.5217 50.3347 45.5669 54.2103 45.4991C56.2074 45.4641 58.2014 45.3968 59.8885 45.2958C61.3858 45.2061 63.1623 45.0655 64.3923 44.7697L61.5862 33.1023ZM44.9549 33.3523C44.6885 33.3245 44.8189 33.2985 45.1479 33.4639C45.5317 33.6567 46.0187 34.029 46.3956 34.6166C46.7517 35.1717 46.838 35.6512 46.8578 35.8386C46.8748 36.0009 46.8468 35.9744 46.8956 35.6744L35.0509 33.7496C34.7602 35.5387 34.5879 38.4341 36.2949 41.0954C38.1643 44.0099 41.1924 45.0253 43.7116 45.2877L44.9549 33.3523ZM46.9013 35.6383L47.0613 34.6143L35.2052 32.7617L35.0452 33.7857L46.9013 35.6383ZM44.8814 29.0028C45.4472 29.4554 45.9373 30.0537 46.2781 30.764C46.6047 31.4449 46.7124 32.0573 46.7456 32.4671C46.799 33.1251 46.6688 33.5469 46.7511 33.1517L35.0034 30.7043C34.9257 31.0771 34.6835 32.1869 34.7849 33.4369C34.9121 35.0057 35.5871 36.9348 37.3851 38.3732L44.8814 29.0028ZM46.7387 33.2102C46.803 32.916 46.7279 33.404 46.4277 33.9973C45.9933 34.8562 45.2246 35.7304 44.1254 36.2741C43.2592 36.7025 42.5799 36.7224 42.5799 36.7224C42.5343 36.7248 42.6779 36.716 43.1764 36.7564L44.1461 24.7956C43.4606 24.74 42.6922 24.6992 41.9376 24.7396C41.2286 24.7776 40.0433 24.9055 38.8051 25.5179C35.5709 27.1176 35.0748 30.3763 35.0159 30.6458L46.7387 33.2102ZM43.1588 36.7549C47.1884 37.0935 53.0707 37.2415 57.6017 36.8134L56.4728 24.8666C52.8758 25.2065 47.7501 25.0985 44.1637 24.7971L43.1588 36.7549ZM62.9769 31.6885C63.0634 31.0835 63.1776 29.8821 62.7486 28.5135C62.2282 26.8531 61.091 25.5145 59.6048 24.7219C58.3887 24.0733 57.2424 23.955 56.7141 23.9184C56.1227 23.8774 55.5715 23.9024 55.2324 23.9212L55.8981 35.9028C56.1351 35.8896 56.0718 35.9026 55.8844 35.8896C55.7601 35.881 54.9338 35.8307 53.9577 35.3101C52.7115 34.6455 51.7343 33.4949 51.2979 32.1025C50.9529 31.0019 51.0751 30.1485 51.0976 29.9915L62.9769 31.6885ZM55.1814 23.9243C53.0298 24.0622 45.6486 23.9108 43.4338 23.6865L42.2247 35.6255C45.0659 35.9132 53.1087 36.0818 55.9491 35.8997L55.1814 23.9243ZM43.4509 23.6883C43.4519 23.6884 43.4701 23.6903 43.5031 23.6956C43.536 23.7008 43.5882 23.7102 43.6567 23.726C43.7885 23.7563 44.0157 23.8185 44.2992 23.9422C44.9145 24.2106 45.7364 24.7487 46.3702 25.7048C46.9757 26.6182 47.1191 27.4774 47.152 27.9166C47.1819 28.3158 47.1328 28.5284 47.1547 28.3907L35.3038 26.5053C35.176 27.3085 34.7613 29.911 36.3683 32.3352C38.1518 35.0256 40.9902 35.4969 42.2076 35.6237L43.4509 23.6883ZM47.1405 28.476C47.2261 27.9842 47.1056 29.6138 45.4574 30.8224C44.6515 31.4134 43.8786 31.6034 43.4668 31.6643C43.106 31.7177 42.9305 31.6858 43.1188 31.7009L44.0757 19.7391C43.1303 19.6635 40.6167 19.4914 38.3611 21.1456C35.9929 22.8822 35.4884 25.4398 35.318 26.42L47.1405 28.476ZM43.1797 31.7054C44.6543 31.8083 46.7141 31.9094 48.846 31.9432L49.0365 19.9448C47.1364 19.9146 45.2922 19.8237 44.0148 19.7345L43.1797 31.7054ZM54.9413 25.944V25.816H42.9413V25.944H54.9413ZM54.9413 25.816V24.344H42.9413V25.816H54.9413ZM49.1701 18.3484C44.7759 18.1806 42.3431 18.2475 39.409 18.4181L40.1055 30.3979C42.6754 30.2485 44.7226 30.1873 48.7124 30.3396L49.1701 18.3484ZM39.3581 18.4213C39.4009 18.4184 39.7071 18.3994 40.1692 18.5066C40.6652 18.6216 41.3494 18.8862 42.0129 19.4477C43.4385 20.654 43.5365 22.1042 43.5431 22.2476L31.5554 22.7924C31.626 24.3438 32.108 26.786 34.2616 28.6083C36.3401 30.367 38.7426 30.489 40.1564 30.3947L39.3581 18.4213ZM43.5418 22.2204C43.5317 22.0184 43.5568 22.1273 43.502 22.4197C43.4434 22.7321 43.2648 23.4033 42.7212 24.128C41.4377 25.8394 39.7 25.9192 39.6586 25.9212L39.0879 13.9348C37.7025 14.0008 35.0048 14.4166 33.1213 16.928C31.5008 19.0887 31.4933 21.5508 31.5567 22.8196L43.5418 22.2204ZM39.703 25.9189C42.9618 25.7396 45.6947 25.674 51.9056 25.9845L52.5049 13.9995C45.9158 13.67 42.7607 13.7324 39.0435 13.9371L39.703 25.9189ZM51.9026 25.9844C58.4802 26.3166 62.0817 26.1007 64.9194 25.6672L63.1071 13.8048C61.3368 14.0753 58.6023 14.3074 52.5079 13.9996L51.9026 25.9844ZM64.9612 25.6606C65.1006 25.6383 64.8916 25.689 64.489 25.6478C64.0376 25.6016 63.2202 25.4254 62.3837 24.8105C60.6077 23.5051 60.7141 21.801 60.7385 22.3858L72.728 21.8862C72.6564 20.167 72.2028 17.1349 69.4908 15.1415C66.9373 13.2645 64.1054 13.6449 63.0653 13.8114L64.9612 25.6606ZM60.7375 22.3623C60.7493 22.6751 60.5697 20.854 62.2556 19.3174C62.9904 18.6477 63.7138 18.393 64.0065 18.3068C64.258 18.2326 64.3855 18.2299 64.1143 18.2647L65.6402 30.1673C65.9879 30.1227 68.4165 29.9386 70.3389 28.1866C72.6568 26.074 72.7812 23.2929 72.729 21.9097L60.7375 22.3623ZM64.1121 18.265C62.2195 18.5083 59.6923 18.722 54.8898 18.571L54.5127 30.565C59.8862 30.734 63.055 30.4997 65.6424 30.167L64.1121 18.265ZM48.7013 24.568V25.816H60.7013V24.568H48.7013ZM88.396 15.736L82.4064 15.3837L82.4022 15.4546L82.3997 15.5256L88.396 15.736ZM87.596 15L87.7834 20.9971L87.8562 20.9948L87.9288 20.9908L87.596 15ZM84.236 14.872L83.3875 20.8117L83.4018 20.8137L83.4162 20.8157L84.236 14.872ZM82.636 11.608L88.6268 11.9408L88.6268 11.9408L82.636 11.608ZM85.036 9.304L84.7313 15.2963L84.7561 15.2975L84.7809 15.2986L85.036 9.304ZM89.196 9.304L89.4684 15.2978L89.4761 15.2975L89.4837 15.2971L89.196 9.304ZM94.348 13.976L88.3503 13.8094L88.3501 13.8161L94.348 13.976ZM94.348 23.896L88.3491 24.0103L88.3493 24.0184L94.348 23.896ZM88.396 23.896L94.3948 23.7736L94.3946 23.7658L94.3944 23.7581L88.396 23.896ZM76.236 15.736L70.2464 15.3837L70.2422 15.4546L70.2397 15.5256L76.236 15.736ZM75.436 15L75.6234 20.9971L75.6962 20.9948L75.7688 20.9908L75.436 15ZM71.756 14.872L70.7366 20.7848L70.7366 20.7848L71.756 14.872ZM69.996 11.608L75.9868 11.9408L75.9868 11.9408L69.996 11.608ZM72.716 9.304L72.3688 15.2939L72.3805 15.2946L72.3922 15.2953L72.716 9.304ZM77.036 9.304L77.3883 15.2936L77.3909 15.2935L77.036 9.304ZM82.188 13.976L76.1903 13.8094L76.1901 13.8161L82.188 13.976ZM82.188 23.576L76.1891 23.6903L76.1892 23.6984L82.188 23.576ZM76.236 23.576L82.2348 23.4536L82.2346 23.4458L82.2344 23.4381L76.236 23.576ZM85.9 31.832H79.9V37.832H85.9V31.832ZM86.156 31.832L86.5174 25.8429L86.3369 25.832H86.156V31.832ZM94.892 31.736L95.8096 37.6654L95.8353 37.6614L95.8609 37.6572L94.892 31.736ZM97.452 34.2L103.446 33.9336L103.445 33.9145L103.444 33.8953L97.452 34.2ZM95.916 37.048L97.1295 42.924L97.1397 42.9219L95.916 37.048ZM82.796 36.952L83.4116 30.9837L83.4023 30.9827L83.393 30.9818L82.796 36.952ZM71.052 37.176L70.1642 31.242L70.162 31.2424L71.052 37.176ZM70.22 31.8L69.1203 25.9016L69.1111 25.9033L69.102 25.9051L70.22 31.8ZM79.564 31.352L80.0623 25.3727L79.9599 25.3642L79.8574 25.3592L79.564 31.352ZM79.948 31.384L79.4497 37.3633L85.948 37.9048V31.384H79.948ZM94.3856 16.0883C94.4499 14.9963 94.3273 12.5917 92.26 10.7124C90.3438 8.97029 88.1205 8.96161 87.2632 9.00924L87.9288 20.9908C87.6475 21.0064 85.8402 21.0937 84.188 19.5916C82.3847 17.9523 82.3741 15.9317 82.4064 15.3837L94.3856 16.0883ZM87.4086 9.00293C86.548 9.02982 85.5138 8.99145 85.0558 8.92827L83.4162 20.8157C84.8142 21.0086 86.596 21.0342 87.7834 20.9971L87.4086 9.00293ZM85.0845 8.9323C85.5022 8.99197 86.2521 9.19088 87.0179 9.79259C87.7988 10.4061 88.2208 11.1432 88.4251 11.6844C88.5204 11.9367 88.5659 12.1374 88.5877 12.256C88.5989 12.3172 88.6053 12.3641 88.6087 12.3939C88.6122 12.4239 88.6133 12.4409 88.6134 12.4427C88.6135 12.4434 88.6112 12.4047 88.6124 12.3133C88.6136 12.2224 88.6178 12.1025 88.6268 11.9408L76.6452 11.2752C76.6007 12.0767 76.4822 14.0257 77.1989 15.9236C77.6192 17.0368 78.3612 18.2519 79.6041 19.2284C80.8319 20.1931 82.1858 20.64 83.3875 20.8117L85.0845 8.9323ZM88.6268 11.9408C88.6418 11.6693 88.6562 11.7812 88.5796 12.0657C88.4927 12.3886 88.2329 13.1448 87.5222 13.8959C85.9678 15.5385 84.1696 15.2677 84.7313 15.2963L85.3407 3.31174C84.0144 3.2443 81.0642 3.26146 78.8058 5.64813C76.805 7.76266 76.6911 10.4504 76.6452 11.2752L88.6268 11.9408ZM84.7809 15.2986C86.4489 15.3696 87.8733 15.3703 89.4684 15.2978L88.9236 3.31019C87.7027 3.36568 86.6311 3.36644 85.2911 3.30942L84.7809 15.2986ZM89.4837 15.2971C90.1636 15.2645 90.3874 15.3215 90.3321 15.3085C90.2278 15.2841 89.7175 15.1369 89.1755 14.622C88.6218 14.096 88.4131 13.5459 88.3533 13.3246C88.3115 13.1695 88.3654 13.2678 88.3503 13.8094L100.346 14.1426C100.405 11.9909 100.169 8.51408 97.4405 5.922C94.7795 3.39403 91.296 3.19629 88.9083 3.3109L89.4837 15.2971ZM88.3501 13.8161C88.283 16.3354 88.284 20.5919 88.3491 24.0103L100.347 23.7817C100.284 20.4801 100.285 16.4166 100.346 14.1359L88.3501 13.8161ZM88.3493 24.0184C88.3408 23.6058 88.4122 22.8502 88.8684 22.0099C89.3394 21.1422 90.0062 20.5797 90.5722 20.2615C91.0791 19.9767 91.4554 19.9119 91.4991 19.9044C91.557 19.8944 91.4821 19.912 91.212 19.912V31.912C92.3787 31.912 94.4905 31.8248 96.4518 30.7225C97.5658 30.0963 98.6586 29.1278 99.4146 27.7351C100.156 26.3698 100.371 24.9702 100.347 23.7736L88.3493 24.0184ZM91.212 19.912C90.9303 19.912 90.9258 19.8926 91.0819 19.9221C91.2391 19.9518 91.7864 20.0727 92.4342 20.5064C93.1614 20.9933 93.7325 21.6858 94.0714 22.4561C94.3713 23.1377 94.3924 23.6577 94.3948 23.7736L82.3973 24.0184C82.4361 25.921 83.0792 28.6841 85.7578 30.4776C87.8213 31.8592 90.1252 31.912 91.212 31.912V19.912ZM94.3944 23.7581C94.3319 21.0368 94.3339 17.611 94.3923 15.9464L82.3997 15.5256C82.3301 17.509 82.3321 21.1872 82.3976 24.0339L94.3944 23.7581ZM82.2256 16.0883C82.2899 14.9963 82.1673 12.5917 80.1 10.7124C78.1838 8.97029 75.9605 8.96161 75.1032 9.00924L75.7688 20.9908C75.4875 21.0064 73.6802 21.0937 72.028 19.5916C70.2247 17.9523 70.2141 15.9317 70.2464 15.3837L82.2256 16.0883ZM75.2486 9.00293C74.8259 9.01614 74.2494 9.02264 73.702 9.00968C73.4299 9.00324 73.1938 8.99264 73.0053 8.9792C72.7983 8.96444 72.7343 8.95214 72.7754 8.95924L70.7366 20.7848C72.345 21.0621 74.6498 21.0275 75.6234 20.9971L75.2486 9.00293ZM72.7754 8.95924C72.9088 8.98223 73.4928 9.10079 74.1799 9.59332C74.9451 10.1417 75.4549 10.8777 75.7285 11.5741C75.8497 11.8825 75.9061 12.1351 75.9332 12.2915C75.96 12.4458 75.9638 12.5402 75.964 12.5453C75.9642 12.5509 75.9625 12.5106 75.9656 12.3987C75.9688 12.2855 75.9754 12.1452 75.9868 11.9408L64.0052 11.2752C63.9764 11.7951 63.7687 13.949 64.5595 15.9619C65.0531 17.2183 65.9049 18.4263 67.1891 19.3467C68.3952 20.2112 69.6752 20.6018 70.7366 20.7848L72.7754 8.95924ZM75.9868 11.9408C76.0024 11.6585 76.0168 11.8085 75.9237 12.1369C75.8124 12.5296 75.5035 13.336 74.7174 14.0901C73.9205 14.8544 73.08 15.1377 72.6267 15.2345C72.2428 15.3166 72.087 15.2776 72.3688 15.2939L73.0632 3.31406C71.7371 3.23718 68.7563 3.18004 66.4106 5.42991C64.154 7.59445 64.0496 10.4774 64.0052 11.2752L75.9868 11.9408ZM72.3922 15.2953C73.782 15.3704 76.0565 15.372 77.3883 15.2936L76.6837 3.31435C75.8395 3.36401 74.018 3.36562 73.0398 3.31275L72.3922 15.2953ZM77.3909 15.2935C78.176 15.247 78.4252 15.3084 78.3593 15.2935C78.2289 15.2642 77.6185 15.0901 77.0032 14.4684C76.3925 13.8512 76.2151 13.235 76.1804 13.0825C76.1604 12.9945 76.2083 13.1626 76.1903 13.8094L88.1857 14.1426C88.2359 12.3352 88.2089 8.73192 85.5328 6.02763C82.8126 3.27884 79.1019 3.17105 76.6811 3.31451L77.3909 15.2935ZM76.1901 13.8161C76.123 16.3354 76.124 20.2719 76.1891 23.6903L88.1869 23.4617C88.124 20.1601 88.125 16.4166 88.1859 14.1359L76.1901 13.8161ZM76.1892 23.6984C76.1808 23.2858 76.2522 22.5302 76.7084 21.6899C77.1794 20.8222 77.8462 20.2597 78.4122 19.9415C78.9191 19.6567 79.2954 19.5919 79.3391 19.5844C79.397 19.5744 79.3221 19.592 79.052 19.592V31.592C80.2187 31.592 82.3305 31.5048 84.2918 30.4025C85.4058 29.7763 86.4986 28.8078 87.2546 27.415C87.9958 26.0498 88.2112 24.6502 88.1868 23.4536L76.1892 23.6984ZM79.052 19.592C78.7703 19.592 78.7658 19.5726 78.9219 19.6021C79.0791 19.6318 79.6264 19.7527 80.2742 20.1864C81.0014 20.6733 81.5725 21.3658 81.9114 22.1361C82.2113 22.8177 82.2324 23.3376 82.2348 23.4536L70.2372 23.6984C70.2761 25.601 70.9192 28.3641 73.5978 30.1576C75.6613 31.5392 77.9652 31.592 79.052 31.592V19.592ZM82.2344 23.4381C82.1719 20.7168 82.1739 17.611 82.2323 15.9464L70.2397 15.5256C70.1701 17.509 70.1721 20.8672 70.2376 23.7139L82.2344 23.4381ZM85.948 27.928C85.948 28.3657 85.8558 29.177 85.3365 30.0624C84.8005 30.9764 84.0658 31.5327 83.4802 31.83C82.9613 32.0934 82.5861 32.1437 82.5698 32.1461C82.5357 32.151 82.6282 32.136 82.924 32.136V20.136C81.9615 20.136 79.9443 20.1672 78.0478 21.13C76.9422 21.6913 75.7995 22.6036 74.9855 23.9916C74.1882 25.351 73.948 26.7543 73.948 27.928H85.948ZM82.924 32.136C83.2398 32.136 83.3424 32.1506 83.3183 32.1473C83.3129 32.1465 82.9309 32.0997 82.4007 31.8346C81.7966 31.5325 81.0454 30.9652 80.5031 30.0347C79.9828 29.1419 79.9 28.3347 79.9 27.928H91.9C91.9 26.7693 91.6692 25.3621 90.8709 23.9923C90.0506 22.5848 88.8914 21.6635 87.7673 21.1014C85.8634 20.1495 83.8309 20.136 82.924 20.136V32.136ZM79.9 27.928V31.832H91.9V27.928H79.9ZM85.9 37.832H86.156V25.832H85.9V37.832ZM85.7946 37.8211C89.4781 38.0434 92.4085 38.1918 95.8096 37.6654L93.9744 25.8066C91.9995 26.1122 90.2579 26.0686 86.5174 25.8429L85.7946 37.8211ZM95.8609 37.6572C95.7648 37.673 94.0292 37.8998 92.5124 36.3533C91.8874 35.716 91.6297 35.0796 91.5327 34.7696C91.4407 34.4756 91.4517 34.3466 91.4597 34.5047L103.444 33.8953C103.376 32.5619 103.076 29.9866 101.08 27.9507C98.7468 25.5722 95.7792 25.511 93.9231 25.8148L95.8609 37.6572ZM91.4579 34.4664C91.4723 34.7891 91.4657 34.8463 91.4688 34.8013C91.4719 34.7556 91.4983 34.3439 91.7257 33.7845C91.9851 33.1464 92.4506 32.4548 93.1615 31.9096C93.8261 31.3999 94.4309 31.2286 94.6923 31.1741L97.1397 42.9219C99.4888 42.4325 101.756 40.9762 102.842 38.3035C103.61 36.4142 103.47 34.4765 103.446 33.9336L91.4579 34.4664ZM94.7025 31.172C92.715 31.5825 90.4517 31.7098 83.4116 30.9837L82.1804 42.9203C89.4123 43.6662 93.229 43.7295 97.1295 42.924L94.7025 31.172ZM83.393 30.9818C78.8017 30.5226 74.7789 30.5517 70.1642 31.242L71.9398 43.11C75.4531 42.5843 78.4703 42.5494 82.199 42.9222L83.393 30.9818ZM70.162 31.2424C70.1684 31.2414 70.2428 31.2304 70.3739 31.2303C70.5052 31.2301 70.7144 31.2408 70.9805 31.2939C71.5479 31.407 72.2972 31.7011 72.9838 32.3274C74.3546 33.578 74.268 34.9602 74.268 34.712H62.268C62.268 36.3518 62.6134 39.11 64.8962 41.1926C67.2639 43.3526 70.1461 43.379 71.942 43.1096L70.162 31.2424ZM74.268 34.712C74.268 34.3691 74.2777 34.3447 74.2683 34.4221C74.2566 34.518 74.195 34.9794 73.8975 35.5652C73.5622 36.2252 73.047 36.8088 72.4215 37.2189C71.8585 37.588 71.4141 37.6805 71.338 37.6949L69.102 25.9051C66.9425 26.3146 64.5373 27.495 63.1985 30.1308C62.1918 32.1128 62.268 34.2086 62.268 34.712H74.268ZM71.3197 37.6984C72.7101 37.4391 75.1203 37.1417 79.2706 37.3448L79.8574 25.3592C74.8557 25.1143 71.5059 25.4569 69.1203 25.9016L71.3197 37.6984ZM79.0657 37.3313L79.4497 37.3633L80.4463 25.4047L80.0623 25.3727L79.0657 37.3313ZM85.948 31.384V27.928H73.948V31.384H85.948ZM102.315 16.184L96.3445 15.587L96.3427 15.6055L96.3409 15.624L102.315 16.184ZM102.315 10.552L96.3409 11.112L96.3427 11.1305L96.3445 11.149L102.315 10.552ZM108.107 10.232L102.133 10.792L102.135 10.8105L102.137 10.829L108.107 10.232ZM108.235 14.104H102.235V23.2032L110.598 19.6189L108.235 14.104ZM109.099 13.944L109.642 19.9194L109.702 19.9139L109.761 19.9073L109.099 13.944ZM116.107 14.04L115.702 20.0263L115.743 20.0291L115.783 20.0313L116.107 14.04ZM118.475 14.168L118.151 20.1593L120.824 20.3038L122.717 18.4107L118.475 14.168ZM117.355 12.568V6.568H117.341L117.327 6.56806L117.355 12.568ZM110.411 12.6V18.6H110.425L110.438 18.5999L110.411 12.6ZM108.939 10.552L102.94 10.6652L102.94 10.6768L102.94 10.6883L108.939 10.552ZM110.795 8.12V14.12H110.817L110.84 14.1198L110.795 8.12ZM119.243 8.056V2.056H119.22L119.197 2.05617L119.243 8.056ZM123.787 14.04L119.544 9.79736L113.658 15.6837L121.103 19.4066L123.787 14.04ZM124.715 16.184L130.713 16.0377L130.712 16.0109L130.711 15.9841L124.715 16.184ZM122.955 18.424L123.959 24.3393L123.971 24.3373L123.983 24.3353L122.955 18.424ZM115.851 18.456L116.535 12.4951L116.524 12.4939L115.851 18.456ZM109.515 18.36L108.793 12.4036L108.757 12.4079L108.722 12.4126L109.515 18.36ZM107.691 17.976L112.3 14.1349L107.156 7.96179L102.698 14.6478L107.691 17.976ZM116.139 25.912H110.139V32.3729L116.582 31.8956L116.139 25.912ZM118.411 25.752L117.83 19.7802L117.822 19.781L117.814 19.7818L118.411 25.752ZM124.267 30.776L118.342 29.8314L117.912 32.5232L119.657 34.6171L124.267 30.776ZM124.619 31.48L118.762 32.7816L118.809 32.9948L118.872 33.2041L124.619 31.48ZM122.571 33.976L123.355 39.9246L123.419 39.9161L123.483 39.9062L122.571 33.976ZM108.395 34.456L108.69 28.4633L102.395 28.1529V34.456H108.395ZM108.395 34.52L114.34 35.3307L114.395 34.9272V34.52H108.395ZM109.643 35.512L109.798 29.514L109.72 29.512H109.643V35.512ZM122.795 35.032L121.788 29.1171L121.764 29.1212L121.74 29.1254L122.795 35.032ZM125.707 36.344L119.934 37.9779L119.936 37.9851L119.938 37.9923L125.707 36.344ZM124.427 38.936L123.059 33.0939L123.042 33.0981L123.024 33.1023L124.427 38.936ZM105.771 39.32L105.149 45.2877L105.153 45.2882L105.771 39.32ZM102.411 34.712L108.333 35.6744L108.336 35.6563L108.339 35.6383L102.411 34.712ZM102.571 33.688L108.499 34.6143L109.036 31.1764L106.319 29.0028L102.571 33.688ZM102.315 31.928L96.4534 30.6458L96.447 30.675L96.4409 30.7043L102.315 31.928ZM105.099 30.776L105.601 24.7971L105.592 24.7963L105.584 24.7956L105.099 30.776ZM118.475 30.84L119.039 36.8134L123.746 36.3687L124.414 31.6885L118.475 30.84ZM117.003 29.912L116.67 23.9212L116.644 23.9227L116.619 23.9243L117.003 29.912ZM104.267 29.656L103.645 35.6237L103.654 35.6246L103.662 35.6255L104.267 29.656ZM102.667 27.448L96.7555 26.42L96.7481 26.4626L96.7413 26.5053L102.667 27.448ZM105.035 25.72L104.556 31.7009L104.587 31.7033L104.617 31.7054L105.035 25.72ZM110.379 25.944L110.284 31.9432L116.379 32.04V25.944H110.379ZM110.379 24.344H116.379V18.5686L110.608 18.3484L110.379 24.344ZM101.195 24.408L100.847 18.4181L100.821 18.4196L100.796 18.4213L101.195 24.408ZM98.9868 22.52L104.981 22.2476L104.98 22.234L104.979 22.2204L98.9868 22.52ZM100.811 19.928L101.096 25.9212L101.118 25.9202L101.141 25.9189L100.811 19.928ZM113.643 19.992L113.945 13.9996L113.942 13.9995L113.643 19.992ZM125.451 19.736L126.357 25.6672L126.378 25.664L126.399 25.6606L125.451 19.736ZM128.171 22.136L134.166 21.9097L134.166 21.898L134.166 21.8862L128.171 22.136ZM126.315 24.216L125.552 18.2647L125.55 18.265L126.315 24.216ZM116.139 24.568L116.327 18.571L110.139 18.3764V24.568H116.139ZM108.285 16.781C108.485 14.784 108.485 11.952 108.285 9.95498L96.3445 11.149C96.4648 12.352 96.4648 14.384 96.3445 15.587L108.285 16.781ZM108.289 9.99195C108.29 10.0037 108.299 10.1104 108.286 10.2903C108.273 10.4721 108.234 10.7549 108.125 11.1009C107.878 11.8796 107.366 12.6724 106.597 13.2626C105.913 13.7881 105.304 13.939 105.123 13.9769C104.944 14.0142 104.937 13.992 105.227 13.992V1.992C104.102 1.992 101.502 2.04506 99.2882 3.74542C96.4692 5.91037 96.1496 9.07074 96.3409 11.112L108.289 9.99195ZM105.227 13.992C105.652 13.992 105.682 14.0081 105.565 13.9909C105.425 13.9704 104.766 13.8633 104.003 13.3628C103.142 12.799 102.613 12.0474 102.341 11.4248C102.118 10.9171 102.116 10.6109 102.133 10.792L114.081 9.67195C113.935 8.12459 113.399 5.17288 110.579 3.32523C109.351 2.52075 108.125 2.23759 107.301 2.11711C106.499 1.99992 105.73 1.992 105.227 1.992V13.992ZM102.137 10.829C102.2 11.462 102.235 12.7322 102.235 14.104H114.235C114.235 12.7238 114.206 10.922 114.077 9.63498L102.137 10.829ZM110.598 19.6189C110.101 19.8321 109.712 19.9006 109.605 19.9184C109.504 19.9353 109.461 19.9358 109.642 19.9194L108.556 7.96864C108.416 7.98134 107.128 8.05043 105.871 8.58912L110.598 19.6189ZM109.761 19.9073C110.87 19.7841 113.249 19.8606 115.702 20.0263L116.511 8.05365C114.229 7.89944 110.784 7.71985 108.436 7.9807L109.761 19.9073ZM115.783 20.0313L118.151 20.1593L118.799 8.17675L116.431 8.04875L115.783 20.0313ZM122.717 18.4107C123.168 17.9604 123.744 17.2718 124.174 16.3048C124.615 15.3118 124.763 14.3401 124.763 13.496H112.763C112.763 12.9399 112.863 12.2082 113.208 11.4312C113.542 10.6802 113.974 10.1836 114.232 9.92534L122.717 18.4107ZM124.763 13.496C124.763 12.5615 124.591 11.3035 123.875 10.0362C123.121 8.69986 122.028 7.82418 120.962 7.30811C119.275 6.49066 117.528 6.568 117.355 6.568V18.568C117.504 18.568 117.4 18.5739 117.207 18.5515C117.028 18.5307 116.443 18.4528 115.731 18.1079C114.922 17.7158 114.037 17.0181 113.426 15.9368C112.855 14.9245 112.763 13.9985 112.763 13.496H124.763ZM117.327 6.56806L110.383 6.60006L110.438 18.5999L117.382 18.5679L117.327 6.56806ZM110.411 6.6C110.698 6.6 111.352 6.63824 112.141 6.98546C113.009 7.36711 113.738 7.98945 114.244 8.73499C114.699 9.40579 114.85 9.99228 114.9 10.2259C114.95 10.4618 114.94 10.5596 114.937 10.4157L102.94 10.6883C102.96 11.5589 103.045 13.6035 104.314 15.473C106.004 17.9638 108.585 18.6 110.411 18.6V6.6ZM114.938 10.4388C114.932 10.1207 114.949 10.1439 114.923 10.3253C114.896 10.507 114.776 11.2165 114.235 12.0282C113.614 12.9599 112.75 13.5658 111.931 13.8749C111.572 14.0103 111.279 14.0681 111.098 14.0939C110.919 14.1197 110.808 14.12 110.795 14.12V2.12C109.297 2.12 106.202 2.44433 104.25 5.3718C102.806 7.53805 102.928 10.0168 102.94 10.6652L114.938 10.4388ZM110.84 14.1198L119.288 14.0558L119.197 2.05617L110.749 2.12017L110.84 14.1198ZM119.243 14.056C119.767 14.056 120.067 14.0886 120.21 14.1148C120.359 14.1418 120.156 14.1295 119.808 13.9159C119.395 13.6629 118.966 13.2406 118.689 12.6874C118.437 12.1852 118.459 11.8703 118.459 11.992H130.459C130.459 8.71239 129.143 5.56253 126.078 3.68408C123.637 2.1886 120.888 2.056 119.243 2.056V14.056ZM118.459 11.992C118.459 12.287 118.426 11.9458 118.594 11.4025C118.688 11.0958 118.83 10.7727 119.024 10.46C119.214 10.1547 119.406 9.93514 119.544 9.79736L128.029 18.2826C128.912 17.3999 129.64 16.3014 130.06 14.9415C130.428 13.7502 130.459 12.657 130.459 11.992H118.459ZM121.103 19.4066C119.784 18.7468 119.139 17.6668 118.887 16.9974C118.687 16.4646 118.71 16.1491 118.718 16.3839L130.711 15.9841C130.682 15.1112 130.573 10.7247 126.47 8.67343L121.103 19.4066ZM118.717 16.3303C118.726 16.7358 118.579 15.5243 119.516 14.2126C120.021 13.5063 120.635 13.055 121.149 12.7953C121.387 12.6751 121.583 12.6056 121.71 12.5671C121.836 12.5288 121.915 12.5148 121.927 12.5127L123.983 24.3353C125.386 24.0912 127.689 23.4164 129.281 21.1874C130.738 19.1477 130.735 16.9442 130.713 16.0377L118.717 16.3303ZM121.95 12.5087C121.007 12.6689 118.162 12.6818 116.535 12.4951L115.167 24.4169C117.444 24.6782 121.511 24.7551 123.959 24.3393L121.95 12.5087ZM116.524 12.4939C114.196 12.231 110.418 12.2066 108.793 12.4036L110.237 24.3164C110.222 24.3181 110.406 24.3 110.849 24.2869C111.246 24.2751 111.739 24.2704 112.275 24.2757C113.386 24.2868 114.476 24.3389 115.178 24.4181L116.524 12.4939ZM108.722 12.4126C108.568 12.4332 108.967 12.3521 109.631 12.4955C110.46 12.6748 111.49 13.1634 112.3 14.1349L103.081 21.8171C105.513 24.7346 108.944 24.4892 110.308 24.3074L108.722 12.4126ZM102.698 14.6478C103.007 14.1849 103.429 13.7456 103.953 13.3947C104.457 13.0572 104.916 12.8938 105.209 12.8155C105.483 12.7423 105.65 12.7335 105.617 12.736C105.586 12.7384 105.48 12.744 105.227 12.744V24.744C105.847 24.744 107.064 24.7411 108.308 24.4085C109.848 23.9967 111.505 23.0706 112.683 21.3042L102.698 14.6478ZM105.227 12.744C105.079 12.744 105.127 12.7304 105.305 12.7693C105.48 12.8073 105.969 12.9362 106.54 13.3423C107.174 13.7931 107.723 14.4572 108.038 15.2613C108.328 16.0041 108.305 16.5714 108.289 16.744L96.3409 15.624C96.0962 18.2348 96.8961 21.2092 99.5856 23.1217C101.692 24.6199 104.045 24.744 105.227 24.744V12.744ZM110.139 25.816V25.912H122.139V25.816H110.139ZM116.582 31.8956C117.133 31.8548 118.302 31.7928 119.008 31.7222L117.814 19.7818C117.24 19.8392 116.872 19.8412 115.696 19.9284L116.582 31.8956ZM118.991 31.7238C119.93 31.6326 120.416 31.654 120.607 31.6784C120.801 31.7033 120.297 31.6825 119.644 31.174C119.305 30.9096 119.009 30.5764 118.787 30.2037C118.571 29.8421 118.476 29.5311 118.435 29.3474C118.369 29.0458 118.456 29.1141 118.342 29.8314L130.192 31.7206C130.623 29.0152 130.729 24.5962 127.017 21.706C125.388 20.4375 123.576 19.9607 122.131 19.7756C120.681 19.59 119.196 19.6474 117.83 19.7802L118.991 31.7238ZM119.657 34.6171C119.318 34.2103 118.94 33.5863 118.762 32.7816L130.476 30.1784C130.169 28.7977 129.535 27.7257 128.876 26.9349L119.657 34.6171ZM118.872 33.2041C118.853 33.1418 118.732 32.7346 118.759 32.1087C118.789 31.4039 119.008 30.4889 119.621 29.6225C120.767 28.0025 122.237 27.9568 121.658 28.0458L123.483 39.9062C124.985 39.6752 127.67 39.0215 129.417 36.5535C131.32 33.8629 130.746 31.024 130.366 29.7559L118.872 33.2041ZM121.787 28.0274C118.08 28.5159 112.944 28.673 108.69 28.4633L108.099 40.4487C112.933 40.687 118.805 40.5241 123.355 39.9246L121.787 28.0274ZM102.395 34.456V34.52H114.395V34.456H102.395ZM102.45 33.7093C102.432 33.8424 102.316 34.5926 102.384 35.4467C102.466 36.4836 102.847 38.1216 104.248 39.5226C105.508 40.7822 106.943 41.1841 107.68 41.3346C108.449 41.4917 109.164 41.512 109.643 41.512V29.512C109.466 29.512 109.685 29.4963 110.082 29.5774C110.446 29.6519 111.634 29.9378 112.733 31.0374C113.974 32.2784 114.284 33.7124 114.346 34.4973C114.394 35.0994 114.31 35.5496 114.34 35.3307L102.45 33.7093ZM109.488 41.51C114.51 41.6396 121.423 41.3719 123.849 40.9386L121.74 29.1254C121.74 29.1254 121.738 29.1259 121.731 29.1269C121.725 29.1279 121.717 29.1293 121.705 29.131C121.682 29.1346 121.65 29.1393 121.608 29.1448C121.525 29.156 121.415 29.1693 121.278 29.184C121.002 29.2137 120.651 29.2453 120.231 29.2769C119.39 29.3403 118.34 29.3987 117.171 29.4446C114.825 29.5368 112.119 29.5739 109.798 29.514L109.488 41.51ZM123.802 40.9469C124.226 40.8746 124.275 40.8731 124.237 40.8757C124.189 40.8791 123.628 40.9243 122.867 40.6896C121.965 40.4114 121.154 39.8584 120.576 39.1357C120.083 38.5203 119.942 38.0097 119.934 37.9779L131.48 34.7101C130.954 32.85 129.608 30.2107 126.403 29.2224C125.162 28.8397 124.056 28.8589 123.396 28.9053C122.746 28.9509 122.115 29.0614 121.788 29.1171L123.802 40.9469ZM119.938 37.9923C119.965 38.088 119.908 37.927 119.89 37.5999C119.871 37.2583 119.884 36.5571 120.229 35.7224C121.078 33.6647 122.818 33.1503 123.059 33.0939L125.794 44.7781C127.539 44.3697 130.111 43.2313 131.321 40.3016C132.32 37.8804 131.737 35.6087 131.476 34.6957L119.938 37.9923ZM123.024 33.1023C123.106 33.0825 122.957 33.1198 122.425 33.1756C121.955 33.2249 121.344 33.2732 120.608 33.3172C119.141 33.4052 117.325 33.4679 115.438 33.5009C111.545 33.5691 107.843 33.5023 106.388 33.3518L105.153 45.2882C107.411 45.5217 111.772 45.5669 115.648 45.4991C117.645 45.4641 119.639 45.3968 121.326 45.2958C122.823 45.2061 124.6 45.0655 125.83 44.7697L123.024 33.1023ZM106.392 33.3523C106.126 33.3245 106.256 33.2985 106.585 33.4639C106.969 33.6567 107.456 34.029 107.833 34.6166C108.189 35.1717 108.276 35.6512 108.295 35.8386C108.312 36.0009 108.284 35.9744 108.333 35.6744L96.4884 33.7496C96.1977 35.5387 96.0254 38.4341 97.7324 41.0954C99.6018 44.0099 102.63 45.0253 105.149 45.2877L106.392 33.3523ZM108.339 35.6383L108.499 34.6143L96.6427 32.7617L96.4827 33.7857L108.339 35.6383ZM106.319 29.0028C106.885 29.4554 107.375 30.0537 107.716 30.764C108.042 31.4449 108.15 32.0573 108.183 32.4671C108.236 33.1251 108.106 33.5469 108.189 33.1517L96.4409 30.7043C96.3632 31.0771 96.121 32.1869 96.2224 33.4369C96.3496 35.0057 97.0246 36.9348 98.8226 38.3732L106.319 29.0028ZM108.176 33.2102C108.241 32.916 108.165 33.404 107.865 33.9973C107.431 34.8562 106.662 35.7304 105.563 36.2741C104.697 36.7025 104.017 36.7224 104.017 36.7224C103.972 36.7248 104.115 36.716 104.614 36.7564L105.584 24.7956C104.898 24.74 104.13 24.6992 103.375 24.7396C102.666 24.7776 101.481 24.9055 100.243 25.5179C97.0084 27.1176 96.5123 30.3763 96.4534 30.6458L108.176 33.2102ZM104.596 36.7549C108.626 37.0935 114.508 37.2415 119.039 36.8134L117.91 24.8666C114.313 25.2065 109.188 25.0985 105.601 24.7971L104.596 36.7549ZM124.414 31.6885C124.501 31.0835 124.615 29.8821 124.186 28.5135C123.666 26.8531 122.528 25.5145 121.042 24.7219C119.826 24.0733 118.68 23.955 118.152 23.9184C117.56 23.8774 117.009 23.9024 116.67 23.9212L117.336 35.9028C117.573 35.8896 117.509 35.9026 117.322 35.8896C117.198 35.881 116.371 35.8307 115.395 35.3101C114.149 34.6455 113.172 33.4949 112.735 32.1025C112.39 31.0019 112.513 30.1485 112.535 29.9915L124.414 31.6885ZM116.619 23.9243C114.467 24.0622 107.086 23.9108 104.871 23.6865L103.662 35.6255C106.503 35.9132 114.546 36.0818 117.387 35.8997L116.619 23.9243ZM104.888 23.6883C104.889 23.6884 104.908 23.6903 104.941 23.6956C104.973 23.7008 105.026 23.7102 105.094 23.726C105.226 23.7563 105.453 23.8185 105.737 23.9422C106.352 24.2106 107.174 24.7487 107.808 25.7048C108.413 26.6182 108.557 27.4774 108.59 27.9166C108.619 28.3158 108.57 28.5284 108.592 28.3907L96.7413 26.5053C96.6135 27.3085 96.1988 29.911 97.8058 32.3352C99.5893 35.0256 102.428 35.4969 103.645 35.6237L104.888 23.6883ZM108.578 28.476C108.664 27.9842 108.543 29.6138 106.895 30.8224C106.089 31.4134 105.316 31.6034 104.904 31.6643C104.544 31.7177 104.368 31.6858 104.556 31.7009L105.513 19.7391C104.568 19.6635 102.054 19.4914 99.7986 21.1456C97.4304 22.8822 96.9259 25.4398 96.7555 26.42L108.578 28.476ZM104.617 31.7054C106.092 31.8083 108.152 31.9094 110.284 31.9432L110.474 19.9448C108.574 19.9146 106.73 19.8237 105.452 19.7345L104.617 31.7054ZM116.379 25.944V25.816H104.379V25.944H116.379ZM116.379 25.816V24.344H104.379V25.816H116.379ZM110.608 18.3484C106.213 18.1806 103.781 18.2475 100.847 18.4181L101.543 30.3979C104.113 30.2485 106.16 30.1873 110.15 30.3396L110.608 18.3484ZM100.796 18.4213C100.838 18.4184 101.145 18.3994 101.607 18.5066C102.103 18.6216 102.787 18.8862 103.45 19.4477C104.876 20.654 104.974 22.1042 104.981 22.2476L92.9929 22.7924C93.0635 24.3438 93.5455 26.786 95.6991 28.6083C97.7776 30.367 100.18 30.489 101.594 30.3947L100.796 18.4213ZM104.979 22.2204C104.969 22.0184 104.994 22.1273 104.939 22.4197C104.881 22.7321 104.702 23.4033 104.159 24.128C102.875 25.8394 101.138 25.9192 101.096 25.9212L100.525 13.9348C99.14 14.0008 96.4423 14.4166 94.5588 16.928C92.9383 19.0887 92.9308 21.5508 92.9942 22.8196L104.979 22.2204ZM101.141 25.9189C104.399 25.7396 107.132 25.674 113.343 25.9845L113.942 13.9995C107.353 13.67 104.198 13.7324 100.481 13.9371L101.141 25.9189ZM113.34 25.9844C119.918 26.3166 123.519 26.1007 126.357 25.6672L124.545 13.8048C122.774 14.0753 120.04 14.3074 113.945 13.9996L113.34 25.9844ZM126.399 25.6606C126.538 25.6383 126.329 25.689 125.926 25.6478C125.475 25.6016 124.658 25.4254 123.821 24.8105C122.045 23.5051 122.152 21.801 122.176 22.3858L134.166 21.8862C134.094 20.167 133.64 17.1349 130.928 15.1415C128.375 13.2645 125.543 13.6449 124.503 13.8114L126.399 25.6606ZM122.175 22.3623C122.187 22.6751 122.007 20.854 123.693 19.3174C124.428 18.6477 125.151 18.393 125.444 18.3068C125.696 18.2326 125.823 18.2299 125.552 18.2647L127.078 30.1673C127.425 30.1227 129.854 29.9386 131.776 28.1866C134.094 26.074 134.219 23.2929 134.166 21.9097L122.175 22.3623ZM125.55 18.265C123.657 18.5083 121.13 18.722 116.327 18.571L115.95 30.565C121.324 30.734 124.493 30.4997 127.08 30.167L125.55 18.265ZM110.139 24.568V25.816H122.139V24.568H110.139Z" fill="#4B4B53" mask="url(#path-1-outside-1_985_689)"/>
</svg>
