<svg width="305" height="383" viewBox="0 0 305 383" fill="none" xmlns="http://www.w3.org/2000/svg">
<path d="M147.805 225.705C149.679 216.177 129.486 192.441 121.502 180.615C102.709 181.825 76.6228 172.024 49.9401 173.509C23.2573 174.995 34.6593 195.302 43.6957 205.271C71.7129 222.166 72.9932 255.505 70.1312 270.062C63.1769 280.266 69.978 302.302 74.2479 312.045C91.507 341.712 158.79 336.459 190.274 330.125C231.54 319.483 242.574 294.818 238.457 252.835C234.341 210.853 145.464 237.615 147.805 225.705Z" fill="#9ED9C9"/>
<path d="M146.422 237.515C147.136 237.368 147.869 237.333 148.594 237.413L216.237 244.832C220.717 245.323 223.572 249.858 222.078 254.11L220.378 258.948C219.283 262.065 216.158 263.992 212.881 263.571L135.619 253.642C127.778 252.634 127.358 241.434 135.102 239.842L146.422 237.515Z" fill="#89D1BD"/>
<path d="M93.8739 184.872C95.5643 184.5 97.3327 184.767 98.8377 185.622L117.808 196.399C118.801 196.963 119.641 197.761 120.254 198.724L136.245 223.828C138.672 227.639 136.908 232.716 132.641 234.201L122.031 237.891C119.556 238.752 116.807 238.158 114.907 236.352L76.5429 199.868C72.4784 196.003 74.3831 189.166 79.8606 187.959L93.8739 184.872Z" fill="#89D1BD"/>
<path d="M242.733 199.926C239.204 198.323 227.666 201.949 222.338 203.963C221.08 211.374 218.095 228.822 216.218 239.323C214.342 249.824 223.278 247.262 227.981 244.669C237.121 235.34 250.188 237.908 255.58 240.359C258.904 243.998 268.089 243.383 272.266 242.62C285.377 238.644 289.524 212.026 289.958 199.214C289.619 182.206 281.053 175.652 264.367 173.39C247.681 171.129 247.144 201.931 242.733 199.926Z" fill="#FD757D"/>
<path d="M243.987 177.504C242.448 181.061 231.461 186.118 226.16 188.202C220.253 183.552 206.329 172.622 197.89 166.098C189.45 159.574 197.794 155.474 203.021 154.24C216.057 155.02 224.02 144.345 226.371 138.91C226.392 133.981 233.614 128.272 237.222 126.034C249.61 120.181 270.55 137.128 279.472 146.333C290.636 159.168 288.686 169.776 277.835 182.653C266.984 195.529 245.911 173.057 243.987 177.504Z" fill="#FD757D"/>
<path d="M158.575 190.248L185.627 180.024C213.115 163.753 224.845 185.628 227.274 198.599L228.612 234.86C229.147 249.365 212.51 254.427 204.125 255.145C167.122 259.325 149.498 231.671 145.311 217.321C139.368 198.978 151.677 191.629 158.575 190.248Z" fill="#FD959B"/>
<path fill-rule="evenodd" clip-rule="evenodd" d="M187.593 182.682C187.535 182.721 187.476 182.76 187.418 182.799C187.495 182.826 187.572 182.853 187.649 182.881C187.63 182.814 187.611 182.748 187.593 182.682ZM137.509 216.063C146.056 221.801 157.424 220.083 163.935 212.42C165.383 214.727 167.328 216.775 169.735 218.391C178.924 224.56 191.373 222.112 197.541 212.924C200.961 207.829 201.733 201.732 200.175 196.259C208.61 199.28 218.333 196.333 223.556 188.554C229.044 180.379 227.711 169.623 220.879 163.005C227.148 162.84 233.244 159.744 237.006 154.141C243.174 144.953 240.726 132.504 231.538 126.335C229.765 125.145 227.871 124.275 225.924 123.713C228.553 122.227 230.884 120.121 232.683 117.443C238.851 108.255 236.403 95.8057 227.215 89.6371C223.454 87.112 219.146 86.0308 214.947 86.2647C220.216 77.2072 217.608 65.4922 208.785 59.5688C200.359 53.9125 189.193 55.501 182.64 62.8877C184.674 54.9032 181.618 46.1571 174.386 41.3019C165.198 35.1334 152.749 37.5813 146.58 46.7695C145.579 48.2614 144.804 49.8392 144.249 51.4623C142.984 47.1036 140.239 43.1481 136.177 40.4205C126.988 34.252 114.539 36.6999 108.371 45.8881C105.265 50.5149 104.343 55.9685 105.367 61.0307C104.908 60.6598 104.428 60.3059 103.929 59.9706C94.7406 53.802 82.2916 56.25 76.1231 65.4381C71.6591 72.0873 71.7075 80.4442 75.5573 86.8928C69.1323 86.9184 62.8334 90.0276 58.9824 95.7637C52.9069 104.813 55.19 117.026 64.039 123.286C62.0022 124.681 60.1907 126.478 58.7309 128.652C52.5624 137.84 55.0103 150.289 64.1985 156.458C66.1876 157.793 68.3296 158.725 70.5275 159.272C64.6678 168.421 67.1718 180.622 76.2374 186.708C82.1231 190.659 89.3469 191.075 95.4008 188.448C92.8875 196.668 95.8953 205.899 103.401 210.938C112.072 216.76 123.648 214.907 130.108 206.958C131.557 210.542 134.058 213.746 137.509 216.063Z" fill="#FEB7BB"/>
<path d="M156.029 102.751C163.744 104.65 178.569 104.392 176.141 88.1732" stroke="#4B4B53" stroke-width="7" stroke-linecap="round"/>
<path d="M120.923 123.714C128.416 126.357 143.195 127.547 142.361 111.169" stroke="#4B4B53" stroke-width="7" stroke-linecap="round"/>
<path d="M208.265 167.265L226.584 136.275L256.713 154.085C261.468 156.895 263.044 163.028 260.233 167.782L252.091 181.556C249.281 186.31 243.149 187.886 238.394 185.075L208.265 167.265Z" fill="#74B2A1"/>
<path d="M198.095 133.374L191.989 143.704L180.798 137.089C177.945 135.403 177 131.723 178.686 128.871C180.372 126.018 184.052 125.073 186.904 126.759L198.095 133.374Z" fill="#FEF6F6"/>
<rect x="181.578" y="151.49" width="36" height="33" rx="16.5" transform="rotate(-59.4119 181.578 151.49)" fill="#FEF6F6"/>
<rect x="193.825" y="162.215" width="42" height="17" rx="6" transform="rotate(-59.4119 193.825 162.215)" fill="black"/>
<line x1="221.12" y1="166.152" x2="224.173" y2="160.986" stroke="white" stroke-linecap="round"/>
<line x1="224.564" y1="168.187" x2="227.617" y2="163.022" stroke="white" stroke-linecap="round"/>
<line x1="228.007" y1="170.223" x2="231.06" y2="165.058" stroke="white" stroke-linecap="round"/>
<line x1="231.45" y1="172.258" x2="234.503" y2="167.093" stroke="white" stroke-linecap="round"/>
<line x1="234.894" y1="174.294" x2="237.947" y2="169.129" stroke="white" stroke-linecap="round"/>
<line x1="238.337" y1="176.329" x2="241.39" y2="171.164" stroke="white" stroke-linecap="round"/>
<ellipse cx="239.146" cy="146.293" rx="15.4611" ry="17.7259" transform="rotate(38.6547 239.146 146.293)" fill="#FD959B"/>
<path d="M177.5 114.293C188.536 122.293 182.536 139.426 167.005 139.426" stroke="#3B3B41" stroke-width="7" stroke-linecap="round"/>
</svg>
