<svg width="160" height="160" viewBox="0 0 160 160" fill="none" xmlns="http://www.w3.org/2000/svg">
<g clip-path="url(#clip0_4016_7619)">
<path d="M0.737335 58.7579C-0.598442 60.7817 0.180763 75.8363 0.737335 80.5212C3.19886 93.2167 16.9292 101.662 32.3235 97.439C43.8692 93.9198 48.4174 79.4907 41.4202 71.3963C42.1202 76.3233 32.7209 90.1592 18.3286 81.2503C13.7803 78.4349 13.9096 67.3779 14.3735 62.412C14.5961 56.1156 11.034 56.5091 10.4774 59.32C9.92085 62.412 9.08599 61.5687 9.64257 59.0389C9.92086 55.3848 6.64688 55.947 6.30312 57.9146C5.63523 61.7374 4.63337 61.5687 4.63337 60.7255C5.52389 57.3524 4.0768 56.5091 3.24194 56.5091C2.12878 56.5091 1.10839 58.0083 0.737335 58.7579Z" fill="#FD959B"/>
<path d="M159.262 58.7579C160.597 60.7817 159.818 75.8363 159.262 80.5212C156.8 93.2167 143.07 101.662 127.676 97.439C116.13 93.9198 111.582 79.4907 118.579 71.3963C117.879 76.3233 127.278 90.1592 141.67 81.2503C146.219 78.4349 146.089 67.3779 145.626 62.412C145.403 56.1156 148.965 56.5091 149.522 59.32C150.078 62.412 150.913 61.5687 150.356 59.0389C150.078 55.3848 153.352 55.947 153.696 57.9146C154.364 61.7374 155.366 61.5687 155.366 60.7255C154.475 57.3524 155.922 56.5091 156.757 56.5091C157.87 56.5091 158.891 58.0083 159.262 58.7579Z" fill="#FD959B"/>
<path d="M48.0679 139.769C50.2579 129.494 55.8031 117.648 59.7903 110.842H79.6467L67.6851 140.498C66.9196 142.054 66.2497 148.277 66.0105 151.194C66.776 156.639 61.0664 158 58.1158 158C43.6493 158 45.3597 158 39.2165 157.514C30.4398 156.819 29.4877 153.787 30.1256 151.923C30.317 147.839 42.1669 142.119 48.0679 139.769Z" fill="#FD959B"/>
<path d="M113.685 139.769C111.495 129.494 105.95 117.648 101.963 110.842H82.1062L94.0678 140.498C94.8334 142.054 95.5032 148.277 95.7424 151.194C94.9769 156.639 100.687 158 103.637 158C118.104 158 116.393 158 122.536 157.514C131.313 156.819 132.265 153.787 131.627 151.923C131.436 147.839 119.586 142.119 113.685 139.769Z" fill="#FD959B"/>
<path fill-rule="evenodd" clip-rule="evenodd" d="M94.5609 2.75702C89.1438 2.75702 84.4434 5.84373 82.1033 10.364C81.9071 9.92356 81.6867 9.48899 81.4416 9.06194C77.5655 2.30885 68.9809 -0.00493157 62.2673 3.89396C57.576 6.61839 55.0397 11.6554 55.2598 16.747C54.8712 16.4644 54.4645 16.199 54.0402 15.9526C47.3266 12.0537 38.7419 14.3674 34.8658 21.1205C32.1574 25.8393 32.4646 31.477 35.186 35.7757C34.7093 35.7265 34.2255 35.7012 33.7358 35.7012C25.9836 35.7012 19.6992 42.0226 19.6992 49.8204C19.6992 55.2695 22.768 59.9976 27.262 62.3515C26.8243 62.5488 26.3923 62.7704 25.9679 63.0169C19.2543 66.9158 16.9541 75.5509 20.8302 82.304C23.5385 87.0226 28.5457 89.5738 33.6071 89.3527C33.3262 89.7435 33.0625 90.1525 32.8176 90.5793C28.9415 97.3324 31.2417 105.968 37.9553 109.866C42.6467 112.591 48.2517 112.282 52.5252 109.544C52.4762 110.024 52.4511 110.511 52.4511 111.004C52.4511 118.802 58.7355 125.123 66.4877 125.123C71.905 125.123 76.6055 122.036 78.9456 117.515C79.1417 117.956 79.362 118.39 79.607 118.817C83.4831 125.57 92.0678 127.884 98.7814 123.985C103.472 121.261 106.008 116.225 105.789 111.134C106.177 111.416 106.583 111.68 107.007 111.926C113.72 115.825 122.305 113.512 126.181 106.759C128.889 102.04 128.582 96.4017 125.86 92.103C126.338 92.1525 126.823 92.1778 127.314 92.1778C135.066 92.1778 141.351 85.8564 141.351 78.0587C141.351 72.6096 138.282 67.8815 133.788 65.5276C134.225 65.3306 134.656 65.1093 135.08 64.8632C141.793 60.9643 144.094 52.3291 140.217 45.5761C137.509 40.8576 132.502 38.3064 127.441 38.5274C127.722 38.1362 127.986 37.7269 128.231 37.2998C132.107 30.5467 129.807 21.9116 123.093 18.0127C118.402 15.2882 112.797 15.5974 108.523 18.3351C108.572 17.8555 108.597 17.3688 108.597 16.8762C108.597 9.07839 102.313 2.75702 94.5609 2.75702Z" fill="#FEB7BB"/>
<ellipse cx="60.0085" cy="67.2613" rx="6.7839" ry="6.8238" fill="#FD959B"/>
<ellipse cx="100.355" cy="67.2613" rx="6.7839" ry="6.8238" fill="#FD959B"/>
<ellipse cx="69.4762" cy="55.8578" rx="9.42055" ry="9.47597" fill="white"/>
<ellipse cx="70.761" cy="56.2872" rx="7.27952" ry="7.32234" fill="#3B3B41"/>
<ellipse cx="68.1918" cy="59.7337" rx="2.14103" ry="2.15363" fill="white"/>
<ellipse cx="73.3304" cy="52.8414" rx="3.85386" ry="3.87653" fill="white"/>
<ellipse cx="9.42055" cy="9.47597" rx="9.42055" ry="9.47597" transform="matrix(-1 0 0 1 100.588 46.3809)" fill="white"/>
<ellipse cx="89.8821" cy="56.2872" rx="7.27952" ry="7.32234" fill="#3B3B41"/>
<ellipse cx="87.3139" cy="59.7327" rx="2.14103" ry="2.15363" fill="white"/>
<ellipse cx="92.4525" cy="52.8414" rx="3.85386" ry="3.87653" fill="white"/>
<path d="M81.2002 90.4971L79.8181 69.3331L63.1168 70.2862C58.0693 70.5743 58.6243 75.6502 59.5327 78.1521C62.5062 87.1761 72.6639 90.9843 81.2002 90.4971Z" fill="#3B3B41"/>
<path d="M81.2002 90.4971L79.8181 69.3331L96.5192 68.3799C101.567 68.0919 101.676 73.1932 101.1 75.7799C99.323 85.0749 89.7365 90.0099 81.2002 90.4971Z" fill="#3B3B41"/>
<path d="M98.5 82.0005C96 86.0005 92.748 89.2256 84.326 91.0146C75.904 92.8036 68.4279 91.5004 67.6277 88.104C66.8274 84.7075 73.0061 80.5039 81.4281 78.7149C89.8501 76.9259 97.6998 78.604 98.5 82.0005Z" fill="#D64A52"/>
</g>
<defs>
<clipPath id="clip0_4016_7619">
<rect width="160" height="160" fill="white"/>
</clipPath>
</defs>
</svg>
